<?xml version="1.0" encoding="UTF-8"?>
<!DOCTYPE svg PUBLIC "-//W3C//DTD SVG 1.1//EN" "http://www.w3.org/Graphics/SVG/1.1/DTD/svg11.dtd">
<!-- Creator: CorelDRAW 2020 (64-Bit Evaluation Version) -->
<svg xmlns="http://www.w3.org/2000/svg" xml:space="preserve" width="0.472516in" height="0.538807in" version="1.1" style="shape-rendering:geometricPrecision; text-rendering:geometricPrecision; image-rendering:optimizeQuality; fill-rule:evenodd; clip-rule:evenodd"
viewBox="0 0 182.37 207.96"
 xmlns:xlink="http://www.w3.org/1999/xlink"
 xmlns:xodm="http://www.corel.com/coreldraw/odm/2003">
 <defs>
  <style type="text/css">
   <![CDATA[
    .fil1 {fill:none}
    .fil0 {fill:#0269CA}
    .fil2 {fill:white;fill-rule:nonzero}
   ]]>
  </style>
 </defs>
 <g id="Layer_x0020_1">
  <metadata id="CorelCorpID_0Corel-Layer"/>
  <g id="_2529119801232">
   <path class="fil0" d="M90.9 0c49.12,0 90.4,39.88 91.48,89.47 -0.5,47.01 -32.59,86.5 -91.02,118.49 -61.38,-31.29 -92.7,-72.91 -91.31,-118.79 1.91,-47.82 41.74,-89.17 90.85,-89.17z"/>
   <g id="face_white_24dp.svg">
    <polygon class="fil1" points="25.52,23.19 160.2,23.19 160.2,157.87 25.52,157.87 "/>
    <path class="fil2" d="M76.02 89.13c-3.87,0 -7.01,3.14 -7.01,7.01 0,3.87 3.14,7.01 7.01,7.01 3.87,0 7.01,-3.14 7.01,-7.01 0,-3.87 -3.14,-7.01 -7.01,-7.01zm33.67 0c-3.87,0 -7.01,3.14 -7.01,7.01 0,3.87 3.14,7.01 7.01,7.01 3.87,0 7.01,-3.14 7.01,-7.01 0,-3.87 -3.14,-7.01 -7.01,-7.01zm-16.83 -54.72c-30.98,0 -56.12,25.14 -56.12,56.12 0,30.98 25.14,56.12 56.12,56.12 30.98,0 56.12,-25.14 56.12,-56.12 0,-30.98 -25.14,-56.12 -56.12,-56.12zm0 101.01c-24.75,0 -44.9,-20.15 -44.9,-44.9 0,-1.63 0.11,-3.26 0.28,-4.83 13.24,-5.89 23.74,-16.72 29.24,-30.14 10.16,14.37 26.88,23.74 45.79,23.74 4.38,0 8.59,-0.5 12.63,-1.46 1.18,3.99 1.85,8.25 1.85,12.68 0,24.75 -20.15,44.9 -44.89,44.9l0 0z"/>
   </g>
  </g>
 </g>
</svg>
