<?xml version="1.0" encoding="UTF-8"?>
<!DOCTYPE svg PUBLIC "-//W3C//DTD SVG 1.1//EN" "http://www.w3.org/Graphics/SVG/1.1/DTD/svg11.dtd">
<!-- Creator: CorelDRAW 2020 (64-Bit Evaluation Version) -->
<svg xmlns="http://www.w3.org/2000/svg" xml:space="preserve" width="0.472516in" height="0.538807in" version="1.1" style="shape-rendering:geometricPrecision; text-rendering:geometricPrecision; image-rendering:optimizeQuality; fill-rule:evenodd; clip-rule:evenodd"
viewBox="0 0 116.13 132.42"
 xmlns:xlink="http://www.w3.org/1999/xlink"
 xmlns:xodm="http://www.corel.com/coreldraw/odm/2003">
 <defs>
  <style type="text/css">
   <![CDATA[
    .fil1 {fill:none}
    .fil0 {fill:#0269CA}
    .fil2 {fill:white;fill-rule:nonzero}
   ]]>
  </style>
 </defs>
 <g id="Layer_x0020_1">
  <metadata id="CorelCorpID_0Corel-Layer"/>
  <path class="fil0" d="M57.88 0c31.28,0 57.56,25.39 58.25,56.97 -0.32,29.94 -20.75,55.08 -57.96,75.45 -39.08,-19.93 -59.03,-46.42 -58.14,-75.64 1.22,-30.45 26.58,-56.78 57.85,-56.78z"/>
  <g id="local_grocery_store_white_24dp_x0020__x0028_1_x0029_.svg">
   <polygon class="fil1" points="18.76,19.26 95.56,19.26 95.56,96.06 18.76,96.06 "/>
   <path class="fil2" d="M41.16 76.86c-3.52,0 -6.37,2.88 -6.37,6.4 0,3.52 2.85,6.4 6.37,6.4 3.52,0 6.4,-2.88 6.4,-6.4 0,-3.52 -2.88,-6.4 -6.4,-6.4l0 0zm-19.2 -51.2l0 6.4 6.4 -0 11.52 24.29 -4.32 7.84c-0.51,0.9 -0.8,1.95 -0.8,3.07 0,3.52 2.88,6.4 6.4,6.4l38.4 0 0 -6.4 -37.06 0c-0.45,0 -0.8,-0.35 -0.8,-0.8l0.1 -0.39 2.88 -5.22 23.84 0c2.4,0 4.51,-1.31 5.6,-3.3l11.46 -20.77c0.26,-0.45 0.39,-0.99 0.39,-1.54 0,-1.76 -1.44,-3.2 -3.2,-3.2l-47.33 -0 -3.01 -6.4 -10.46 0zm51.2 51.2c-3.52,0 -6.37,2.88 -6.37,6.4 0,3.52 2.85,6.4 6.37,6.4 3.52,0 6.4,-2.88 6.4,-6.4 0,-3.52 -2.88,-6.4 -6.4,-6.4z"/>
  </g>
 </g>
</svg>
