<?xml version="1.0" encoding="UTF-8"?>
<!DOCTYPE svg PUBLIC "-//W3C//DTD SVG 1.1//EN" "http://www.w3.org/Graphics/SVG/1.1/DTD/svg11.dtd">
<!-- Creator: CorelDRAW 2021 (64-Bit) -->
<svg xmlns="http://www.w3.org/2000/svg" xml:space="preserve" width="0.472516in" height="0.538807in" version="1.1" style="shape-rendering:geometricPrecision; text-rendering:geometricPrecision; image-rendering:optimizeQuality; fill-rule:evenodd; clip-rule:evenodd"
viewBox="0 0 31.98 36.47"
 xmlns:xlink="http://www.w3.org/1999/xlink"
 xmlns:xodm="http://www.corel.com/coreldraw/odm/2003">
 <defs>
  <style type="text/css">
   <![CDATA[
    .fil0 {fill:#0269CA}
    .fil1 {fill:white}
   ]]>
  </style>
 </defs>
 <g id="Layer_x0020_1">
  <metadata id="CorelCorpID_0Corel-Layer"/>
  <path class="fil0" d="M15.94 0c8.61,0 15.85,6.99 16.04,15.69 -0.09,8.24 -5.71,15.17 -15.96,20.78 -10.76,-5.49 -16.26,-12.78 -16.01,-20.83 0.33,-8.39 7.32,-15.64 15.93,-15.64z"/>
  <g id="_1671667643168">
   <g>
    <path class="fil1" d="M15.9 8.05l-10 5.61c-0.24,0.14 -0.57,0.49 -0.25,1 0.32,0.51 0.62,1.24 1.29,0.89 1.44,-0.76 6.44,-3.52 8.89,-4.84l9.2 4.99c0.4,0.22 0.85,0.06 1.22,-0.73 0.37,-0.8 0.25,-1.15 -0.31,-1.47 -0.56,-0.32 -10.04,-5.44 -10.04,-5.44z"/>
    <g>
     <polygon class="fil1" points="9.08,8.4 11.6,8.4 11.6,10.78 9.08,12.13 "/>
     <rect class="fil1" x="7.54" y="7.38" width="5.6" height="1.28" rx="0.48" ry="0.31"/>
    </g>
    <polygon class="fil1" points="13.73,24.93 13.73,18.24 18.06,18.24 18.06,24.92 23.62,24.92 23.62,14.73 15.83,10.37 8.16,14.69 8.04,24.94 "/>
    <rect class="fil0" x="13.85" y="12.77" width="4.33" height="2.7"/>
   </g>
  </g>
 </g>
</svg>
