<?xml version="1.0" encoding="UTF-8"?>
<!DOCTYPE svg PUBLIC "-//W3C//DTD SVG 1.1//EN" "http://www.w3.org/Graphics/SVG/1.1/DTD/svg11.dtd">
<!-- Creator: CorelDRAW 2021 (64-Bit) -->
<svg xmlns="http://www.w3.org/2000/svg" xml:space="preserve" width="1.00772in" height="1.37006in" version="1.1" style="shape-rendering:geometricPrecision; text-rendering:geometricPrecision; image-rendering:optimizeQuality; fill-rule:evenodd; clip-rule:evenodd"
viewBox="0 0 216.37 294.17"
 xmlns:xlink="http://www.w3.org/1999/xlink"
 xmlns:xodm="http://www.corel.com/coreldraw/odm/2003">
 <defs>
  <style type="text/css">
   <![CDATA[
    .str0 {stroke:#0269CA;stroke-width:2.98;stroke-linecap:round;stroke-linejoin:round;stroke-miterlimit:2.61313}
    .fil2 {fill:none}
    .fil0 {fill:#0269CA}
    .fil1 {fill:white}
   ]]>
  </style>
 </defs>
 <g id="Layer_x0020_1">
  <metadata id="CorelCorpID_0Corel-Layer"/>
  <g id="_1665208222352">
   <path class="fil0" d="M107.84 0c58.27,0 107.24,47.31 108.52,106.15 -0.6,55.78 -33.96,113.37 -107.98,188.02 -77.72,-75.18 -109.98,-133.94 -108.32,-188.38 2.27,-56.73 49.51,-105.79 107.78,-105.79z"/>
   <circle class="fil1" cx="107.84" cy="108.56" r="84.71"/>
   <g>
    <rect class="fil2 str0" x="53.77" y="144.03" width="108.14" height="10.43"/>
    <polyline class="fil2 str0" points="61.73,97.54 61.73,144.03 154.14,144.03 154.14,97.53 "/>
    <rect class="fil2 str0" x="118.63" y="108.16" width="22.91" height="35.87"/>
    <rect class="fil2 str0" x="74.45" y="108.33" width="32.34" height="21.39"/>
    <path class="fil2 str0" d="M83.06 55.75l-13.28 0 -7.97 12.96 -8.04 13.08m107.97 0l-15.67 -26.04 -13.62 0m21.79 13.44l-13.85 0m-65.34 0.5l-13.85 0m100.54 19.91c0,0.08 0,0.16 0,0.23 0,4.25 -3.49,7.7 -7.81,7.7 -3.84,0 -7.04,-2.74 -7.69,-6.34 -0.65,3.61 -3.84,6.34 -7.69,6.34 -3.84,0 -7.04,-2.74 -7.69,-6.34 -0.65,3.61 -3.84,6.34 -7.69,6.34 -3.84,0 -7.04,-2.74 -7.69,-6.34 -0.65,3.61 -3.84,6.34 -7.69,6.34 -3.84,0 -7.04,-2.74 -7.69,-6.34 -0.65,3.61 -3.84,6.34 -7.69,6.34 -3.84,0 -7.04,-2.74 -7.69,-6.34 -0.65,3.61 -3.84,6.34 -7.69,6.34 -3.84,0 -7.04,-2.74 -7.68,-6.34 -0.65,3.61 -3.84,6.34 -7.69,6.34 -4.31,0 -7.81,-3.45 -7.81,-7.7 0,-0.08 0,-0.16 0,-0.23l-0.14 0 0 -7.82 107.97 0 0 0 0 7.82 -0 0z"/>
    <rect class="fil2 str0" x="83.39" y="46.68" width="48.73" height="18.48" rx="9.24" ry="9.24"/>
    <path class="fil2 str0" d="M79.74 129.73l5.56 -8.79m4.87 8.79l7.75 -12.1"/>
    <line class="fil2 str0" x1="124.14" y1="126.33" x2="118.63" y2= "126.33" />
   </g>
  </g>
 </g>
</svg>
