<?xml version="1.0" encoding="UTF-8"?>
<!DOCTYPE svg PUBLIC "-//W3C//DTD SVG 1.1//EN" "http://www.w3.org/Graphics/SVG/1.1/DTD/svg11.dtd">
<!-- Creator: CorelDRAW 2021 (64-Bit) -->
<svg xmlns="http://www.w3.org/2000/svg" xml:space="preserve" width="1.00772in" height="1.37006in" version="1.1" style="shape-rendering:geometricPrecision; text-rendering:geometricPrecision; image-rendering:optimizeQuality; fill-rule:evenodd; clip-rule:evenodd"
viewBox="0 0 122.7 166.81"
 xmlns:xlink="http://www.w3.org/1999/xlink"
 xmlns:xodm="http://www.corel.com/coreldraw/odm/2003">
 <defs>
  <style type="text/css">
   <![CDATA[
    .str0 {stroke:#0269CA;stroke-width:1.69;stroke-linecap:round;stroke-linejoin:round;stroke-miterlimit:2.61313}
    .str1 {stroke:#0269CA;stroke-width:0.85;stroke-linecap:round;stroke-linejoin:round;stroke-miterlimit:2.61313}
    .fil2 {fill:none}
    .fil0 {fill:#0269CA}
    .fil1 {fill:white}
   ]]>
  </style>
 </defs>
 <g id="Layer_x0020_1">
  <metadata id="CorelCorpID_0Corel-Layer"/>
  <g id="_1665000951552">
   <g>
    <path class="fil0" d="M61.16 0c33.04,0 60.81,26.83 61.54,60.19 -0.34,31.63 -19.26,64.29 -61.23,106.62 -44.07,-42.63 -62.36,-75.96 -61.43,-106.82 1.29,-32.17 28.08,-59.99 61.12,-59.99z"/>
    <circle class="fil1" cx="61.16" cy="61.56" r="48.04"/>
   </g>
   <g>
    <g>
     <path class="fil2 str0" d="M44.51 76.03c0.05,-0.81 0.04,-1.16 0.04,-1.84 0,-2.66 -1.74,-4.91 -4.15,-5.67 -0.62,0.24 -1.17,0.44 -1.8,0.44 -0.61,0 -1.2,-0.21 -1.74,-0.46 -2.43,0.74 -4.2,3.01 -4.2,5.68 0,0.7 0.01,0.89 0.04,1.78 1.25,1.67 10.56,1.57 11.81,0.06z"/>
     <circle class="fil2 str0" cx="38.61" cy="65.45" r="3.52"/>
    </g>
    <g>
     <path class="fil2 str0" d="M90.5 58.29c0.05,-0.81 0.04,-1.16 0.04,-1.84 0,-2.66 -1.74,-4.91 -4.15,-5.67 -0.62,0.24 -1.17,0.44 -1.8,0.44 -0.61,0 -1.2,-0.21 -1.74,-0.46 -2.43,0.74 -4.2,3.01 -4.2,5.68 0,0.7 0.01,0.89 0.04,1.78 1.25,1.67 10.56,1.57 11.81,0.06z"/>
     <circle class="fil2 str0" cx="84.6" cy="47.71" r="3.52"/>
    </g>
    <g>
     <path class="fil2 str0" d="M51.28 37.75c-1.76,1.03 -2.94,2.94 -2.94,5.13 0,0.7 0.01,0.89 0.04,1.78 1.25,1.67 10.56,1.57 11.81,0.06 0.05,-0.81 0.05,-1.16 0.05,-1.84 0,-2.66 -1.74,-4.91 -4.15,-5.67 -0.62,0.24 -1.17,0.44 -1.8,0.44 -0.61,0 -1.2,-0.21 -1.74,-0.46"/>
     <circle class="fil2 str0" cx="54.29" cy="34.14" r="3.52"/>
    </g>
    <g>
     <path class="fil2 str0" d="M76.25 90.2c0.05,-0.81 0.04,-1.16 0.04,-1.84 0,-2.66 -1.74,-4.91 -4.15,-5.67 -0.62,0.24 -1.17,0.44 -1.8,0.44 -0.61,0 -1.2,-0.21 -1.74,-0.46 -2.43,0.74 -4.2,3.01 -4.2,5.68 0,0.7 0.01,0.89 0.04,1.78 1.25,1.67 10.56,1.57 11.81,0.06z"/>
     <circle class="fil2 str0" cx="70.35" cy="79.62" r="3.52"/>
    </g>
    <g>
     <path class="fil2 str0" d="M67.65 69.02c0.05,-0.81 0.04,-1.16 0.04,-1.84 0,-2.66 -1.74,-4.91 -4.15,-5.67 -0.62,0.24 -1.17,0.44 -1.8,0.44 -0.61,0 -1.2,-0.21 -1.74,-0.46 -2.43,0.74 -4.2,3.01 -4.2,5.68 0,0.7 0.01,0.89 0.04,1.78 1.25,1.67 10.56,1.57 11.81,0.06z"/>
     <circle class="fil2 str0" cx="61.75" cy="58.44" r="3.52"/>
    </g>
    <path class="fil2 str1" d="M61.95 35.88c7.88,-0.65 14.64,1.53 18.41,6.27m-21.45 10.63l-1.88 -4.35m12.34 13.9l6.11 -2.99m-10.27 16.81l-1.37 -3.17m-16.93 -1.86l5.84 -2.86m36.57 -5.75c1.08,7.88 -1.63,17.35 -10.09,22.42m-18.06 4.88c-9.63,0 -15.55,-2.97 -20.27,-9.49m-6.2 -21.28c-0.3,-8.71 4.29,-15.14 10.31,-18.58"/>
   </g>
  </g>
 </g>
</svg>
