<?xml version="1.0" encoding="UTF-8"?>
<!DOCTYPE svg PUBLIC "-//W3C//DTD SVG 1.1//EN" "http://www.w3.org/Graphics/SVG/1.1/DTD/svg11.dtd">
<!-- Creator: CorelDRAW 2021 (64-Bit) -->
<svg xmlns="http://www.w3.org/2000/svg" xml:space="preserve" width="1.00772in" height="1.37006in" version="1.1" style="shape-rendering:geometricPrecision; text-rendering:geometricPrecision; image-rendering:optimizeQuality; fill-rule:evenodd; clip-rule:evenodd"
viewBox="0 0 410.63 558.28"
 xmlns:xlink="http://www.w3.org/1999/xlink"
 xmlns:xodm="http://www.corel.com/coreldraw/odm/2003">
 <defs>
  <style type="text/css">
   <![CDATA[
    .str0 {stroke:#0269CA;stroke-width:5.66;stroke-linecap:round;stroke-linejoin:round;stroke-miterlimit:2.61313}
    .fil2 {fill:none}
    .fil0 {fill:#0269CA}
    .fil1 {fill:white}
   ]]>
  </style>
 </defs>
 <g id="Layer_x0020_1">
  <metadata id="CorelCorpID_0Corel-Layer"/>
  <g id="_1665206117072">
   <g>
    <path class="fil0" d="M204.67 0c110.59,0 203.53,89.78 205.96,201.45 -1.13,105.85 -64.44,215.15 -204.93,356.83 -147.5,-142.67 -208.72,-254.2 -205.58,-357.52 4.3,-107.66 93.97,-200.76 204.56,-200.76z"/>
    <circle class="fil1" cx="204.67" cy="206.02" r="160.77"/>
   </g>
   <g>
    <g>
     <rect class="fil2 str0" x="101.85" y="124.82" width="206.93" height="131.51" rx="6.71" ry="6.71"/>
     <rect class="fil2 str0" x="150.42" y="280.99" width="109.79" height="13.72" rx="6.86" ry="6.86"/>
     <polygon class="fil2 str0" points="182.35,256.33 227.62,256.33 230.92,280.6 179.71,280.6 "/>
    </g>
    <path class="fil0" d="M140.59 150.58l0 17.25c0,1.51 -0.06,2.78 -0.19,3.82 -0.12,1.05 -0.42,2.12 -0.87,3.19 -0.74,1.82 -1.98,3.23 -3.71,4.24 -1.73,1.01 -3.82,1.52 -6.29,1.52 -2.23,0 -4.1,-0.35 -5.59,-1.05 -1.49,-0.71 -2.69,-1.84 -3.61,-3.41 -0.47,-0.83 -0.86,-1.8 -1.16,-2.89 -0.3,-1.1 -0.44,-2.14 -0.44,-3.12 0,-1.05 0.29,-1.85 0.87,-2.41 0.58,-0.55 1.34,-0.83 2.25,-0.83 0.88,0 1.55,0.25 1.99,0.77 0.45,0.51 0.8,1.3 1.04,2.38 0.25,1.15 0.51,2.07 0.77,2.76 0.25,0.69 0.69,1.28 1.28,1.77 0.6,0.5 1.45,0.74 2.56,0.74 2.95,0 4.43,-2.16 4.43,-6.5l0 -18.23c0,-1.34 0.3,-2.36 0.89,-3.03 0.59,-0.67 1.4,-1.01 2.42,-1.01 1.03,0 1.85,0.34 2.45,1.01 0.61,0.68 0.91,1.68 0.91,3.03zm21.73 -4.04c3.42,0 6.35,0.69 8.8,2.08 2.45,1.38 4.3,3.35 5.56,5.91 1.26,2.55 1.89,5.55 1.89,9 0,2.55 -0.34,4.87 -1.04,6.94 -0.69,2.09 -1.72,3.89 -3.1,5.42 -1.38,1.53 -3.07,2.69 -5.08,3.51 -2.01,0.81 -4.3,1.21 -6.9,1.21 -2.58,0 -4.89,-0.42 -6.92,-1.25 -2.04,-0.83 -3.74,-2 -5.1,-3.51 -1.37,-1.51 -2.39,-3.33 -3.09,-5.46 -0.7,-2.13 -1.04,-4.43 -1.04,-6.9 0,-2.53 0.36,-4.85 1.09,-6.97 0.73,-2.11 1.78,-3.91 3.16,-5.39 1.37,-1.48 3.05,-2.62 5.03,-3.4 1.97,-0.79 4.22,-1.18 6.74,-1.18zm9.49 16.94c0,-2.41 -0.39,-4.5 -1.17,-6.28 -0.78,-1.76 -1.89,-3.1 -3.34,-4.01 -1.44,-0.9 -3.11,-1.36 -4.98,-1.36 -1.33,0 -2.56,0.26 -3.69,0.75 -1.13,0.51 -2.11,1.24 -2.92,2.19 -0.81,0.96 -1.46,2.19 -1.93,3.68 -0.47,1.5 -0.71,3.17 -0.71,5.03 0,1.88 0.24,3.57 0.71,5.09 0.47,1.51 1.14,2.77 2,3.77 0.86,1 1.85,1.74 2.96,2.23 1.12,0.5 2.34,0.74 3.67,0.74 1.71,0 3.28,-0.43 4.71,-1.28 1.43,-0.85 2.56,-2.17 3.41,-3.96 0.85,-1.78 1.27,-3.98 1.27,-6.59zm26.55 16.57l-10.07 0c-1.46,0 -2.49,-0.32 -3.11,-0.97 -0.62,-0.65 -0.94,-1.7 -0.94,-3.12l0 -24.78c0,-1.45 0.32,-2.49 0.96,-3.13 0.64,-0.64 1.67,-0.96 3.09,-0.96l10.68 0c1.57,0 2.94,0.1 4.09,0.29 1.16,0.2 2.19,0.57 3.11,1.13 0.78,0.46 1.46,1.05 2.07,1.76 0.6,0.71 1.05,1.5 1.37,2.36 0.31,0.87 0.47,1.77 0.47,2.73 0,3.3 -1.65,5.72 -4.95,7.24 4.33,1.38 6.5,4.06 6.5,8.05 0,1.84 -0.48,3.51 -1.42,4.98 -0.94,1.48 -2.22,2.57 -3.82,3.27 -1,0.42 -2.15,0.72 -3.46,0.89 -1.31,0.18 -2.83,0.26 -4.57,0.26zm-0.5 -14.64l-6.95 0 0 9.62 7.17 0c4.52,0 6.77,-1.63 6.77,-4.88 0,-1.66 -0.58,-2.87 -1.76,-3.62 -1.16,-0.75 -2.92,-1.12 -5.24,-1.12zm-6.95 -13.3l0 8.52 6.12 0c1.67,0 2.95,-0.16 3.85,-0.47 0.91,-0.32 1.6,-0.91 2.09,-1.8 0.38,-0.63 0.56,-1.33 0.56,-2.11 0,-1.67 -0.59,-2.77 -1.78,-3.32 -1.18,-0.54 -2.99,-0.82 -5.42,-0.82l-5.42 0z"/>
    <line class="fil2 str0" x1="211.01" y1="235.23" x2="122.77" y2= "235.23" />
    <line class="fil2 str0" x1="288.7" y1="176.52" x2="225.21" y2= "176.52" />
    <line class="fil2 str0" x1="288.7" y1="150.09" x2="225.21" y2= "150.09" />
    <line class="fil2 str0" x1="210.83" y1="207.58" x2="122.95" y2= "207.58" />
    <g>
     <circle class="fil2 str0" transform="matrix(0.313123 -0.0767143 0.0767143 0.313123 247.723 212.277)" r="63.98"/>
     <path class="fil2 str0" d="M261.98 228.07l5.86 -9.58 22.73 13.92c2.63,1.61 3.47,5.09 1.86,7.72l0 0c-1.61,2.63 -5.09,3.47 -7.72,1.86l-22.73 -13.92z"/>
    </g>
   </g>
  </g>
 </g>
</svg>
