<?xml version="1.0" encoding="UTF-8"?>
<!DOCTYPE svg PUBLIC "-//W3C//DTD SVG 1.1//EN" "http://www.w3.org/Graphics/SVG/1.1/DTD/svg11.dtd">
<!-- Creator: CorelDRAW 2020 (64-Bit Evaluation Version) -->
<svg xmlns="http://www.w3.org/2000/svg" xml:space="preserve" width="0.472516in" height="0.538807in" version="1.1" style="shape-rendering:geometricPrecision; text-rendering:geometricPrecision; image-rendering:optimizeQuality; fill-rule:evenodd; clip-rule:evenodd"
viewBox="0 0 71.25 81.24"
 xmlns:xlink="http://www.w3.org/1999/xlink"
 xmlns:xodm="http://www.corel.com/coreldraw/odm/2003"
 enable-background="new 0 0 24 24">
 <defs>
  <style type="text/css">
   <![CDATA[
    .fil1 {fill:none}
    .fil0 {fill:#0269CA}
    .fil3 {fill:white;fill-rule:nonzero}
    .fil2 {fill:white;fill-rule:nonzero;fill-opacity:0.301961}
   ]]>
  </style>
 </defs>
 <g id="Layer_x0020_1">
  <metadata id="CorelCorpID_0Corel-Layer"/>
  <path class="fil0" d="M35.51 0c19.19,0 35.31,15.58 35.74,34.95 -0.2,18.37 -12.73,33.79 -35.56,46.29 -23.98,-12.23 -36.21,-28.48 -35.67,-46.41 0.75,-18.68 16.3,-34.84 35.49,-34.84z"/>
  <g id="medication_white_24dp.svg">
   <g>
    <polygon class="fil1" points="12.77,11.97 60.94,11.97 60.94,60.13 12.77,60.13 "/>
   </g>
   <g>
    <g>
     <path class="fil2" d="M26.82 50.1l20.07 0 0 -22.07 -20.07 0 0 22.07zm2.01 -14.05l5.02 0 0 -5.02 6.02 0 0 5.02 5.02 0 0 6.02 -5.02 -0 0 5.02 -6.02 0 0 -5.02 -5.02 0 0 -6.02z"/>
     <rect class="fil3" x="24.81" y="17.99" width="24.08" height="4.01"/>
     <path class="fil3" d="M46.89 24.01l-20.07 0c-2.21,0 -4.01,1.81 -4.01,4.01l0 22.07c0,2.21 1.81,4.01 4.01,4.01l20.07 -0c2.21,0 4.01,-1.81 4.01,-4.01l0 -22.07c0,-2.21 -1.81,-4.01 -4.01,-4.01zm0 26.09l-20.07 0 0 -22.07 20.07 0 0 22.07z"/>
     <polygon class="fil3" points="33.84,47.09 39.86,47.09 39.86,42.07 44.88,42.07 44.88,36.05 39.86,36.05 39.86,31.03 33.84,31.03 33.84,36.05 28.83,36.05 28.83,42.07 33.84,42.07 "/>
    </g>
   </g>
  </g>
 </g>
</svg>
