<?xml version="1.0" encoding="UTF-8"?>
<!DOCTYPE svg PUBLIC "-//W3C//DTD SVG 1.1//EN" "http://www.w3.org/Graphics/SVG/1.1/DTD/svg11.dtd">
<!-- Creator: CorelDRAW 2021 (64-Bit) -->
<svg xmlns="http://www.w3.org/2000/svg" xml:space="preserve" width="2.65626in" height="0.735236in" version="1.1" style="shape-rendering:geometricPrecision; text-rendering:geometricPrecision; image-rendering:optimizeQuality; fill-rule:evenodd; clip-rule:evenodd"
viewBox="0 0 2439.56 675.26"
 xmlns:xlink="http://www.w3.org/1999/xlink"
 xmlns:xodm="http://www.corel.com/coreldraw/odm/2003">
 <defs>
  <style type="text/css">
   <![CDATA[
    .str0 {stroke:white;stroke-width:38.27;stroke-linecap:round;stroke-linejoin:round;stroke-miterlimit:2.61313}
    .fil3 {fill:none}
    .fil7 {fill:#00CCFF}
    .fil4 {fill:#0269CA}
    .fil5 {fill:white}
    .fil0 {fill:#00CCFF;fill-rule:nonzero}
    .fil6 {fill:#0269CA;fill-rule:nonzero}
    .fil2 {fill:white;fill-rule:nonzero}
    .fil1 {fill:#00CCFF;fill-rule:nonzero}
   ]]>
  </style>
 </defs>
 <g id="Layer_x0020_1">
  <metadata id="CorelCorpID_0Corel-Layer"/>
  <path class="fil0" d="M1609.05 574.37c9.25,-15.91 17.15,-28.43 23.82,-37.57l17.14 -22.59c11.39,-13.45 21.66,-20.12 30.7,-20.12 7.6,0.2 13.96,3.48 19.09,9.95 5.13,6.37 7.7,13.55 7.7,21.35 -0.21,5.96 -0.93,11.81 -2.16,17.45l-8.11 30.39c-5.13,18.07 -8.92,29.77 -11.08,35.21 -1.64,4.01 -2.36,7.39 -2.36,10.17 -0.21,3.17 1.43,5.02 5.12,5.43 2.78,0 6.27,-1.53 10.48,-4.51l14.79 -11.51 10.87 -10.06 6.06 -6.27 3.59 -2.15 3.28 2.15 2.16 2.98c0.41,4.21 -6.68,12.21 -21.04,24.12 -12.74,10.79 -22.69,18.17 -29.88,21.97 -4.41,2.57 -9.44,3.8 -15.08,3.59 -14.27,-0.2 -21.16,-6.36 -20.74,-18.37 0,-4.42 0.81,-9.86 2.66,-16.23l3.9 -14.77c6.68,-25.37 12.53,-45.38 17.76,-60.27 2.57,-7.59 4,-14.37 4.21,-20.22 -0.21,-4.21 -2.26,-6.67 -6.37,-7.49 -4.83,0 -11.39,5.74 -19.81,17.15l-18.38 27.09 -21.66 34.09 -17.14 30.08 -13.55 23.51c-1.85,3.07 -3.38,4.72 -4.83,5.12l-6.06 0.31 -18.27 0c-3.9,0.42 -5.85,-1.43 -6.06,-5.43l1.23 -5.13 9.85 -24.03 16.02 -42.19 12.01 -35.31c1.75,-5.96 2.78,-10.98 2.98,-14.99 -0.2,-6.66 -3.17,-10.06 -8.92,-10.26 -6.06,-0.21 -12.22,4.31 -18.69,13.54l-17.35 25.05 -22.17 35.52c-7.7,13.04 -13.35,23.4 -17.14,31.01l-12.63 25.87c-1.85,2.66 -3.49,4.4 -4.83,5.43 -1.23,0.82 -3.19,1.14 -5.75,0.93l-14.98 0 -2.16 -2.15 0.93 -6.27 1.23 -4.83 32.13 -119.6 1.54 -5.43c0.41,-1.95 1.43,-3.49 3.28,-4.52l4.83 -2.06 17.76 -4.52 4.21 -0.91 2.36 1.22 0.93 2.06 -1.54 6.36 -23.71 78.96 19.19 -29.36 22.79 -32.44c13.24,-17.86 25.35,-26.79 36.34,-26.79 15.6,0 23.51,9.13 23.71,27.3 -0.2,13.86 -3.79,31.93 -10.78,54.1l-7.28 22.28 13.85 -23.4zm206.15 -78.74l6.26 -1.53c3.08,0.82 4.52,2.67 4.52,5.74l-0.93 4.52 -30.08 91.68 -3.59 12.72 -0.93 6.88c0.62,6.06 2.87,8.84 6.68,8.42l2.36 -0.3c2.26,-1.04 4.61,-2.68 7.29,-4.83l14.37 -13.97 11.19 -12.42 5.95 -7.29 3.28 -2.46 3.59 1.85 2.16 3.28c0,1.24 -0.72,2.67 -2.16,4.21 -5.95,7.29 -12.42,14.37 -19.19,21.45 -8.21,8.63 -15.81,15.71 -22.9,21.15 -8,6.67 -16.01,9.86 -24.02,9.65 -13.45,0 -20.43,-7.09 -21.04,-21.36 -0.21,-6.36 0.93,-13.75 3.28,-21.97l8.42 -28.85 19 -61.59c0.81,-2.78 2.05,-5.13 3.9,-6.89 1.85,-1.64 4.21,-2.97 7.18,-3.9l15.4 -4.21zm21.35 -90.86c14.17,0.62 21.66,8.32 22.48,23.11 -0.61,14.58 -8.11,22.07 -22.48,22.48 -14.99,-0.62 -22.69,-8.11 -23.11,-22.48 0.62,-14.58 8.32,-22.28 23.11,-23.11zm78.22 158.3l16.84 -28.96c15.4,-26.49 29.15,-39.83 41.17,-40.03 11.39,0.61 16.93,11.28 16.52,32.13l-0.61 13.55c-0.41,4.62 -1.14,8.01 -2.06,10.27l-3.07 3.59 -5.64 4.52 -14.17 8.73c-2.57,1.74 -4.52,2.57 -5.75,2.36l-2.05 -1.54 -0.31 -1.12 0.31 -1.85 2.05 -6.06 4.21 -12.01c1.64,-4.62 2.57,-8.73 2.77,-12.11l0 -3.6 -0.3 -2.46 -1.54 -2.66 -2.66 -0.93 -2.99 0.93c-8.62,6.57 -20.62,23.61 -36.03,50.91 -10.48,18.28 -17.86,33.06 -22.28,44.35l-6.06 14.48 -1.54 2.66c-1.12,1.45 -2.36,2.06 -3.59,1.85l-5.33 0 -11.5 0 -5.13 -0.61 -1.74 -1.24 -0.62 -2.05 0.62 -3.28 6.57 -21.77 11.19 -40.24 8.11 -36.44 3.28 -18.38c0.21,-3.59 0.83,-6.16 1.85,-7.49 0.52,-1.43 2.05,-2.66 4.52,-3.69l6.57 -2.66 14.47 -5.44 7.49 -2.67 2.67 2.67 -1.12 4.52 -4.21 11.18 -10.58 32.24 -10.58 34.9 10.27 -16.53zm136.22 0l16.84 -28.96c15.4,-26.49 29.15,-39.83 41.17,-40.03 11.39,0.61 16.94,11.28 16.53,32.13l-0.62 13.55c-0.41,4.62 -1.14,8.01 -2.06,10.27l-3.07 3.59 -5.64 4.52 -14.17 8.73c-2.56,1.74 -4.52,2.57 -5.75,2.36l-2.05 -1.54 -0.31 -1.12 0.31 -1.85 2.05 -6.06 4.21 -12.01c1.64,-4.62 2.57,-8.73 2.77,-12.11l0 -3.6 -0.3 -2.46 -1.54 -2.66 -2.67 -0.93 -2.98 0.93c-8.62,6.57 -20.63,23.61 -36.03,50.91 -10.48,18.28 -17.86,33.06 -22.28,44.35l-6.06 14.48 -1.54 2.66c-1.12,1.45 -2.36,2.06 -3.59,1.85l-5.33 0 -11.51 0 -5.13 -0.61 -1.74 -1.24 -0.62 -2.05 0.62 -3.28 6.57 -21.77 11.19 -40.24 8.11 -36.44 3.28 -18.38c0.21,-3.59 0.82,-6.16 1.85,-7.49 0.52,-1.43 2.05,-2.66 4.52,-3.69l6.57 -2.66 14.48 -5.44 7.49 -2.67 2.66 2.67 -1.12 4.52 -4.21 11.18 -10.58 32.24 -10.58 34.9 10.27 -16.53zm83.25 37.16c-0.2,-24.75 10.98,-48.36 33.68,-70.94 23.61,-23.71 47.01,-35.41 70.01,-35.2 13.45,0.2 24.02,4.31 31.83,12.32 9.23,9.23 13.75,19.71 13.54,31.51 0,18.89 -6.57,37.88 -19.81,57.18 -12.01,17.66 -27.1,31.01 -45.06,40.24 -12.01,6.27 -24.33,9.25 -36.96,9.04 -13.04,0 -24.22,-4.1 -33.56,-12.21 -9.34,-8.12 -13.86,-18.8 -13.66,-31.93zm31.42 10.58c0,4 0.82,7.8 2.46,11.39l3.28 5.02 4.52 2.99c1.75,1.03 3.9,1.43 6.37,1.22 24.63,0.21 45.68,-23.71 62.93,-71.76 4.4,-12.42 6.66,-23.09 6.66,-32.03 0,-12.73 -6.78,-19.6 -20.22,-20.63 -15.5,0 -31.1,14.06 -47.02,42.19 -12.83,22.49 -19.19,43.01 -18.99,61.6zm191.75 -47.74l16.84 -28.96c15.4,-26.49 29.15,-39.83 41.17,-40.03 11.39,0.61 16.94,11.28 16.53,32.13l-0.61 13.55c-0.41,4.62 -1.14,8.01 -2.06,10.27l-3.07 3.59 -5.64 4.52 -14.17 8.73c-2.57,1.74 -4.52,2.57 -5.75,2.36l-2.05 -1.54 -0.31 -1.12 0.31 -1.85 2.05 -6.06 4.21 -12.01c1.64,-4.62 2.57,-8.73 2.77,-12.11l0 -3.6 -0.3 -2.46 -1.54 -2.66 -2.66 -0.93 -2.99 0.93c-8.62,6.57 -20.62,23.61 -36.03,50.91 -10.48,18.28 -17.86,33.06 -22.28,44.35l-6.06 14.48 -1.54 2.66c-1.12,1.45 -2.36,2.06 -3.59,1.85l-5.33 0 -11.5 0 -5.13 -0.61 -1.74 -1.24 -0.61 -2.05 0.61 -3.28 6.57 -21.77 11.19 -40.24 8.11 -36.44 3.28 -18.38c0.21,-3.59 0.83,-6.16 1.85,-7.49 0.52,-1.43 2.05,-2.66 4.52,-3.69l6.57 -2.66 14.48 -5.44 7.49 -2.67 2.67 2.67 -1.12 4.52 -4.21 11.18 -10.58 32.24 -10.58 34.9 10.27 -16.53z"/>
  <g id="_1772686780256">
   <path class="fil1" d="M1034.33 625.62c-2.43,2.83 -4.45,4.28 -5.32,6.27 -1.82,4.16 0.26,16.98 7.22,13.84 1.54,-0.73 10.46,-12.94 14.95,-18.15 8.24,-9.6 21.47,-26.29 39.45,-41.56 19.18,-16.28 43.78,-30.97 73.54,-33.69 44.46,-4.05 82.26,22.26 120.05,48.88 39.59,27.89 79.2,56.1 126.45,50.09 10.85,-1.38 41.08,-9.53 63.35,-33.71 11.63,-12.62 6.81,-7.02 9.61,-14.08 3.12,-7.87 3.19,-15.35 -5.31,-7.77 -14.61,13.01 -27.32,22.92 -39.92,29.34 -24.11,12.27 -47.85,11.87 -83.81,-3.72 -31.79,-13.77 -62.14,-37.33 -92.71,-56.55 -32.42,-20.4 -65.12,-35.94 -100.08,-29.87 -26.92,4.68 -50.36,17.49 -71.69,34.5 -20.13,16.07 -38.36,35.91 -55.79,56.18z"/>
   <path class="fil1" d="M1033.18 622.23c2.43,2.82 4.45,4.28 5.32,6.27 1.82,4.17 -0.26,16.98 -7.22,13.85 -1.53,-0.73 -10.46,-12.94 -14.95,-18.16 -8.24,-9.6 -21.47,-26.29 -39.45,-41.56 -19.18,-16.28 -43.78,-30.96 -73.54,-33.69 -44.46,-4.05 -82.26,22.27 -120.05,48.88 -39.59,27.89 -79.2,56.1 -126.45,50.09 -10.85,-1.38 -41.08,-9.53 -63.35,-33.7 -11.63,-12.62 -6.81,-7.02 -9.6,-14.08 -3.12,-7.88 -3.2,-15.35 5.3,-7.78 14.61,13.02 27.32,22.92 39.92,29.34 24.11,12.28 47.85,11.88 83.81,-3.72 31.79,-13.77 62.14,-37.33 92.71,-56.55 32.42,-20.4 65.12,-35.94 100.08,-29.87 26.92,4.67 50.37,17.49 71.69,34.5 20.13,16.07 38.36,35.91 55.79,56.18z"/>
  </g>
  <path class="fil2" d="M588.52 471.23l6.27 -51.57 15.68 -179.11 7.85 -117.96c31.44,0.34 56.1,0.52 74.05,0.52 14.81,0 37.55,-0.18 68.13,-0.52 2.18,14.63 4.09,25.78 5.57,33.36 1.57,7.58 5.31,22.39 11.33,44.43 6.01,22.03 10.88,41.12 14.54,57.15 3.66,16.1 9.07,43.64 16.38,82.67 7.49,-26.74 14.28,-49.75 20.38,-68.99 6.09,-19.26 13.76,-41.12 22.91,-65.6 9.16,-24.57 14.98,-40.6 17.52,-48.17 2.44,-7.58 5.75,-19.17 10.02,-34.85 25.62,0.34 50.61,0.52 75.19,0.52 16.72,0 39.89,-0.18 69.6,-0.52 -3.3,57.4 -5.49,106.72 -6.53,147.92 -2.26,80.66 -3.39,136.16 -3.39,166.48 0,6.27 0.17,17.69 0.52,34.23 -22.48,-0.35 -38.24,-0.52 -47.3,-0.52 -13.16,0 -29.28,0.17 -48.36,0.52 1.31,-15.33 3.05,-51.84 5.06,-109.42 2,-57.67 3.05,-94.52 3.05,-110.46 0,-6.96 -0.18,-16.72 -0.53,-29.19l-33.36 104.02 -47.92 145.05c-22.13,-0.35 -37.29,-0.52 -45.65,-0.52 -10.55,0 -26.65,0.17 -48.44,0.52l-31.44 -140.52 -18.39 -74.83c-0.6,-2.87 -1.39,-6.44 -2.26,-10.71 -0.87,-4.28 -2.18,-11.77 -4.1,-22.48l-6.36 70.73 -8.27 145.14 -0.8 32.67c-23.51,-0.35 -38.49,-0.52 -44.94,-0.52 -8.89,0 -24.23,0.17 -46,0.52zm507.97 -186.6c3.23,-16.73 5.24,-28.23 6.11,-34.58 0.87,-6.28 2.26,-16.21 4.09,-29.72 48.96,-10.8 91.04,-16.2 126.14,-16.2 20.04,0 38.42,2.26 55.07,6.79 16.64,4.45 29.62,11.77 38.94,21.78 9.32,10.02 14.03,24.4 14.03,43.13 0,9.5 -1.31,30.93 -3.83,64.29 -2.52,33.28 -4.44,77.01 -5.75,131.11 -16.72,-0.35 -33.36,-0.52 -49.83,-0.52 -16.02,0 -33.1,0.17 -51.13,0.52 2.36,-18.73 4.88,-57.41 7.76,-116.04 -6.45,3.14 -11.5,5.4 -15.16,6.71 -3.66,1.39 -10.02,3.48 -19.16,6.27 -9.24,2.79 -16.38,5.05 -21.52,6.97 -5.15,1.92 -9.67,4.35 -13.51,7.32 -3.83,2.87 -6.53,5.93 -8.1,9.06 -1.66,3.05 -2.45,6.53 -2.45,10.37 0,5.84 2.36,10.89 6.97,15.07 4.62,4.1 11.93,6.18 22.03,6.18 3.57,0 7.41,-0.25 11.59,-0.87 4.09,-0.61 9.75,-2 16.9,-4.35 -4.97,12.89 -10.9,31.71 -17.77,56.46 -14.64,2.43 -28.49,3.66 -41.56,3.66 -21.08,0 -38.67,-2.96 -52.7,-8.8 -14.03,-5.93 -24.83,-15.41 -32.42,-28.48 -7.58,-13.15 -11.32,-26.22 -11.32,-39.38 0,-8.02 1.4,-15.86 4.19,-23.52 2.79,-7.67 7.14,-15.16 13.15,-22.48 5.93,-7.31 12.89,-13.6 20.82,-18.73 8.01,-5.22 18.9,-10.1 32.67,-14.72 13.85,-4.62 31.36,-8.89 52.61,-12.98 8.8,-1.75 16.9,-3.58 24.31,-5.5 7.33,-2 12.64,-3.66 15.78,-5.13 3.13,-1.48 5.65,-3.14 7.57,-5.06 2,-2 3.4,-4 4.19,-6.09 0.87,-2.18 1.31,-4.35 1.31,-6.71 0,-6.53 -2.71,-11.59 -8.11,-15.07 -5.4,-3.57 -13.41,-5.31 -23.86,-5.31 -29.18,0 -65.17,8.19 -108.03,24.57zm291.94 186.6l8.1 -113.43 2.61 -65.16c0.17,-11.76 0.26,-23.7 0.26,-35.98 0,-12.45 -0.18,-27.87 -0.53,-46.25 20.56,0.35 36.94,0.52 48.96,0.52 14.2,0 30.4,-0.16 48.79,-0.52l-1.14 29.19c6.71,-7.49 12.2,-13.07 16.46,-16.73 4.27,-3.66 9.07,-6.97 14.55,-9.94 5.49,-2.96 11.24,-5.22 17.16,-6.62 6.01,-1.48 12.2,-2.17 18.73,-2.17 6.1,0 12.99,0.87 20.48,2.61 0.17,18.56 0.61,33.8 1.3,45.91l1.83 39.29c-9.41,-2.79 -18.2,-4.19 -26.4,-4.19 -10.28,0 -19.07,1.49 -26.48,4.44 -7.41,2.96 -14.03,7.49 -19.78,13.6 -5.66,6.01 -10.28,13.5 -13.67,22.56 -3.41,8.97 -5.84,23.26 -7.15,42.86 -1.39,19.51 -2.09,41.9 -2.09,67.08 0,8.89 0.35,19.86 1.05,32.93 -16.55,-0.35 -33.19,-0.52 -49.83,-0.52 -16.56,0 -34.33,0.17 -53.23,0.52zm224.06 0c2.36,-21.78 4.1,-39.46 5.15,-53.14 1.3,-18.55 2.7,-41.81 4.09,-69.7l2.79 -60.54c1.23,-27.44 2.01,-53.66 2.53,-78.67 0.69,-29.97 1.04,-58.8 1.04,-86.59 23.78,0.34 41.65,0.52 53.58,0.52 13.76,0 30.05,-0.18 48.96,-0.52 -3.92,44.6 -7.49,100.01 -10.72,166.3 -3.21,66.21 -4.79,127.01 -4.79,182.33 -19.78,-0.35 -36.42,-0.52 -50.09,-0.52 -15.59,0 -33.11,0.17 -52.53,0.52zm112.38 -146.61l43.99 -63.33 33.02 -50.88c23.51,0.35 41.28,0.52 53.39,0.52 16.74,0 36.5,-0.16 59.33,-0.52l-50.79 66.21c-11.93,15.16 -24.13,31.53 -36.5,49.05 11.94,21.95 40.69,70.47 86.24,145.57 -19.95,-0.35 -37.98,-0.52 -54.01,-0.52 -16.38,0 -35.19,0.17 -56.37,0.52l-15.85 -31.88c-5.67,-11.15 -10.46,-20.38 -14.55,-27.87 -1.57,-3.05 -13.24,-23.95 -35.11,-62.55l-12.8 -24.31zm467.54 69.78c-2.17,10.19 -6.36,34.76 -12.54,73.7 -19.77,4.01 -36.42,6.62 -49.92,7.93 -13.5,1.3 -27.09,2 -40.94,2 -20.3,0 -39.03,-1.4 -56.02,-4.18 -17.08,-2.79 -31.8,-7.84 -44.17,-14.99 -12.37,-7.05 -22.74,-15.94 -31.1,-26.56 -8.36,-10.63 -14.72,-23.26 -19.07,-37.9 -4.36,-14.63 -6.53,-29.7 -6.53,-45.13 0,-21.77 4.35,-43.12 13.07,-63.94 8.63,-20.82 19.87,-37.11 33.54,-48.78 13.76,-11.76 29.53,-20.12 47.39,-25 17.86,-4.97 36.25,-7.41 54.97,-7.41 19.34,0 37.9,2.26 55.5,6.79 17.69,4.45 32.58,12.37 44.87,23.52 12.28,11.24 21,23.88 26.22,37.99 5.15,14.12 7.76,29.35 7.76,45.65 0,9.75 -1.04,20.47 -3.14,32.41l-179.55 0.26c-0.18,2.7 -0.26,5.13 -0.26,7.41 0,18.29 6.62,31.8 19.77,40.51 13.16,8.62 29.19,12.98 48.18,12.98 11.24,0 24.13,-1.31 38.6,-3.92 14.37,-2.61 32.22,-7.06 53.39,-13.33zm-157.68 -82.59l84.51 0c0.17,-2.87 0.25,-5.31 0.25,-7.41 0,-8.79 -1.57,-16.37 -4.7,-22.64 -3.22,-6.28 -7.75,-10.81 -13.58,-13.68 -5.93,-2.88 -12.55,-4.35 -19.87,-4.35 -5.13,0 -10.02,0.78 -14.81,2.43 -4.79,1.58 -9.15,4.01 -12.98,7.15 -3.83,3.13 -7.06,6.7 -9.59,10.8 -2.52,4.01 -4.44,8.02 -5.66,11.77 -1.14,3.82 -2.35,9.14 -3.57,15.93zm404.3 84.68c-3.04,14.29 -5.74,28.32 -7.92,41.99l-5.67 31.19c-16.9,3.57 -30.05,5.92 -39.46,6.87 -9.5,0.96 -18.64,1.49 -27.52,1.49 -14.47,0 -27.36,-1.22 -38.6,-3.75 -11.24,-2.44 -20.65,-6.97 -28.14,-13.51 -7.5,-6.53 -12.63,-14.12 -15.34,-22.57 -2.7,-8.54 -4.09,-17.59 -4.09,-27.09 0,-1.74 0.09,-4.7 0.27,-9.05 0.16,-4.35 0.78,-14.03 1.74,-29.01l5.58 -88.42 -39.99 0c0.88,-11.77 1.66,-27.18 2.27,-46.35l0.78 -23.7 42.43 0c1.05,-7.84 2.35,-24.91 3.84,-51.22l43.73 -9.06c8.01,-1.57 25.09,-5.49 51.22,-11.85 -1.22,22.3 -2.09,46.34 -2.52,72.13l57.93 0c-1.4,35.29 -2.01,58.64 -2.01,70.05l-58.54 0 -3.05 63.94c-0.35,9.5 -0.53,15.6 -0.53,18.39 0,8.19 0.88,14.98 2.71,20.47 1.74,5.4 4.96,9.32 9.49,11.76 4.54,2.36 9.5,3.57 14.98,3.57 4.1,0 8.36,-0.26 12.81,-0.87 4.44,-0.61 12.28,-2.35 23.6,-5.4z"/>
  <g id="_1772686781984">
   <g>
    <g>
     <path class="fil3 str0" d="M252.65 19.14c126.17,0 232.22,102.44 235,229.85 -1.29,120.78 -73.53,245.49 -233.83,407.14 -168.29,-162.78 -238.14,-290.04 -234.56,-407.92 4.91,-122.84 107.22,-229.07 233.39,-229.07z"/>
     <path id="_1" class="fil4" d="M252.65 19.14c126.17,0 232.22,102.44 235,229.85 -1.29,120.78 -73.53,245.49 -233.83,407.14 -168.29,-162.78 -238.14,-290.04 -234.56,-407.92 4.91,-122.84 107.22,-229.07 233.39,-229.07z"/>
    </g>
    <circle class="fil5" cx="252.64" cy="254.2" r="183.44"/>
   </g>
   <path class="fil6" d="M267.87 256.22c10.46,-17.99 19.39,-32.16 26.94,-42.5l19.4 -25.55c12.89,-15.22 24.5,-22.76 34.72,-22.76 8.59,0.23 15.8,3.94 21.6,11.27 5.81,7.2 8.7,15.32 8.7,24.15 -0.23,6.73 -1.04,13.35 -2.43,19.75l-9.18 34.36c-5.81,20.45 -10.11,33.69 -12.54,39.84 -1.86,4.53 -2.68,8.36 -2.68,11.49 -0.23,3.6 1.63,5.69 5.8,6.16 3.14,0 7.09,-1.74 11.85,-5.11l16.73 -13 12.3 -11.38 6.86 -7.08 4.06 -2.45 3.71 2.45 2.44 3.36c0.46,4.76 -7.55,13.83 -23.81,27.29 -14.4,12.2 -25.66,20.56 -33.79,24.86 -4.99,2.9 -10.69,4.3 -17.07,4.07 -16.14,-0.23 -23.93,-7.21 -23.47,-20.79 0,-4.99 0.94,-11.15 3.03,-18.35l4.4 -16.72c7.55,-28.68 14.17,-51.33 20.09,-68.17 2.91,-8.59 4.54,-16.26 4.77,-22.87 -0.23,-4.77 -2.56,-7.56 -7.21,-8.48 -5.45,0 -12.89,6.5 -22.41,19.39l-20.79 30.66 -24.5 38.55 -19.39 34.02 -15.32 26.59c-2.09,3.48 -3.83,5.34 -5.46,5.81l-6.84 0.35 -20.68 0c-4.41,0.46 -6.61,-1.63 -6.84,-6.16l1.39 -5.81 11.15 -27.17 18.12 -47.73 13.58 -39.95c1.98,-6.73 3.14,-12.43 3.37,-16.95 -0.23,-7.55 -3.6,-11.38 -10.1,-11.61 -6.85,-0.23 -13.82,4.88 -21.13,15.33l-19.62 28.34 -25.09 40.18c-8.71,14.75 -15.09,26.48 -19.39,35.07l-14.29 29.26c-2.08,3.02 -3.94,4.99 -5.45,6.16 -1.4,0.93 -3.6,1.28 -6.5,1.05l-16.95 0 -2.45 -2.45 1.05 -7.08 1.4 -5.45 36.35 -135.29 1.74 -6.16c0.46,-2.21 1.62,-3.94 3.71,-5.1l5.46 -2.32 20.09 -5.11 4.76 -1.04 2.68 1.4 1.03 2.31 -1.74 7.21 -26.82 89.3 21.72 -33.21 25.77 -36.7c14.98,-20.21 28.69,-30.31 41.12,-30.31 17.65,0 26.58,10.33 26.82,30.89 -0.23,15.68 -4.3,36.11 -12.19,61.19l-8.25 25.21 15.68 -26.49z"/>
  </g>
  <circle class="fil7" cx="1831.47" cy="434.82" r="25.32"/>
 </g>
</svg>
