<?xml version="1.0" encoding="UTF-8"?>
<!DOCTYPE svg PUBLIC "-//W3C//DTD SVG 1.1//EN" "http://www.w3.org/Graphics/SVG/1.1/DTD/svg11.dtd">
<!-- Creator: CorelDRAW 2020 (64-Bit Evaluation Version) -->
<svg xmlns="http://www.w3.org/2000/svg" xml:space="preserve" width="0.472516in" height="0.538807in" version="1.1" style="shape-rendering:geometricPrecision; text-rendering:geometricPrecision; image-rendering:optimizeQuality; fill-rule:evenodd; clip-rule:evenodd"
viewBox="0 0 51.39 58.6"
 xmlns:xlink="http://www.w3.org/1999/xlink"
 xmlns:xodm="http://www.corel.com/coreldraw/odm/2003">
 <defs>
  <style type="text/css">
   <![CDATA[
    .fil1 {fill:none}
    .fil0 {fill:#0269CA}
    .fil2 {fill:white;fill-rule:nonzero}
   ]]>
  </style>
 </defs>
 <g id="Layer_x0020_1">
  <metadata id="CorelCorpID_0Corel-Layer"/>
  <path class="fil0" d="M25.61 0c13.84,0 25.47,11.24 25.78,25.21 -0.14,13.25 -9.18,24.37 -25.65,33.39 -17.29,-8.82 -26.12,-20.54 -25.73,-33.47 0.54,-13.47 11.76,-25.12 25.6,-25.12z"/>
  <g id="slideshow_white_24dp.svg">
   <polygon class="fil1" points="8.27,8.55 43.12,8.55 43.12,43.4 8.27,43.4 "/>
   <path class="fil2" d="M22.79 20.16l0 11.62 7.26 -5.81 -7.26 -5.81 0 -0zm13.07 -7.26l-20.33 0c-1.6,0 -2.9,1.31 -2.9,2.9l0 20.33c0,1.6 1.31,2.9 2.9,2.9l20.33 -0c1.6,0 2.9,-1.31 2.9,-2.9l-0 -20.33c0,-1.6 -1.31,-2.9 -2.9,-2.9l0 0zm0 23.24l-20.33 0 0 -20.33 20.33 0 0 20.33z"/>
  </g>
 </g>
</svg>
