<?xml version="1.0" encoding="UTF-8"?>
<!DOCTYPE svg PUBLIC "-//W3C//DTD SVG 1.1//EN" "http://www.w3.org/Graphics/SVG/1.1/DTD/svg11.dtd">
<!-- Creator: CorelDRAW 2020 (64-Bit Evaluation Version) -->
<svg xmlns="http://www.w3.org/2000/svg" xml:space="preserve" width="0.472516in" height="0.538807in" version="1.1" style="shape-rendering:geometricPrecision; text-rendering:geometricPrecision; image-rendering:optimizeQuality; fill-rule:evenodd; clip-rule:evenodd"
viewBox="0 0 302.01 344.38"
 xmlns:xlink="http://www.w3.org/1999/xlink"
 xmlns:xodm="http://www.corel.com/coreldraw/odm/2003"
 enable-background="new 0 0 24 24">
 <defs>
  <style type="text/css">
   <![CDATA[
    .fil1 {fill:none}
    .fil0 {fill:#0269CA}
    .fil2 {fill:white;fill-rule:nonzero}
   ]]>
  </style>
 </defs>
 <g id="Layer_x0020_1">
  <metadata id="CorelCorpID_0Corel-Layer"/>
  <path class="fil0" d="M150.53 0c81.34,0 149.7,66.03 151.49,148.17 -0.83,77.86 -53.97,143.25 -150.73,196.22 -101.64,-51.82 -153.51,-120.73 -151.21,-196.72 3.16,-79.19 69.11,-147.66 150.45,-147.66z"/>
  <rect class="fil1" x="40.59" y="61.72" width="208.06" height="208.06"/>
  <g id="real_estate_agent_white_24dp.svg">
   <rect class="fil1" x="45.6" y="38.43" width="216.38" height="216.38"/>
   <path class="fil2" d="M54.61 236.78l36.06 0 0 -99.18 -36.06 0 0 99.18zm171.31 -45.08l-63.11 0 -18.84 -6.58 2.97 -8.47 15.87 6.04 25.43 0c5.86,0 10.64,-4.78 10.64,-10.64l0 0c0,-4.42 -2.79,-8.38 -6.94,-10.01l-65.46 -24.43 -17.76 0 0 81.32 63.11 17.85 72.13 -27.05 0 0c-0.09,-9.92 -8.02,-18.03 -18.03,-18.03zm-54.1 -139.74l-63.11 45.08 0 22.54 18.03 0 73.39 29.39c10.1,4.06 16.77,13.8 16.77,24.71l18.03 0 0 -76.63 -63.11 -45.08zm-4.51 76.63l-9.02 0 0 -9.02 9.02 0 0 9.02zm0 -18.03l-9.02 0 0 -9.02 9.02 0 0 9.02zm18.03 18.03l-9.01 0 0 -9.02 9.01 0 0 9.02zm0 -18.03l-9.01 0 0 -9.02 9.01 0 0 9.02z"/>
  </g>
 </g>
</svg>
