<?xml version="1.0" encoding="UTF-8"?>
<!DOCTYPE svg PUBLIC "-//W3C//DTD SVG 1.1//EN" "http://www.w3.org/Graphics/SVG/1.1/DTD/svg11.dtd">
<!-- Creator: CorelDRAW 2020 (64-Bit Evaluation Version) -->
<svg xmlns="http://www.w3.org/2000/svg" xml:space="preserve" width="0.472516in" height="0.538807in" version="1.1" style="shape-rendering:geometricPrecision; text-rendering:geometricPrecision; image-rendering:optimizeQuality; fill-rule:evenodd; clip-rule:evenodd"
viewBox="0 0 313.83 357.85"
 xmlns:xlink="http://www.w3.org/1999/xlink"
 xmlns:xodm="http://www.corel.com/coreldraw/odm/2003"
 enable-background="new 0 0 24 24">
 <defs>
  <style type="text/css">
   <![CDATA[
    .fil1 {fill:none}
    .fil0 {fill:#0269CA}
    .fil2 {fill:white;fill-rule:nonzero}
   ]]>
  </style>
 </defs>
 <g id="Layer_x0020_1">
  <metadata id="CorelCorpID_0Corel-Layer"/>
  <path class="fil0" d="M156.41 0c84.52,0 155.55,68.62 157.41,153.96 -0.86,80.9 -56.08,148.86 -156.63,203.89 -105.61,-53.85 -159.52,-125.46 -157.12,-204.41 3.29,-82.29 71.82,-153.44 156.34,-153.44z"/>
  <g id="shopping_bag_white_24dp.svg">
   <g>
    <rect class="fil1" x="50.35" y="55.33" width="210.05" height="210.05"/>
    <path class="fil2" d="M207.89 107.85l-17.5 0c0,-19.34 -15.67,-35.01 -35.01,-35.01 -19.34,0 -35.01,15.67 -35.01,35.01l-17.5 0c-9.63,0 -17.51,7.88 -17.51,17.5l0 105.03c0,9.63 7.88,17.51 17.51,17.51l105.02 -0.01c9.63,0 17.51,-7.88 17.51,-17.5l0 -105.02c0,-9.63 -7.88,-17.5 -17.51,-17.5zm-70.02 35.01c0,4.81 -3.94,8.75 -8.75,8.75 -4.81,0 -8.75,-3.94 -8.75,-8.75l0 -17.5 17.5 0 0 17.5zm17.51 -52.51c9.63,0 17.5,7.88 17.5,17.51l-35.01 0c0,-9.63 7.88,-17.51 17.51,-17.51zm35.01 52.51c0,4.81 -3.94,8.75 -8.75,8.75 -4.81,0 -8.75,-3.94 -8.75,-8.75l0 -17.5 17.5 0 0 17.5z"/>
   </g>
  </g>
 </g>
</svg>
