<svg id="_2fa" data-name="2fa" xmlns="http://www.w3.org/2000/svg" width="24" height="24" viewBox="0 0 24 24">
  <rect id="BG-5" width="24" height="24" rx="4" fill="#fff"/>
  <path id="Icon_awesome-fingerprint" data-name="Icon awesome-fingerprint" d="M8,7.686a.75.75,0,0,0-.75.75,22.851,22.851,0,0,1-.866,6.611.75.75,0,1,0,1.444.405,24.187,24.187,0,0,0,.921-7.016A.75.75,0,0,0,8,7.686ZM7.977,5.132A3.126,3.126,0,0,0,4.754,8.291a20.5,20.5,0,0,1-.418,4.455.75.75,0,1,0,1.469.3,22,22,0,0,0,.449-4.782,1.628,1.628,0,0,1,1.7-1.636,1.809,1.809,0,0,1,1.8,1.733,25.124,25.124,0,0,1-.332,4.486A.75.75,0,1,0,10.9,13.1a26.657,26.657,0,0,0,.352-4.753A3.32,3.32,0,0,0,7.977,5.132ZM4.518,4.514a.751.751,0,0,0-1.055.109,5.42,5.42,0,0,0-1.211,3.5,18.149,18.149,0,0,1-.285,3.5.75.75,0,1,0,1.477.267A19.656,19.656,0,0,0,3.752,8.1a3.862,3.862,0,0,1,.875-2.53.75.75,0,0,0-.109-1.055ZM7.939,2.566a5.586,5.586,0,0,0-1.431.155.75.75,0,0,0,.346,1.46,4.485,4.485,0,0,1,1.063-.115,4.374,4.374,0,0,1,4.34,4.206,27.534,27.534,0,0,1-.174,3.551.75.75,0,0,0,1.49.171,29.033,29.033,0,0,0,.184-3.745A5.885,5.885,0,0,0,7.939,2.566Zm7.877,3.8a.75.75,0,1,0-1.465.323A7.793,7.793,0,0,1,14.5,8.61a.75.75,0,0,0,.744.756h.006A.75.75,0,0,0,16,8.622a9.286,9.286,0,0,0-.182-2.261ZM14.563,3.527A8.313,8.313,0,0,0,7.9,0,7.828,7.828,0,0,0,2.2,2.279,7.453,7.453,0,0,0,0,7.708l0,.671a.75.75,0,0,0,.728.772H.751A.75.75,0,0,0,1.5,8.423l0-.739A5.962,5.962,0,0,1,3.264,3.34,6.333,6.333,0,0,1,7.879,1.5a6.808,6.808,0,0,1,5.457,2.887.75.75,0,1,0,1.227-.862Z" transform="translate(3.999 4)" fill="#013567" stroke="#fff" stroke-width="0.4"/>
</svg>
