<svg id="airbnb" xmlns="http://www.w3.org/2000/svg" width="48" height="48" viewBox="0 0 48 48">
  <g id="ether">
    <circle id="Oval" cx="24" cy="24" r="24" fill="#fff"/>
    <path id="Icon_awesome-airbnb" data-name="Icon awesome-airbnb" d="M13.035,21.793a12.057,12.057,0,0,1-2.578-4.765,2.771,2.771,0,1,1,5.16,0,12.487,12.487,0,0,1-2.578,4.765Zm7.915,4.2c-2.41,1.049-4.794-.623-6.835-2.891,5.953-7.452,2.642-11.458-1.08-11.458-3.146,0-4.879,2.665-4.2,5.758a15.571,15.571,0,0,0,3.118,5.7c-1.864,2.065-3.469,3.019-4.878,3.146a3.831,3.831,0,0,1-4.085-5.219C3.857,18.781,9.392,7.78,9.63,7.186c.9-1.723,1.464-3.289,3.4-3.289,1.853,0,2.486,1.486,3.459,3.43,2.062,4.046,5.119,10.168,6.579,13.7A3.825,3.825,0,0,1,20.95,25.989Zm2.693-7.8C16.259,2.475,15.85,2.25,13.035,2.25c-2.608,0-3.716,1.814-4.85,4.17C2.1,18.584,1.513,20.308,1.462,20.458A5.463,5.463,0,0,0,6.6,27.916c1.244,0,3.472-.347,6.438-3.575,3.362,3.654,5.8,3.575,6.438,3.575a5.461,5.461,0,0,0,5.134-7.459c0-.223-.964-2.229-.964-2.268Z" transform="translate(10.911 8.75)" fill="#f29423"/>
  </g>
</svg>
