<svg id="amazon" xmlns="http://www.w3.org/2000/svg" width="48" height="48" viewBox="0 0 48 48">
  <g id="ether">
    <circle id="Oval" cx="24" cy="24" r="24" fill="#fff"/>
    <path id="Icon_awesome-amazon" data-name="Icon awesome-amazon" d="M15.468,10.073c-2.915.108-10.145.928-10.145,7.033,0,6.554,8.278,6.823,10.983,2.586a27.6,27.6,0,0,0,2.711,2.8l3.4-3.352s-1.933-1.514-1.933-3.16v-8.8c0-1.514-1.466-4.926-6.722-4.926S5.7,5.542,5.7,8.493l4.4.407c.976-2.963,3.244-2.963,3.244-2.963C15.779,5.931,15.468,7.721,15.468,10.073Zm0,5.2c0,4.788-5.04,4.07-5.04,1.029,0-2.825,3.023-3.394,5.04-3.46Zm8.14,9.786a14.537,14.537,0,0,1-10.444,4.01c-6.255,0-11.043-4.28-12.509-6.045-.407-.461.06-.676.329-.5,4.387,2.663,11.241,7.051,22.3,1.814C23.728,24.115,24.075,24.456,23.608,25.054Zm2.382.132a4.989,4.989,0,0,1-1.269,1.855c-.329.269-.569.162-.389-.227s1.155-2.783.76-3.292-2.215-.257-2.873-.192-.778.12-.838-.018c-.138-.341,1.3-.928,2.245-1.047s2.454-.048,2.753.341A4.383,4.383,0,0,1,25.99,25.186Z" transform="translate(10.775 8.093)" fill="#013567"/>
  </g>
</svg>
