<svg id="bank" xmlns="http://www.w3.org/2000/svg" width="24" height="24" viewBox="0 0 24 24">
  <rect id="BG-5" width="24" height="24" rx="4" fill="#fff"/>
  <g id="Layer_2" data-name="Layer 2" transform="translate(4.102 4.102)">
    <g id="invisible_box" data-name="invisible box">
      <rect id="Rectangle_2190" data-name="Rectangle 2190" width="16" height="16" transform="translate(-0.102 -0.102)" fill="none"/>
    </g>
    <g id="Q3_icons" data-name="Q3 icons" transform="translate(0.658 0.658)">
      <g id="Group_2056" data-name="Group 2056">
        <rect id="Rectangle_2191" data-name="Rectangle 2191" width="12" height="1" rx="0.5" transform="translate(1.24 11.24)" fill="#013567"/>
        <path id="Path_2962" data-name="Path 2962" d="M15.821,42.34H2.658A.658.658,0,0,0,2,43v.318H16.48V43A.658.658,0,0,0,15.821,42.34Z" transform="translate(-2 -28.837)" fill="#013567"/>
        <path id="Union_102" data-name="Union 102" d="M473.24-3045.26v-4a.5.5,0,0,1,.5-.5.5.5,0,0,1,.5.5v4a.5.5,0,0,1-.5.5A.5.5,0,0,1,473.24-3045.26Zm-4,0v-4a.5.5,0,0,1,.5-.5.5.5,0,0,1,.5.5v4a.5.5,0,0,1-.5.5A.5.5,0,0,1,469.24-3045.26Zm-4,0v-4a.5.5,0,0,1,.5-.5.5.5,0,0,1,.5.5v4a.5.5,0,0,1-.5.5A.5.5,0,0,1,465.24-3045.26Z" transform="translate(-463 3055)" fill="#013567"/>
        <path id="Path_2963" data-name="Path 2963" d="M16.118,5.093,9.24,2,2.362,5.093A.691.691,0,0,0,2,5.686v.263a.658.658,0,0,0,.658.658H15.821a.658.658,0,0,0,.658-.658V5.686A.691.691,0,0,0,16.118,5.093ZM3.615,5.6,9.24,2.958l5.578,2.656Z" transform="translate(-2 -2)" fill="#013567"/>
      </g>
    </g>
  </g>
</svg>
