<svg xmlns="http://www.w3.org/2000/svg" width="343" height="342" viewBox="0 0 343 342">
  <g id="biicoin_image" transform="translate(-16 -98)">
    <g id="Rectangle_2149" data-name="Rectangle 2149" transform="translate(16 98)" fill="#f29423" stroke="rgba(210,210,210,0.4)" stroke-width="2">
      <rect width="343" height="342" rx="8" stroke="none"/>
      <rect x="1" y="1" width="341" height="340" rx="7" fill="none"/>
    </g>
    <g id="Rectangle_2164" data-name="Rectangle 2164" transform="translate(61 143)" fill="#f29423" stroke="rgba(255,255,255,0.4)" stroke-width="2">
      <rect width="253" height="252" rx="126" stroke="none"/>
      <rect x="1" y="1" width="251" height="250" rx="125" fill="none"/>
    </g>
    <path id="Subtraction_11" data-name="Subtraction 11" d="M-470.658-3875.791l-.01,0-14.626-3.654,5.975-23.983c-4.076-1.017-8-2.039-11.655-3.029l-6,24.1-14.615-3.656,6.06-24.365c-1.5-.382-3.02-.777-4.548-1.175-1.944-.507-3.907-1.017-5.891-1.516L-535-3917.832l7.266-16.774c.089.022,10.013,2.661,10.6,2.661a8.443,8.443,0,0,0,1.764.213,5.339,5.339,0,0,0,4.969-3.7l9.571-38.437c.3.071.593.144.878.218.228.057.45.114.666.164a12.327,12.327,0,0,0-1.523-.488l6.832-27.438c.176-3.067-.864-7.04-6.821-8.528-.079-.18-6.718-1.75-10.629-2.65l3.892-15.651,20.178,5.041-.01.076c2.7.676,5.411,1.3,8.282,1.961l.331.076.725.167,6-24.076,14.626,3.654-5.88,23.6,1.156.264.271.06c3.4.783,6.919,1.6,10.3,2.443l5.828-23.454,14.636,3.657-6,24.089c22.29,7.7,31.61,18.41,29.327,33.712-1.74,11.825-8.024,19.067-18.677,21.523,14.928,7.795,19.2,19.1,13.442,35.552-5.219,14.939-15.542,21.895-32.487,21.9a103.94,103.94,0,0,1-19.123-2.1l-6.047,24.3Zm-7.53-80.583h0l-8.027,32.269c.811.2,1.761.453,2.823.736,5.86,1.552,15.629,4.139,24.208,4.139,10.162,0,16.215-3.624,17.99-10.767a13.136,13.136,0,0,0-1.442-10.421c-5.675-9.216-22.771-13.057-31.956-15.121l-.109-.028c-1.35-.3-2.516-.564-3.486-.806Zm10.967-44.054h0l-7.287,29.27,1.767.461.657.174c4.963,1.331,12.464,3.34,19.457,3.34,8.931,0,14.3-3.384,15.959-10.059a12.431,12.431,0,0,0-1.3-9.878c-4.857-7.863-18.749-10.953-26.213-12.611-1.161-.257-2.186-.485-3.035-.7Z" transform="translate(659 4228.999)" fill="#fff" stroke="rgba(0,0,0,0)" stroke-miterlimit="10" stroke-width="1"/>
  </g>
</svg>
