<svg xmlns="http://www.w3.org/2000/svg" width="26" height="26" viewBox="0 0 26 26">
  <g id="bitcoin_cash" transform="translate(-30.5 -20.5)">
    <g id="Cjdowner-Cryptocurrency-Flat-Bitcoin-Cash-BCH" transform="translate(30.5 20.5)">
      <circle id="Ellipse_413" data-name="Ellipse 413" cx="13" cy="13" r="13" fill="#8dc351"/>
      <path id="Path_2989" data-name="Path 2989" d="M18.855,9.73c-.638-1.621-2.238-1.768-4.1-1.406L14.09,6.011l-1.408.4.646,2.253c-.37.105-.747.222-1.121.337l-.65-2.268-1.407.4.662,2.313c-.3.094-.6.186-.892.27l0-.008-1.942.557.432,1.5s1.034-.319,1.022-.294a.755.755,0,0,1,.987.385l.756,2.634a1.252,1.252,0,0,1,.151-.033l-.149.043L12.234,18.2a.518.518,0,0,1-.395.618c.022.011-1.024.293-1.024.293l.2,1.762,1.832-.526c.341-.1.678-.187,1.008-.28l.672,2.339,1.406-.4-.664-2.315q.566-.15,1.128-.312l.659,2.3,1.408-.4L17.8,18.945c2.328-.815,3.813-1.886,3.382-4.169a2.493,2.493,0,0,0-2.854-2.332,2.264,2.264,0,0,0,.528-2.713ZM18.321,15.3c.5,1.749-2.549,2.408-3.5,2.683l-.889-3.1c.954-.274,3.868-1.406,4.391.418Zm-1.909-4.185c.456,1.591-2.094,2.121-2.889,2.349l-.806-2.811c.794-.228,3.219-1.2,3.7.463Z" transform="translate(-1.418 -1.069)" fill="#fff"/>
    </g>
  </g>
</svg>
