<svg xmlns="http://www.w3.org/2000/svg" width="26" height="26" viewBox="0 0 26 26">
  <g id="bitcoin" transform="translate(-30.5 -20)">
    <g id="Icon" transform="translate(30.5 20)">
      <g id="ether" transform="translate(-0.5)">
        <circle id="Oval" cx="13" cy="13" r="13" transform="translate(0.5)" fill="#f29423"/>
        <path id="Shape" d="M6.176,16.209h0l-1.4-.35.574-2.3c-.391-.1-.768-.2-1.119-.29L3.65,15.58l-1.4-.35L2.829,12.9l-.437-.113c-.187-.049-.375-.1-.565-.145L0,12.182l.7-1.607c.009,0,.961.255,1.018.255a.809.809,0,0,0,.169.021.512.512,0,0,0,.477-.355L3.28,6.814l.084.021.064.016A1.181,1.181,0,0,0,3.282,6.8l.656-2.628a.748.748,0,0,0-.655-.817c-.008-.017-.645-.168-1.02-.254l.374-1.5,1.937.483V2.1c.259.065.519.125.795.188l.032.007.07.016L6.044,0l1.4.35L6.884,2.611l.111.025.026.006c.327.075.664.153.989.234L8.569.629l1.4.35L9.4,3.287c2.14.737,3.034,1.764,2.815,3.229a2.245,2.245,0,0,1-1.793,2.062,2.459,2.459,0,0,1,1.29,3.406,2.933,2.933,0,0,1-3.118,2.1,10,10,0,0,1-1.836-.2l-.58,2.328ZM5.453,8.49h0l-.771,3.091.271.071a9.708,9.708,0,0,0,2.324.4c.975,0,1.556-.347,1.727-1.031a1.256,1.256,0,0,0-.138-1C8.321,9.135,6.68,8.767,5.8,8.57l-.01,0c-.13-.029-.241-.054-.335-.077ZM6.506,4.27h0l-.7,2.8.17.044.063.017a7.547,7.547,0,0,0,1.868.32c.857,0,1.373-.324,1.532-.963a1.189,1.189,0,0,0-.125-.946C8.847,4.791,7.514,4.5,6.8,4.337c-.111-.025-.21-.047-.291-.067Z" transform="translate(6.5 5)" fill="#fff"/>
      </g>
    </g>
  </g>
</svg>
