<svg id="bitcoin_big" xmlns="http://www.w3.org/2000/svg" width="48" height="48" viewBox="0 0 48 48">
  <g id="ether">
    <circle id="Oval" cx="24" cy="24" r="24" fill="#f29423"/>
    <path id="Shape" d="M11.4,29.924h0l-2.592-.646,1.059-4.241c-.722-.18-1.418-.361-2.065-.536L6.74,28.762l-2.59-.647,1.074-4.308c-.266-.068-.535-.137-.806-.208-.344-.09-.692-.18-1.044-.268L0,22.49l1.288-2.967c.016,0,1.774.471,1.878.471a1.493,1.493,0,0,0,.313.038.946.946,0,0,0,.881-.655l1.7-6.8.155.038.118.029a2.18,2.18,0,0,0-.27-.087L7.27,7.708A1.381,1.381,0,0,0,6.061,6.2c-.014-.032-1.19-.31-1.884-.469l.69-2.768,3.576.892,0,.013c.478.12.959.23,1.468.347l.059.014.128.029L11.159,0l2.592.646L12.709,4.82l.2.047.048.011c.6.138,1.226.282,1.826.432L15.82,1.162l2.594.646-1.063,4.26c3.95,1.361,5.6,3.256,5.2,5.962a4.145,4.145,0,0,1-3.31,3.806c2.646,1.379,3.4,3.378,2.382,6.288C20.7,24.766,18.866,26,15.863,26a18.465,18.465,0,0,1-3.389-.372l-1.072,4.3ZM10.068,15.673h0L8.646,21.38c.144.036.312.08.5.13a17.923,17.923,0,0,0,4.29.732c1.8,0,2.873-.641,3.188-1.9a2.319,2.319,0,0,0-.256-1.843c-1.006-1.63-4.035-2.309-5.663-2.674l-.019,0c-.239-.054-.446-.1-.618-.143Zm1.944-7.791h0L10.72,13.059l.313.082.116.031a13.932,13.932,0,0,0,3.448.59c1.583,0,2.534-.6,2.828-1.779a2.194,2.194,0,0,0-.231-1.747c-.861-1.391-3.323-1.937-4.645-2.23-.206-.046-.387-.086-.538-.123Z" transform="translate(11.077 9.231)" fill="#fff"/>
  </g>
</svg>
