<svg xmlns="http://www.w3.org/2000/svg" width="170.556" height="141.364" viewBox="0 0 170.556 141.364">
  <g id="camera1" transform="translate(3.5 0.5)">
    <path id="Path_2898" data-name="Path 2898" d="M162.056,121.268a14.6,14.6,0,0,1-14.6,14.6H16.1a14.6,14.6,0,0,1-14.6-14.6V40.99a14.6,14.6,0,0,1,14.6-14.6H45.288L59.884,4.5h43.788l14.6,21.894H147.46a14.6,14.6,0,0,1,14.6,14.6Z" transform="translate(0 0)" fill="none" stroke="#013567" stroke-linecap="round" stroke-linejoin="round" stroke-width="10"/>
    <path id="Path_2899" data-name="Path 2899" d="M70.384,42.692A29.192,29.192,0,1,1,41.192,13.5,29.192,29.192,0,0,1,70.384,42.692Z" transform="translate(40.586 34.788)" fill="none" stroke="#013567" stroke-linecap="round" stroke-linejoin="round" stroke-width="10"/>
  </g>
</svg>
