<svg xmlns="http://www.w3.org/2000/svg" width="42" height="42" viewBox="0 0 42 42">
  <g id="camera" transform="translate(0.4 0.066)">
    <circle id="Ellipse_269" data-name="Ellipse 269" cx="21" cy="21" r="21" transform="translate(-0.4 -0.066)" fill="#fff"/>
    <g id="Icon_feather-camera" data-name="Icon feather-camera" transform="translate(9.099 8.252)">
      <path id="Path_2898" data-name="Path 2898" d="M21.5,19.046a1.818,1.818,0,0,1-1.818,1.818H3.318A1.818,1.818,0,0,1,1.5,19.046v-10A1.818,1.818,0,0,1,3.318,7.227H6.955L8.773,4.5h5.455l1.818,2.727h3.636A1.818,1.818,0,0,1,21.5,9.046Z" fill="none" stroke="#013567" stroke-linecap="round" stroke-linejoin="round" stroke-width="1.6"/>
      <path id="Path_2899" data-name="Path 2899" d="M19.273,17.136A3.636,3.636,0,1,1,15.636,13.5,3.636,3.636,0,0,1,19.273,17.136Z" transform="translate(-4.136 -3.545)" fill="none" stroke="#013567" stroke-linecap="round" stroke-linejoin="round" stroke-width="1.6"/>
    </g>
  </g>
</svg>
