<svg xmlns="http://www.w3.org/2000/svg" xmlns:xlink="http://www.w3.org/1999/xlink" width="42" height="42" viewBox="0 0 42 42">
  <defs>
    <filter id="BG-5" x="0" y="0" width="42" height="42" filterUnits="userSpaceOnUse">
      <feOffset dy="3" input="SourceAlpha"/>
      <feGaussianBlur stdDeviation="3" result="blur"/>
      <feFlood flood-color="#267dce" flood-opacity="0.071"/>
      <feComposite operator="in" in2="blur"/>
      <feComposite in="SourceGraphic"/>
    </filter>
  </defs>
  <!-- <g id="card" transform="translate(9 6)"> -->
  <g id="card">
    <g transform="matrix(1, 0, 0, 1, -9, -6)" filter="url(#BG-5)">
      <rect id="BG-5-2" data-name="BG-5" width="24" height="24" rx="4" transform="translate(9 6)" fill="#fff"/>
    </g>
    <g id="Group_2071" data-name="Group 2071">
      <g id="Icon_feather-credit-card" data-name="Icon feather-credit-card" transform="translate(2.5 0.35)">
        <path id="Path_2981" data-name="Path 2981" d="M2.955,6H16.045A1.459,1.459,0,0,1,17.5,7.463v8.775A1.459,1.459,0,0,1,16.045,17.7H2.955A1.459,1.459,0,0,1,1.5,16.238V7.463A1.459,1.459,0,0,1,2.955,6Z" transform="translate(0 -0.35)" fill="none" stroke="#013567" stroke-linecap="round" stroke-linejoin="round" stroke-width="1"/>
        <path id="Path_2982" data-name="Path 2982" d="M1.5,15h16" transform="translate(0 -4.875)" fill="none" stroke="#013567" stroke-linecap="round" stroke-linejoin="round" stroke-width="1"/>
      </g>
      <g id="Ellipse_410" data-name="Ellipse 410" transform="translate(7 13)" fill="#fff" stroke="#013567" stroke-width="1">
        <circle cx="1" cy="1" r="1" stroke="none"/>
        <circle cx="1" cy="1" r="0.5" fill="none"/>
      </g>
      <g id="Ellipse_411" data-name="Ellipse 411" transform="translate(9 13)" fill="#fff" stroke="#013567" stroke-width="1">
        <circle cx="1" cy="1" r="1" stroke="none"/>
        <circle cx="1" cy="1" r="0.5" fill="none"/>
      </g>
    </g>
  </g>
</svg>
