<svg xmlns="http://www.w3.org/2000/svg" xmlns:xlink="http://www.w3.org/1999/xlink" width="42" height="42" viewBox="0 0 42 42">
  <defs>
    <filter id="BG-5" x="0" y="0" width="42" height="42" filterUnits="userSpaceOnUse">
      <feOffset dy="3" input="SourceAlpha"/>
      <feGaussianBlur stdDeviation="3" result="blur"/>
      <feFlood flood-color="#267dce" flood-opacity="0.071"/>
      <feComposite operator="in" in2="blur"/>
      <feComposite in="SourceGraphic"/>
    </filter>
  </defs>
  <g id="change_password" transform="translate(9 6)">
    <g transform="matrix(1, 0, 0, 1, -9, -6)" filter="url(#BG-5)">
      <rect id="BG-5-2" data-name="BG-5" width="24" height="24" rx="4" transform="translate(9 6)" fill="#fff"/>
    </g>
    <path id="Icon_material-lock-outline" data-name="Icon material-lock-outline" d="M12.1,13.69a1.524,1.524,0,1,0-1.524-1.524A1.528,1.528,0,0,0,12.1,13.69Zm4.571-6.857H15.9V5.31a3.81,3.81,0,1,0-7.619,0V6.833H7.524A1.528,1.528,0,0,0,6,8.357v7.619A1.528,1.528,0,0,0,7.524,17.5h9.143a1.528,1.528,0,0,0,1.524-1.524V8.357A1.528,1.528,0,0,0,16.667,6.833ZM9.733,5.31a2.362,2.362,0,1,1,4.724,0V6.833H9.733Zm6.933,10.667H7.524V8.357h9.143Z" transform="translate(0 2.5)" fill="#013567" stroke="#fff" stroke-width="0.4"/>
  </g>
</svg>
