<svg xmlns="http://www.w3.org/2000/svg" width="16" height="16" viewBox="0 0 16 16">
  <g id="country" transform="translate(-133 -4665)">
    <g id="Rectangle_2051" data-name="Rectangle 2051" transform="translate(133 4665)" fill="#013567" stroke="#b3bcc9" stroke-width="1" opacity="0">
      <rect width="16" height="16" stroke="none"/>
      <rect x="0.5" y="0.5" width="15" height="15" fill="none"/>
    </g>
    <path id="Icon_ionic-ios-globe" data-name="Icon ionic-ios-globe" d="M10.375,3.375h-.024a7,7,0,0,0,0,14h.024a7,7,0,1,0,0-14ZM16.44,9.9H13.828a13.253,13.253,0,0,0-.33-2.564,10.252,10.252,0,0,0,1.673-.707A6.029,6.029,0,0,1,16.44,9.9ZM9.9,9.9H7.824a11.962,11.962,0,0,1,.3-2.326A10.239,10.239,0,0,0,9.9,7.817Zm0,.942v2.083a10.282,10.282,0,0,0-1.784.239,11.961,11.961,0,0,1-.3-2.322Zm.942,0h2.063a11.892,11.892,0,0,1-.3,2.319,10.045,10.045,0,0,0-1.767-.236Zm0-.942V7.817a10.282,10.282,0,0,0,1.767-.236,11.927,11.927,0,0,1,.3,2.322Zm3.682-3.968a9.349,9.349,0,0,1-1.279.522,6.949,6.949,0,0,0-.892-1.834A6.09,6.09,0,0,1,14.528,5.936ZM12.361,6.7a9.471,9.471,0,0,1-1.514.2V4.432A4.078,4.078,0,0,1,12.361,6.7ZM9.9,4.418V6.9a9.308,9.308,0,0,1-1.531-.205A4.076,4.076,0,0,1,9.9,4.418Zm-1.535.215a7,7,0,0,0-.885,1.821,9.56,9.56,0,0,1-1.262-.518A6,6,0,0,1,8.369,4.634Zm-2.79,2a10.049,10.049,0,0,0,1.656.7A12.719,12.719,0,0,0,6.905,9.9H4.314A6,6,0,0,1,5.579,6.636Zm-1.269,4.21H6.9a13.219,13.219,0,0,0,.33,2.564,10.662,10.662,0,0,0-1.656.7A6.03,6.03,0,0,1,4.311,10.846Zm1.908,3.968A9.419,9.419,0,0,1,7.484,14.3a7.029,7.029,0,0,0,.885,1.824A6.148,6.148,0,0,1,6.219,14.814Zm2.154-.761A9.357,9.357,0,0,1,9.9,13.848v2.484A4.07,4.07,0,0,1,8.373,14.053Zm2.474,2.265V13.845a9.471,9.471,0,0,1,1.514.2A4.076,4.076,0,0,1,10.846,16.318Zm1.514-.192a6.949,6.949,0,0,0,.892-1.834,9.2,9.2,0,0,1,1.279.525A6.16,6.16,0,0,1,12.361,16.127Zm2.81-2.013a10.252,10.252,0,0,0-1.673-.707,13.184,13.184,0,0,0,.33-2.561H16.44A6,6,0,0,1,15.171,14.114Z" transform="translate(130.625 4662.625)" fill="#013567"/>
  </g>
</svg>
