<svg id="document" xmlns="http://www.w3.org/2000/svg" width="24" height="24" viewBox="0 0 24 24">
  <rect id="BG-5" width="24" height="24" rx="4" fill="#fff"/>
  <g id="Group_2050" data-name="Group 2050" transform="translate(0.5)">
    <path id="Icon_metro-file-pdf" data-name="Icon metro-file-pdf" d="M10.553,11.766a6.794,6.794,0,0,0,.75.5,8.86,8.86,0,0,1,1.045-.062q1.312,0,1.58.437a.432.432,0,0,1,.018.464.026.026,0,0,1-.009.018l-.018.018v.009q-.054.339-.634.339a3.683,3.683,0,0,1-1.027-.179,6.51,6.51,0,0,1-1.161-.473,16.077,16.077,0,0,0-3.5.741q-1.366,2.339-2.161,2.339a.519.519,0,0,1-.25-.062l-.214-.107q-.009-.009-.054-.045a.369.369,0,0,1-.054-.321,1.939,1.939,0,0,1,.5-.817A4.315,4.315,0,0,1,6.544,13.7a.13.13,0,0,1,.205.054.051.051,0,0,1,.018.036q.464-.759.955-1.759a13.627,13.627,0,0,0,.929-2.339A7.217,7.217,0,0,1,8.379,8.27a3.472,3.472,0,0,1,.058-1.138q.1-.357.375-.357h.2a.376.376,0,0,1,.312.134.713.713,0,0,1,.08.607.194.194,0,0,1-.036.071.232.232,0,0,1,.009.071v.268a11.692,11.692,0,0,1-.125,1.714,4.517,4.517,0,0,0,1.3,2.125ZM5.41,15.436a3.942,3.942,0,0,0,1.223-1.411,5.09,5.09,0,0,0-.781.75A2.968,2.968,0,0,0,5.41,15.436ZM8.964,7.221A2.655,2.655,0,0,0,8.946,8.4q.009-.062.063-.393,0-.027.063-.384a.2.2,0,0,1,.036-.071A.026.026,0,0,1,9.1,7.534a.018.018,0,0,0,0-.013.018.018,0,0,1,0-.013.514.514,0,0,0-.116-.321.026.026,0,0,1-.009.018v.018Zm-1.107,5.9a13.1,13.1,0,0,1,2.536-.723,1.347,1.347,0,0,1-.116-.085,1.6,1.6,0,0,1-.143-.121A4.729,4.729,0,0,1,9,10.623a11.931,11.931,0,0,1-.741,1.759q-.268.5-.4.741Zm5.768-.143a2.137,2.137,0,0,0-1.25-.214,3.377,3.377,0,0,0,1.107.25.866.866,0,0,0,.161-.009q0-.009-.018-.027Z" transform="translate(2.145 1.797)" fill="#013567"/>
    <g id="Icon_metro-file-pdf-2" data-name="Icon metro-file-pdf" transform="translate(2.429 1.797)" fill="#013567">
      <path d="M 14.7582311630249 18.10344314575195 L 3.383230686187744 18.10344314575195 C 3.18436074256897 18.10344314575195 3.019840717315674 18.03187370300293 2.880290746688843 17.8846435546875 C 2.739280700683594 17.73589324951172 2.670730590820313 17.55979347229004 2.670730590820313 17.34630393981934 L 2.670730590820313 3.060643196105957 C 2.670730590820313 2.847143173217773 2.739280700683594 2.671043157577515 2.880280733108521 2.522303104400635 C 3.019840717315674 2.375073194503784 3.18436074256897 2.303503036499023 3.383230686187744 2.303503036499023 L 10.96656036376953 2.303503036499023 C 11.17727088928223 2.303503036499023 11.41432094573975 2.360743045806885 11.67112064361572 2.473633050918579 C 11.92843055725098 2.586733102798462 12.13397026062012 2.723273038864136 12.2820405960083 2.879453182220459 L 14.92262077331543 5.665132999420166 C 15.07104110717773 5.821712970733643 15.20086097717285 6.039233207702637 15.3084602355957 6.311653137207031 C 15.41615104675293 6.584272861480713 15.47075080871582 6.836263179779053 15.47073078155518 7.06061315536499 L 15.47073078155518 17.34630393981934 C 15.47073078155518 17.55979347229004 15.40218067169189 17.73589324951172 15.26117038726807 17.8846435546875 C 15.12162113189697 18.03187370300293 14.9571008682251 18.10344314575195 14.7582311630249 18.10344314575195 Z M 3.55405068397522 3.24634313583374 L 3.55405068397522 3.346343040466309 L 3.55405068397522 17.06057357788086 L 3.55405068397522 17.16057395935059 L 3.654050588607788 17.16057395935059 L 12.47753047943115 17.16057395935059 L 14.48741054534912 17.16057395935059 L 14.58741092681885 17.16057395935059 L 14.58741092681885 17.06057357788086 L 14.58738040924072 7.91774320602417 L 14.58738040924072 7.817743301391602 L 14.48738098144531 7.817743301391602 L 10.96655082702637 7.817743301391602 C 10.76768112182617 7.817743301391602 10.6031608581543 7.746172904968262 10.46361064910889 7.59894323348999 C 10.32260036468506 7.450202941894531 10.25405025482178 7.274113178253174 10.25405025482178 7.06061315536499 L 10.25405025482178 3.346343040466309 L 10.25405025482178 3.24634313583374 L 10.15405082702637 3.24634313583374 L 3.654050588607788 3.24634313583374 L 3.55405068397522 3.24634313583374 Z M 11.13739109039307 3.274983167648315 L 11.13739109039307 3.417762994766235 L 11.13739109039307 6.774893283843994 L 11.13739109039307 6.874893188476563 L 11.23739051818848 6.874893188476563 L 14.41968059539795 6.874893188476563 L 14.5575704574585 6.874893188476563 L 14.51473045349121 6.743823051452637 C 14.45308113098145 6.55521297454834 14.384840965271 6.42313289642334 14.30609035491943 6.340023040771484 L 11.65695095062256 3.545382976531982 C 11.57772064208984 3.461783170700073 11.45166110992432 3.389293193817139 11.27157115936279 3.323793172836304 L 11.13739109039307 3.274983167648315 Z" stroke="none"/>
      <path d="M 3.383231163024902 2.40350341796875 C 3.213291168212891 2.40350341796875 3.07252025604248 2.464862823486328 2.952860832214355 2.591102600097656 C 2.830300331115723 2.720373153686523 2.770730972290039 2.87396240234375 2.770730972290039 3.060642242431641 L 2.770730972290039 17.3463020324707 C 2.770730972290039 17.53297233581543 2.830310821533203 17.68656349182129 2.952860832214355 17.81585311889648 C 3.07252025604248 17.94208335876465 3.213291168212891 18.00344276428223 3.383231163024902 18.00344276428223 L 14.75823020935059 18.00344276428223 C 14.92817115783691 18.00344276428223 15.06894111633301 17.94208335876465 15.18860054016113 17.81585311889648 C 15.31115055084229 17.68656349182129 15.37073040008545 17.53297233581543 15.37073040008545 17.3463020324707 L 15.37073040008545 7.060603141784668 C 15.37075042724609 6.848893165588379 15.31851100921631 6.60926342010498 15.21546077728271 6.348382949829102 C 15.11255073547363 6.087893486022949 14.98961067199707 5.881162643432617 14.8500509262085 5.733922958374023 L 12.20947074890137 2.948253631591797 C 12.07061004638672 2.801782608032227 11.87594032287598 2.672893524169922 11.63088035583496 2.565162658691406 C 11.3868408203125 2.457893371582031 11.163330078125 2.40350341796875 10.96656036376953 2.40350341796875 L 3.383231163024902 2.40350341796875 M 14.69546127319336 6.974892616271973 L 11.03739070892334 6.974892616271973 L 11.03739070892334 3.1322021484375 L 11.30575084686279 3.229822158813477 C 11.50076103210449 3.300743103027344 11.63938140869141 3.381473541259766 11.72953033447266 3.476593017578125 L 14.37867069244385 6.271243095397949 C 14.46783065795898 6.365333557128906 14.54343032836914 6.509753227233887 14.60978126525879 6.712762832641602 L 14.69546127319336 6.974892616271973 M 14.68741035461426 17.26057243347168 L 3.45405101776123 17.26057243347168 L 3.45405101776123 3.146343231201172 L 10.3540506362915 3.146343231201172 L 10.3540506362915 7.060612678527832 C 10.3540506362915 7.247282981872559 10.41361999511719 7.400873184204102 10.53618049621582 7.530153274536133 C 10.65584087371826 7.656383514404297 10.79661083221436 7.717742919921875 10.96655082702637 7.717742919921875 L 14.68738079071045 7.717742919921875 L 14.68741035461426 17.26057243347168 M 3.383231163024902 2.203502655029297 L 10.96656036376953 2.203502655029297 C 11.1922607421875 2.203502655029297 11.44052124023438 2.263023376464844 11.71136093139648 2.382072448730469 C 11.98220062255859 2.501132965087891 12.19661140441895 2.643993377685547 12.35461044311523 2.810653686523438 L 14.99520111083984 5.596333503723145 C 15.1531810760498 5.763003349304199 15.28860092163086 5.989192962646484 15.40147018432617 6.274903297424316 C 15.51433086395264 6.560623168945313 15.57075119018555 6.822532653808594 15.57073020935059 7.060623168945313 L 15.57073020935059 17.3463020324707 C 15.57073020935059 17.58440399169922 15.49174118041992 17.78677368164063 15.33375072479248 17.95344352722168 C 15.17576026916504 18.12011337280273 14.98392105102539 18.20344352722168 14.75823020935059 18.20344352722168 L 3.383231163024902 18.20344352722168 C 3.157540321350098 18.20344352722168 2.965701103210449 18.12011337280273 2.807710647583008 17.95344352722168 C 2.649721145629883 17.78677368164063 2.570731163024902 17.58439254760742 2.570731163024902 17.3463020324707 L 2.570731163024902 3.060642242431641 C 2.570731163024902 2.822542190551758 2.649721145629883 2.620162963867188 2.807710647583008 2.453502655029297 C 2.965701103210449 2.286832809448242 3.157540321350098 2.203502655029297 3.383231163024902 2.203502655029297 Z M 14.48741054534912 17.06057357788086 L 14.48738098144531 17.06057357788086 L 14.48738098144531 7.917742729187012 L 10.96655082702637 7.917742729187012 C 10.7408504486084 7.917742729187012 10.54902076721191 7.834413528442383 10.39103126525879 7.667742729187012 C 10.23304080963135 7.501083374023438 10.15405082702637 7.298703193664551 10.15405082702637 7.060612678527832 L 10.15405082702637 3.346343994140625 L 3.654050827026367 3.346343994140625 L 3.654050827026367 17.06057357788086 L 14.48741054534912 17.06057357788086 Z M 11.23737049102783 3.417762756347656 C 11.23738098144531 3.417766571044922 11.23738098144531 3.417766571044922 11.23739051818848 3.417770385742188 L 11.23739051818848 6.774892807006836 L 14.41968059539795 6.774892807006836 C 14.36326026916504 6.602272987365723 14.30120086669922 6.480253219604492 14.23350048065186 6.4088134765625 L 11.58438110351563 3.61418342590332 C 11.51668548583984 3.542757034301758 11.40100479125977 3.477287292480469 11.23739051818848 3.417770385742188 L 11.23737049102783 3.417762756347656 Z" stroke="none" fill="#fff"/>
    </g>
  </g>
</svg>
