<svg id="email" xmlns="http://www.w3.org/2000/svg" width="16" height="16" viewBox="0 0 16 16">
  <g id="Rectangle_2051" data-name="Rectangle 2051" fill="#fff" stroke="#b3bcc9" stroke-width="1" opacity="0">
    <rect width="16" height="16" stroke="none"/>
    <rect x="0.5" y="0.5" width="15" height="15" fill="none"/>
  </g>
  <g id="Icon_awesome-envelope" data-name="Icon awesome-envelope" transform="translate(1.5 -1.5)" fill="none">
    <path d="M12.754,7.72A.153.153,0,0,1,13,7.839v6.193a1.219,1.219,0,0,1-1.219,1.219H1.219A1.219,1.219,0,0,1,0,14.031V7.841a.152.152,0,0,1,.246-.119c.569.442,1.323,1,3.913,2.884A4.543,4.543,0,0,0,6.5,11.815a4.545,4.545,0,0,0,2.344-1.209C11.434,8.725,12.185,8.161,12.754,7.72ZM6.5,11c.589.01,1.437-.741,1.864-1.051,3.369-2.445,3.626-2.658,4.4-3.268A.608.608,0,0,0,13,6.2V5.719A1.219,1.219,0,0,0,11.782,4.5H1.219A1.219,1.219,0,0,0,0,5.719V6.2a.611.611,0,0,0,.234.48c.777.607,1.033.823,4.4,3.268C5.063,10.259,5.911,11.01,6.5,11Z" stroke="none"/>
    <path d="M 1.218779563903809 5.499996185302734 C 1.098138809204102 5.499996185302734 0.9999990463256836 5.598135948181152 0.9999990463256836 5.718775749206543 L 0.9999990463256836 6.010993957519531 L 1.013389587402344 6.021466255187988 C 1.676999092102051 6.540785789489746 2.115399360656738 6.883875846862793 5.224059104919434 9.139816284179688 C 5.309189319610596 9.201645851135254 5.402259349822998 9.273566246032715 5.500789165496826 9.349716186523438 C 5.711833477020264 9.512814521789551 6.263460636138916 9.939107894897461 6.500174045562744 9.998245239257813 C 6.736887454986572 9.939107894897461 7.288505077362061 9.512814521789551 7.499549388885498 9.349716186523438 C 7.598079204559326 9.273566246032715 7.691139221191406 9.201645851135254 7.776549339294434 9.139625549316406 C 10.90653419494629 6.868212699890137 11.33931732177734 6.53045654296875 12.00033950805664 6.011423110961914 L 12.00033950805664 5.718775749206543 C 12.00033950805664 5.598135948181152 11.90219879150391 5.499996185302734 11.78155899047852 5.499996185302734 L 1.218779563903809 5.499996185302734 M 12.00033950805664 9.538938522338867 C 11.4163875579834 9.970109939575195 10.61214065551758 10.5579776763916 9.43290901184082 11.4146556854248 C 9.365818977355957 11.46356582641602 9.281908988952637 11.52846622467041 9.193078994750977 11.59718608856201 C 8.566028594970703 12.08224582672119 7.618409156799316 12.81527519226074 6.512429237365723 12.81527519226074 L 6.499192714691162 12.81522178649902 L 6.491849422454834 12.81524658203125 C 5.388959407806396 12.81524658203125 4.442349433898926 12.08484649658203 3.815958976745605 11.60152626037598 C 3.725469589233398 11.53170585632324 3.639999389648438 11.46575546264648 3.57133960723877 11.41564559936523 C 2.378134727478027 10.54881954193115 1.574944496154785 9.962501525878906 0.9999990463256836 9.539047241210938 L 0.9999990463256836 14.03147602081299 C 0.9999990463256836 14.15211582183838 1.098138809204102 14.2502555847168 1.218779563903809 14.2502555847168 L 11.78155899047852 14.2502555847168 C 11.90219879150391 14.2502555847168 12.00033950805664 14.15211582183838 12.00033950805664 14.03147602081299 L 12.00033950805664 9.538938522338867 M 1.218779563903809 4.499996185302734 L 11.78155899047852 4.499996185302734 C 12.45442962646484 4.499996185302734 13.00033950805664 5.045915603637695 13.00033950805664 5.718775749206543 L 13.00033950805664 6.201215744018555 C 13.00033950805664 6.389105796813965 12.91400909423828 6.566845893859863 12.76673889160156 6.681105613708496 C 11.98976898193359 7.290505409240723 11.73331928253174 7.503786087036133 8.363889694213867 9.948966026306152 C 7.937319278717041 10.25874614715576 7.089218139648438 11.01039123535156 6.500169277191162 11.00016593933105 C 5.91110897064209 11.01028442382813 5.063019752502441 10.25874614715576 4.636448860168457 9.948966026306152 C 1.26702880859375 7.503786087036133 1.01056957244873 7.287965774536133 0.2335996627807617 6.681116104125977 C 0.08632946014404297 6.564306259155273 -9.5367431640625e-07 6.389105796813965 -9.5367431640625e-07 6.201215744018555 L -9.5367431640625e-07 5.718775749206543 C -9.5367431640625e-07 5.045915603637695 0.5459089279174805 4.499996185302734 1.218779563903809 4.499996185302734 Z M 12.84610652923584 7.687088966369629 C 12.92516231536865 7.687088966369629 13.00033950805664 7.750053405761719 13.00033950805664 7.838955879211426 L 13.00033950805664 14.03147602081299 C 13.00033950805664 14.70433616638184 12.45442962646484 15.2502555847168 11.78155899047852 15.2502555847168 L 1.218779563903809 15.2502555847168 C 0.5459089279174805 15.2502555847168 -9.5367431640625e-07 14.70433616638184 -9.5367431640625e-07 14.03147602081299 L -9.5367431640625e-07 7.841495513916016 C -9.5367431640625e-07 7.714535713195801 0.1447277069091797 7.643446922302246 0.2462997436523438 7.722155570983887 C 0.8150596618652344 8.163966178894043 1.569179534912109 8.725106239318848 4.159089088439941 10.60660552978516 C 4.694849967956543 10.99762535095215 5.598893642425537 11.82021903991699 6.500169277191162 11.81522560119629 C 7.40654993057251 11.8227653503418 8.328338623046875 10.98239612579346 8.843789100646973 10.60660552978516 C 11.43369960784912 8.725106239318848 12.18527889251709 8.161425590515137 12.75403881072998 7.719615936279297 C 12.78230857849121 7.697147369384766 12.8145227432251 7.687088966369629 12.84610652923584 7.687088966369629 Z" stroke="none" fill="#013567"/>
  </g>
</svg>
