<svg xmlns="http://www.w3.org/2000/svg" xmlns:xlink="http://www.w3.org/1999/xlink" width="30" height="30" viewBox="0 0 30 30">
  <defs>
    <filter id="Rectangle_2129" x="0" y="0" width="30" height="30" filterUnits="userSpaceOnUse">
      <feOffset dy="1" input="SourceAlpha"/>
      <feGaussianBlur stdDeviation="1" result="blur"/>
      <feFlood flood-opacity="0.161"/>
      <feComposite operator="in" in2="blur"/>
      <feComposite in="SourceGraphic"/>
    </filter>
  </defs>
  <g id="facebook" transform="translate(-9 -10)">
    <g transform="matrix(1, 0, 0, 1, 9, 10)" filter="url(#Rectangle_2129)">
      <rect id="Rectangle_2129-2" data-name="Rectangle 2129" width="24" height="24" rx="4" transform="translate(3 2)" fill="#fff"/>
    </g>
    <path id="Path_278" d="M8.36,0v3.32H6.68a.739.739,0,0,0-.625.41,1.776,1.776,0,0,0-.2.84v2.07h2.5V10h-2.5v6.64H2.5V10H0V6.641H2.5V3.321A3.318,3.318,0,0,1,3.48.977,3.364,3.364,0,0,1,5.863,0Z" transform="translate(20 16)" fill="#267dce"/>
  </g>
</svg>
