<svg xmlns="http://www.w3.org/2000/svg" xmlns:xlink="http://www.w3.org/1999/xlink" width="42" height="42" viewBox="0 0 42 42">
  <defs>
    <filter id="BG-5" x="0" y="0" width="42" height="42" filterUnits="userSpaceOnUse">
      <feOffset dy="3" input="SourceAlpha"/>
      <feGaussianBlur stdDeviation="3" result="blur"/>
      <feFlood flood-color="#267dce" flood-opacity="0.071"/>
      <feComposite operator="in" in2="blur"/>
      <feComposite in="SourceGraphic"/>
    </filter>
  </defs>
  <!-- g id="fees" transform="translate(9 6)" -->
  <g id="fees">
    <g transform="matrix(1, 0, 0, 1, -9, -6)" filter="url(#BG-5)">
      <rect id="BG-5-2" data-name="BG-5" width="24" height="24" rx="4" transform="translate(9 6)" fill="#fff"/>
    </g>
    <path id="Union_101" data-name="Union 101" d="M-1736.056-3282a.281.281,0,0,1-.278-.285v-.572a.282.282,0,0,1,.278-.285h2.777a.282.282,0,0,1,.278.285v.572a.281.281,0,0,1-.278.285Zm-6.666,0a.281.281,0,0,1-.278-.285v-.572a.282.282,0,0,1,.278-.285h3.888a.282.282,0,0,1,.278.285v.572a.281.281,0,0,1-.278.285Zm0-3.428a.282.282,0,0,1-.278-.285v-.572a.282.282,0,0,1,.278-.286h9.443a.282.282,0,0,1,.278.286v.572a.282.282,0,0,1-.278.285Zm4.444-3.143a.282.282,0,0,1-.277-.286v-.582a1.953,1.953,0,0,1-1.089-.405.291.291,0,0,1-.019-.434l.408-.4a.278.278,0,0,1,.352-.026.817.817,0,0,0,.445.132h.976a.443.443,0,0,0,.409-.471.465.465,0,0,0-.3-.454l-1.563-.482a1.612,1.612,0,0,1-1.1-1.549,1.572,1.572,0,0,1,1.481-1.61v-.576a.282.282,0,0,1,.278-.285h.556a.282.282,0,0,1,.277.285v.582a1.954,1.954,0,0,1,1.089.405.292.292,0,0,1,.02.434l-.408.4a.279.279,0,0,1-.352.026.815.815,0,0,0-.445-.133h-.976a.444.444,0,0,0-.409.471.466.466,0,0,0,.3.455l1.563.481a1.613,1.613,0,0,1,1.1,1.55,1.571,1.571,0,0,1-1.481,1.61v.575a.282.282,0,0,1-.278.286Z" transform="translate(1750 3301)" fill="#013567"/>
  </g>
</svg>
