<svg id="home_selected" xmlns="http://www.w3.org/2000/svg" width="24" height="24" viewBox="0 0 24 24">
  <rect id="BG-5" width="24" height="24" rx="4" fill="#fff"/>
  <g id="Icon_feather-home" data-name="Icon feather-home" transform="translate(0.5 1)">
    <g id="Path_2947" data-name="Path 2947" fill="none" stroke-linecap="round" stroke-linejoin="round">
      <path d="M4.5,8.6,11.7,3l7.2,5.6v8.8A1.6,1.6,0,0,1,17.3,19H6.1a1.6,1.6,0,0,1-1.6-1.6Z" stroke="none"/>
      <path d="M 11.70000076293945 4.26685905456543 L 5.5 9.089080810546875 L 5.5 17.39999961853027 C 5.5 17.7308406829834 5.769161224365234 18 6.100000381469727 18 L 17.30000114440918 18 C 17.63084030151367 18 17.90000152587891 17.7308406829834 17.90000152587891 17.39999961853027 L 17.90000152587891 9.089080810546875 L 11.70000076293945 4.26685905456543 M 11.70000076293945 3 L 18.90000152587891 8.600000381469727 L 18.90000152587891 17.39999961853027 C 18.90000152587891 18.28366088867188 18.18366050720215 19 17.30000114440918 19 L 6.100000381469727 19 C 5.216341018676758 19 4.5 18.28366088867188 4.5 17.39999961853027 L 4.5 8.600000381469727 L 11.70000076293945 3 Z" stroke="none" fill="#013567"/>
    </g>
    <path id="Path_2948" data-name="Path 2948" d="M13.5,24.313V18H18v6.313" transform="translate(-4.05 -6)" fill="none" stroke="#013567" stroke-linecap="round" stroke-linejoin="round" stroke-width="1"/>
  </g>
</svg>
