<svg id="Icon" xmlns="http://www.w3.org/2000/svg" width="48" height="48" viewBox="0 0 48 48">
  <g id="ether">
    <circle id="Oval" cx="24" cy="24" r="24" fill="#fff"/>
    <path id="Icon_simple-turkishairlines" data-name="Icon simple-turkishairlines" d="M.2,16.708a14.226,14.226,0,0,0,2.019,5.283c3.7-1.031,6.948-2.98,8.1-7.325C11.6,9.885,10.145,4.873,6.673,2.218A14.334,14.334,0,0,0,.2,16.708M28.467,11.96A14.333,14.333,0,0,1,2.727,22.747l23.207-6.653c.333-.1.247-.417-.029-.4l-9.729.68a6.478,6.478,0,0,0,2.287-5.19C18.208,7.55,14.508,4,7.628,1.668A14.322,14.322,0,0,1,28.467,11.961" transform="translate(9.999 10.001)" fill="#1ddb5c"/>
  </g>
</svg>
