<svg id="kyc" xmlns="http://www.w3.org/2000/svg" width="24" height="24" viewBox="0 0 24 24">
  <rect id="BG-5" width="24" height="24" rx="4" fill="#fff"/>
  <g id="Layer_2" data-name="Layer 2" transform="translate(4.351 4.436)">
    <g id="invisible_box" data-name="invisible box" transform="translate(0.375 0.375)">
      <rect id="Rectangle_2199" data-name="Rectangle 2199" width="14" height="14" transform="translate(0.274 0.274)" fill="none"/>
      <rect id="Rectangle_2200" data-name="Rectangle 2200" width="14" height="14" transform="translate(0.274 0.274)" fill="none"/>
    </g>
    <g id="icons_Q2" data-name="icons Q2" transform="translate(1.208 0.564)">
      <g id="Group_2061" data-name="Group 2061">
        <path id="Path_2968" data-name="Path 2968" d="M18.441,23.644A.644.644,0,0,0,17.8,23H12.644a.644.644,0,1,0,0,1.288H17.8A.644.644,0,0,0,18.441,23.644Z" transform="translate(-9.424 -16.237)" fill="#013567" stroke="#fff" stroke-width="0.3"/>
        <path id="Path_2969" data-name="Path 2969" d="M12.644,31a.644.644,0,1,0,0,1.288H15.22a.644.644,0,1,0,0-1.288Z" transform="translate(-9.424 -21.661)" fill="#013567" stroke="#fff" stroke-width="0.3"/>
        <path id="Path_2970" data-name="Path 2970" d="M14.3,16.237H5.288V5.288h3.22a.644.644,0,0,0,.644-.644h0A.644.644,0,0,0,8.508,4H4.644A.644.644,0,0,0,4,4.644V16.881a.644.644,0,0,0,.644.644h10.3a.644.644,0,0,0,.644-.644V11.729a.644.644,0,0,0-.644-.644h0a.644.644,0,0,0-.644.644Z" transform="translate(-4 -3.356)" fill="#013567" stroke="#fff" stroke-width="0.3"/>
        <path id="Path_2971" data-name="Path 2971" d="M22.756,8.634,21.113,6.991a3.124,3.124,0,0,0,.547-1.771,3.22,3.22,0,1,0-6.441,0,3.188,3.188,0,0,0,.161.966H12.644a.644.644,0,1,0,0,1.288h3.51a3.253,3.253,0,0,0,2.286.966,3.124,3.124,0,0,0,1.771-.547l1.642,1.642a.638.638,0,1,0,.9-.9ZM16.508,5.22a1.932,1.932,0,1,1,1.932,1.932A1.932,1.932,0,0,1,16.508,5.22Z" transform="translate(-9.424 -2)" fill="#013567" stroke="#fff" stroke-width="0.3"/>
      </g>
    </g>
  </g>
</svg>
