<?xml version="1.0" encoding="UTF-8"?>
<!DOCTYPE svg PUBLIC "-//W3C//DTD SVG 1.1//EN" "http://www.w3.org/Graphics/SVG/1.1/DTD/svg11.dtd">
<!-- Creator: CorelDRAW 2021 (64-Bit) -->
<svg xmlns="http://www.w3.org/2000/svg" xml:space="preserve" width="1.78183in" height="1.62737in" version="1.1" style="shape-rendering:geometricPrecision; text-rendering:geometricPrecision; image-rendering:optimizeQuality; fill-rule:evenodd; clip-rule:evenodd"
viewBox="0 0 683.3 624.07"
 xmlns:xlink="http://www.w3.org/1999/xlink"
 xmlns:xodm="http://www.corel.com/coreldraw/odm/2003">
 <defs>
  <style type="text/css">
   <![CDATA[
    .str0 {stroke:white;stroke-width:5.33;stroke-linecap:round;stroke-linejoin:round;stroke-miterlimit:2.61313}
    .fil0 {fill:none}
    .fil7 {fill:#00CCFF}
    .fil1 {fill:#0269CA}
    .fil2 {fill:white}
    .fil5 {fill:#00CCFF;fill-rule:nonzero}
    .fil3 {fill:#0269CA;fill-rule:nonzero}
    .fil4 {fill:white;fill-rule:nonzero}
    .fil6 {fill:#00CCFF;fill-rule:nonzero}
   ]]>
  </style>
 </defs>
 <g id="Layer_x0020_1">
  <metadata id="CorelCorpID_0Corel-Layer"/>
  <g id="_1672190985248">
   <g>
    <g>
     <path class="fil0 str0" d="M341.32 2.66c56.13,0 103.3,45.57 104.54,102.25 -0.57,53.73 -32.71,109.2 -104.02,181.11 -74.86,-72.41 -105.93,-129.02 -104.34,-181.46 2.18,-54.65 47.7,-101.9 103.82,-101.9z"/>
     <path id="_1" class="fil1" d="M341.32 2.66c56.13,0 103.3,45.57 104.54,102.25 -0.57,53.73 -32.71,109.2 -104.02,181.11 -74.86,-72.41 -105.93,-129.02 -104.34,-181.46 2.18,-54.65 47.7,-101.9 103.82,-101.9z"/>
    </g>
    <circle class="fil2" cx="341.32" cy="107.23" r="81.6"/>
   </g>
   <path class="fil3" d="M348.46 103.51c4.52,-7.78 8.38,-13.9 11.64,-18.36l8.38 -11.04c5.57,-6.57 10.59,-9.84 15,-9.84 3.71,0.1 6.82,1.71 9.33,4.87 2.51,3.11 3.76,6.62 3.76,10.44 -0.1,2.91 -0.45,5.77 -1.05,8.53l-3.96 14.85c-2.51,8.83 -4.36,14.55 -5.42,17.21 -0.8,1.96 -1.15,3.61 -1.15,4.97 -0.1,1.56 0.7,2.46 2.51,2.66 1.35,0 3.06,-0.75 5.12,-2.21l7.22 -5.62 5.32 -4.92 2.96 -3.06 1.76 -1.06 1.61 1.06 1.05 1.46c0.2,2.06 -3.26,5.97 -10.29,11.79 -6.22,5.27 -11.09,8.88 -14.6,10.74 -2.16,1.25 -4.61,1.85 -7.37,1.75 -6.98,-0.1 -10.34,-3.11 -10.14,-8.98 0,-2.16 0.4,-4.82 1.3,-7.93l1.91 -7.22c3.26,-12.39 6.12,-22.18 8.68,-29.45 1.25,-3.71 1.96,-7.02 2.06,-9.88 -0.1,-2.06 -1.1,-3.26 -3.11,-3.66 -2.36,0 -5.57,2.81 -9.68,8.38l-8.98 13.25 -10.59 16.66 -8.38 14.7 -6.62 11.49c-0.9,1.51 -1.66,2.31 -2.36,2.51l-2.96 0.15 -8.93 0c-1.91,0.2 -2.86,-0.7 -2.96,-2.66l0.6 -2.51 4.82 -11.74 7.83 -20.62 5.87 -17.26c0.85,-2.91 1.35,-5.37 1.46,-7.33 -0.1,-3.26 -1.56,-4.92 -4.36,-5.02 -2.96,-0.1 -5.97,2.11 -9.13,6.62l-8.48 12.24 -10.84 17.36c-3.77,6.37 -6.53,11.44 -8.38,15.15l-6.17 12.65c-0.9,1.3 -1.7,2.16 -2.36,2.66 -0.6,0.4 -1.56,0.55 -2.81,0.45l-7.33 0 -1.05 -1.05 0.45 -3.06 0.6 -2.36 15.71 -58.46 0.75 -2.66c0.2,-0.96 0.7,-1.71 1.6,-2.21l2.36 -1.01 8.68 -2.21 2.06 -0.45 1.15 0.6 0.45 1.01 -0.75 3.11 -11.59 38.59 9.38 -14.35 11.14 -15.86c6.47,-8.73 12.39,-13.1 17.76,-13.1 7.63,0 11.49,4.47 11.59,13.35 -0.1,6.77 -1.85,15.6 -5.27,26.44l-3.56 10.89 6.77 -11.44z"/>
  </g>
  <g>
   <path class="fil4" d="M2.41 454.91l2.31 -18.97 5.77 -65.88 2.88 -43.39c11.57,0.13 20.64,0.19 27.24,0.19 5.45,0 13.81,-0.06 25.06,-0.19 0.8,5.39 1.51,9.49 2.05,12.27 0.58,2.79 1.96,8.23 4.17,16.34 2.21,8.11 4,15.12 5.35,21.02 1.35,5.93 3.33,16.05 6.03,30.41 2.76,-9.84 5.25,-18.3 7.5,-25.38 2.24,-7.08 5.07,-15.13 8.43,-24.13 3.36,-9.04 5.51,-14.93 6.44,-17.72 0.9,-2.79 2.12,-7.05 3.69,-12.82 9.42,0.13 18.62,0.19 27.65,0.19 6.15,0 14.68,-0.06 25.6,-0.19 -1.22,21.12 -2.02,39.26 -2.4,54.41 -0.83,29.67 -1.25,50.09 -1.25,61.24 0,2.31 0.06,6.5 0.19,12.59 -8.27,-0.13 -14.07,-0.19 -17.4,-0.19 -4.84,0 -10.77,0.06 -17.79,0.19 0.48,-5.64 1.12,-19.07 1.86,-40.25 0.74,-21.21 1.12,-34.77 1.12,-40.63 0,-2.56 -0.06,-6.15 -0.19,-10.73l-12.27 38.26 -17.63 53.35c-8.14,-0.13 -13.71,-0.19 -16.79,-0.19 -3.88,0 -9.81,0.06 -17.82,0.19l-11.57 -51.69 -6.76 -27.52c-0.22,-1.06 -0.51,-2.37 -0.83,-3.94 -0.32,-1.57 -0.8,-4.33 -1.51,-8.27l-2.34 26.02 -3.04 53.39 -0.29 12.02c-8.65,-0.13 -14.16,-0.19 -16.54,-0.19 -3.27,0 -8.91,0.06 -16.92,0.19zm186.85 -68.64c1.19,-6.15 1.92,-10.38 2.24,-12.72 0.32,-2.31 0.83,-5.96 1.51,-10.93 18.01,-3.97 33.49,-5.96 46.4,-5.96 7.37,0 14.13,0.83 20.25,2.5 6.12,1.64 10.89,4.33 14.32,8.01 3.43,3.69 5.16,8.97 5.16,15.86 0,3.49 -0.48,11.37 -1.41,23.65 -0.93,12.24 -1.63,28.33 -2.11,48.23 -6.15,-0.13 -12.27,-0.19 -18.33,-0.19 -5.9,0 -12.18,0.06 -18.81,0.19 0.87,-6.89 1.79,-21.12 2.85,-42.68 -2.37,1.15 -4.23,1.99 -5.58,2.47 -1.35,0.51 -3.69,1.28 -7.05,2.31 -3.4,1.03 -6.02,1.86 -7.92,2.56 -1.89,0.71 -3.56,1.6 -4.97,2.69 -1.41,1.06 -2.4,2.18 -2.98,3.33 -0.61,1.12 -0.9,2.4 -0.9,3.81 0,2.15 0.87,4.01 2.56,5.55 1.7,1.51 4.39,2.28 8.11,2.28 1.31,0 2.72,-0.1 4.26,-0.32 1.51,-0.22 3.59,-0.74 6.22,-1.6 -1.83,4.74 -4.01,11.67 -6.54,20.76 -5.39,0.9 -10.48,1.35 -15.29,1.35 -7.76,0 -14.23,-1.09 -19.39,-3.24 -5.16,-2.18 -9.13,-5.67 -11.92,-10.48 -2.79,-4.84 -4.16,-9.65 -4.16,-14.48 0,-2.95 0.51,-5.83 1.54,-8.65 1.03,-2.82 2.63,-5.57 4.84,-8.27 2.18,-2.69 4.75,-5 7.66,-6.89 2.95,-1.92 6.96,-3.72 12.02,-5.42 5.09,-1.7 11.54,-3.27 19.36,-4.77 3.24,-0.64 6.22,-1.31 8.94,-2.02 2.69,-0.74 4.64,-1.35 5.8,-1.89 1.15,-0.55 2.08,-1.15 2.79,-1.86 0.74,-0.74 1.25,-1.47 1.54,-2.24 0.32,-0.8 0.48,-1.6 0.48,-2.47 0,-2.4 -1,-4.26 -2.98,-5.55 -1.99,-1.31 -4.93,-1.95 -8.78,-1.95 -10.73,0 -23.97,3.01 -39.73,9.04zm107.38 68.64l2.98 -41.72 0.96 -23.97c0.06,-4.32 0.1,-8.72 0.1,-13.23 0,-4.58 -0.06,-10.25 -0.19,-17.02 7.56,0.13 13.59,0.19 18.01,0.19 5.22,0 11.18,-0.06 17.95,-0.19l-0.42 10.74c2.47,-2.76 4.49,-4.81 6.06,-6.15 1.57,-1.35 3.33,-2.56 5.35,-3.65 2.02,-1.09 4.13,-1.92 6.31,-2.44 2.21,-0.55 4.48,-0.8 6.89,-0.8 2.24,0 4.77,0.32 7.53,0.96 0.06,6.83 0.22,12.44 0.48,16.89l0.67 14.45c-3.46,-1.03 -6.7,-1.54 -9.71,-1.54 -3.78,0 -7.02,0.55 -9.74,1.63 -2.72,1.09 -5.16,2.76 -7.27,5 -2.08,2.21 -3.78,4.97 -5.03,8.3 -1.25,3.3 -2.15,8.55 -2.63,15.76 -0.51,7.18 -0.77,15.41 -0.77,24.68 0,3.27 0.13,7.31 0.39,12.11 -6.09,-0.13 -12.21,-0.19 -18.33,-0.19 -6.09,0 -12.63,0.06 -19.58,0.19zm82.42 0c0.87,-8.01 1.51,-14.51 1.89,-19.55 0.48,-6.83 0.99,-15.38 1.51,-25.64l1.03 -22.27c0.45,-10.09 0.74,-19.74 0.93,-28.94 0.26,-11.02 0.38,-21.63 0.38,-31.85 8.75,0.13 15.32,0.19 19.71,0.19 5.06,0 11.05,-0.06 18.01,-0.19 -1.44,16.41 -2.76,36.79 -3.94,61.17 -1.19,24.36 -1.76,46.72 -1.76,67.07 -7.27,-0.13 -13.39,-0.19 -18.43,-0.19 -5.74,0 -12.18,0.06 -19.32,0.19zm41.34 -53.93l16.18 -23.3 12.14 -18.72c8.65,0.13 15.19,0.19 19.64,0.19 6.15,0 13.43,-0.06 21.82,-0.19l-18.68 24.35c-4.39,5.58 -8.88,11.6 -13.43,18.04 4.39,8.08 14.97,25.93 31.73,53.55 -7.34,-0.13 -13.97,-0.19 -19.87,-0.19 -6.03,0 -12.94,0.06 -20.73,0.19l-5.83 -11.73c-2.08,-4.1 -3.85,-7.5 -5.35,-10.25 -0.58,-1.12 -4.87,-8.81 -12.91,-23.01l-4.71 -8.94zm171.98 25.67c-0.8,3.75 -2.34,12.79 -4.62,27.11 -7.27,1.47 -13.39,2.43 -18.36,2.92 -4.97,0.48 -9.97,0.74 -15.06,0.74 -7.47,0 -14.36,-0.51 -20.61,-1.54 -6.28,-1.03 -11.69,-2.88 -16.25,-5.51 -4.55,-2.6 -8.36,-5.86 -11.44,-9.77 -3.08,-3.91 -5.42,-8.56 -7.02,-13.94 -1.6,-5.38 -2.4,-10.93 -2.4,-16.6 0,-8.01 1.6,-15.86 4.81,-23.52 3.18,-7.66 7.31,-13.65 12.34,-17.94 5.06,-4.33 10.86,-7.4 17.43,-9.2 6.57,-1.83 13.33,-2.72 20.22,-2.72 7.11,0 13.94,0.83 20.41,2.5 6.51,1.64 11.99,4.55 16.5,8.65 4.52,4.13 7.72,8.78 9.64,13.97 1.89,5.19 2.85,10.8 2.85,16.79 0,3.59 -0.38,7.53 -1.15,11.92l-66.04 0.1c-0.06,0.99 -0.1,1.89 -0.1,2.72 0,6.73 2.44,11.7 7.28,14.9 4.84,3.17 10.73,4.77 17.72,4.77 4.14,0 8.88,-0.48 14.2,-1.44 5.29,-0.96 11.86,-2.6 19.64,-4.9zm-58 -30.38l31.09 0c0.06,-1.06 0.1,-1.95 0.1,-2.72 0,-3.24 -0.58,-6.03 -1.73,-8.33 -1.19,-2.31 -2.85,-3.98 -5,-5.03 -2.18,-1.06 -4.61,-1.6 -7.31,-1.6 -1.89,0 -3.68,0.29 -5.45,0.9 -1.76,0.58 -3.36,1.48 -4.77,2.63 -1.41,1.15 -2.6,2.47 -3.52,3.97 -0.93,1.47 -1.64,2.95 -2.08,4.32 -0.42,1.41 -0.87,3.37 -1.32,5.87zm148.72 31.15c-1.12,5.25 -2.12,10.41 -2.92,15.45l-2.08 11.47c-6.22,1.32 -11.05,2.18 -14.52,2.53 -3.49,0.35 -6.86,0.54 -10.12,0.54 -5.32,0 -10.06,-0.45 -14.2,-1.38 -4.13,-0.9 -7.6,-2.56 -10.35,-4.97 -2.76,-2.4 -4.65,-5.19 -5.64,-8.3 -0.99,-3.14 -1.51,-6.47 -1.51,-9.97 0,-0.64 0.03,-1.73 0.1,-3.33 0.06,-1.6 0.29,-5.16 0.64,-10.67l2.05 -32.53 -14.71 0c0.32,-4.33 0.61,-10 0.83,-17.05l0.29 -8.72 15.61 0c0.38,-2.88 0.87,-9.16 1.41,-18.84l16.09 -3.33c2.95,-0.58 9.23,-2.02 18.84,-4.36 -0.45,8.2 -0.77,17.05 -0.93,26.53l21.31 0c-0.51,12.98 -0.74,21.57 -0.74,25.77l-21.53 0 -1.12 23.52c-0.13,3.49 -0.19,5.73 -0.19,6.76 0,3.01 0.32,5.51 0.99,7.53 0.64,1.99 1.83,3.43 3.49,4.33 1.67,0.87 3.49,1.31 5.51,1.31 1.51,0 3.08,-0.1 4.71,-0.32 1.63,-0.22 4.52,-0.87 8.68,-1.99z"/>
   <g id="_1672190989376">
    <path class="fil5" d="M377.81 492.85c3.4,-5.85 6.31,-10.46 8.76,-13.82l6.31 -8.31c4.19,-4.95 7.97,-7.4 11.29,-7.4 2.79,0.08 5.13,1.28 7.02,3.66 1.89,2.34 2.83,4.99 2.83,7.86 -0.08,2.19 -0.34,4.34 -0.8,6.42l-2.98 11.18c-1.89,6.65 -3.29,10.95 -4.08,12.95 -0.61,1.47 -0.87,2.72 -0.87,3.74 -0.07,1.17 0.53,1.85 1.89,2 1.02,0 2.3,-0.57 3.85,-1.66l5.44 -4.23 4 -3.7 2.23 -2.3 1.32 -0.79 1.21 0.79 0.79 1.09c0.15,1.55 -2.46,4.49 -7.74,8.88 -4.68,3.96 -8.35,6.68 -10.99,8.08 -1.62,0.94 -3.47,1.4 -5.55,1.32 -5.25,-0.08 -7.78,-2.34 -7.63,-6.76 0,-1.63 0.3,-3.63 0.98,-5.97l1.43 -5.44c2.45,-9.33 4.61,-16.69 6.53,-22.17 0.94,-2.79 1.47,-5.29 1.55,-7.44 -0.08,-1.55 -0.83,-2.46 -2.34,-2.76 -1.78,0 -4.19,2.12 -7.29,6.31l-6.76 9.97 -7.97 12.54 -6.3 11.06 -4.98 8.65c-0.68,1.13 -1.25,1.74 -1.78,1.89l-2.23 0.11 -6.72 0c-1.44,0.15 -2.15,-0.53 -2.23,-2l0.45 -1.89 3.63 -8.84 5.89 -15.52 4.42 -12.99c0.64,-2.19 1.02,-4.04 1.09,-5.52 -0.08,-2.45 -1.17,-3.7 -3.29,-3.78 -2.23,-0.08 -4.49,1.59 -6.87,4.99l-6.38 9.21 -8.16 13.07c-2.83,4.8 -4.91,8.61 -6.3,11.4l-4.64 9.52c-0.68,0.98 -1.28,1.62 -1.78,2 -0.45,0.3 -1.17,0.42 -2.11,0.34l-5.52 0 -0.79 -0.79 0.34 -2.3 0.45 -1.78 11.82 -43.99 0.57 -2c0.15,-0.72 0.53,-1.28 1.21,-1.66l1.77 -0.76 6.53 -1.66 1.55 -0.34 0.87 0.45 0.34 0.75 -0.56 2.34 -8.72 29.04 7.06 -10.8 8.38 -11.93c4.87,-6.57 9.33,-9.86 13.37,-9.86 5.74,0 8.65,3.36 8.72,10.04 -0.08,5.1 -1.4,11.74 -3.96,19.9l-2.68 8.19 5.1 -8.61zm75.83 -28.96l2.3 -0.57c1.13,0.3 1.66,0.98 1.66,2.11l-0.34 1.66 -11.07 33.72 -1.32 4.68 -0.34 2.53c0.22,2.23 1.06,3.25 2.45,3.1l0.87 -0.12c0.83,-0.38 1.7,-0.98 2.68,-1.77l5.29 -5.14 4.12 -4.57 2.19 -2.68 1.21 -0.91 1.32 0.68 0.79 1.21c0,0.45 -0.26,0.98 -0.79,1.55 -2.19,2.68 -4.57,5.29 -7.06,7.89 -3.02,3.17 -5.81,5.78 -8.42,7.78 -2.95,2.45 -5.89,3.62 -8.84,3.55 -4.95,0 -7.52,-2.61 -7.74,-7.85 -0.08,-2.34 0.34,-5.06 1.21,-8.08l3.1 -10.61 6.98 -22.66c0.3,-1.02 0.76,-1.89 1.44,-2.53 0.68,-0.6 1.55,-1.1 2.64,-1.44l5.66 -1.55zm7.86 -33.42c5.21,0.23 7.97,3.06 8.27,8.5 -0.22,5.36 -2.98,8.12 -8.27,8.27 -5.51,-0.23 -8.35,-2.98 -8.5,-8.27 0.22,-5.36 3.06,-8.19 8.5,-8.5zm28.77 58.23l6.19 -10.65c5.66,-9.74 10.72,-14.65 15.14,-14.73 4.19,0.23 6.23,4.15 6.08,11.82l-0.22 4.99c-0.15,1.7 -0.42,2.94 -0.76,3.78l-1.13 1.32 -2.08 1.66 -5.21 3.21c-0.95,0.64 -1.66,0.94 -2.12,0.87l-0.75 -0.57 -0.11 -0.42 0.11 -0.68 0.75 -2.23 1.55 -4.42c0.6,-1.7 0.95,-3.21 1.02,-4.46l0 -1.32 -0.11 -0.91 -0.57 -0.98 -0.98 -0.34 -1.09 0.34c-3.17,2.42 -7.59,8.69 -13.26,18.73 -3.85,6.72 -6.57,12.16 -8.19,16.31l-2.23 5.32 -0.56 0.98c-0.42,0.53 -0.87,0.76 -1.32,0.68l-1.96 0 -4.23 0 -1.89 -0.23 -0.64 -0.45 -0.22 -0.75 0.22 -1.21 2.42 -8.01 4.12 -14.8 2.98 -13.41 1.21 -6.76c0.08,-1.32 0.3,-2.27 0.68,-2.76 0.19,-0.53 0.76,-0.98 1.66,-1.36l2.42 -0.98 5.32 -2 2.76 -0.98 0.98 0.98 -0.42 1.66 -1.55 4.12 -3.89 11.85 -3.89 12.84 3.78 -6.08zm50.11 0l6.19 -10.65c5.66,-9.74 10.72,-14.65 15.14,-14.73 4.19,0.23 6.23,4.15 6.08,11.82l-0.22 4.99c-0.15,1.7 -0.42,2.94 -0.76,3.78l-1.13 1.32 -2.08 1.66 -5.21 3.21c-0.95,0.64 -1.66,0.94 -2.12,0.87l-0.75 -0.57 -0.11 -0.42 0.11 -0.68 0.75 -2.23 1.55 -4.42c0.61,-1.7 0.95,-3.21 1.02,-4.46l0 -1.32 -0.11 -0.91 -0.57 -0.98 -0.98 -0.34 -1.1 0.34c-3.17,2.42 -7.59,8.69 -13.26,18.73 -3.85,6.72 -6.57,12.16 -8.19,16.31l-2.23 5.32 -0.56 0.98c-0.42,0.53 -0.87,0.76 -1.32,0.68l-1.96 0 -4.23 0 -1.89 -0.23 -0.64 -0.45 -0.22 -0.75 0.22 -1.21 2.42 -8.01 4.12 -14.8 2.98 -13.41 1.21 -6.76c0.08,-1.32 0.3,-2.27 0.68,-2.76 0.19,-0.53 0.76,-0.98 1.66,-1.36l2.42 -0.98 5.32 -2 2.76 -0.98 0.98 0.98 -0.42 1.66 -1.55 4.12 -3.89 11.85 -3.89 12.84 3.78 -6.08zm30.63 13.67c-0.08,-9.1 4.04,-17.79 12.38,-26.09 8.69,-8.72 17.3,-13.03 25.76,-12.95 4.94,0.08 8.84,1.59 11.7,4.53 3.4,3.4 5.06,7.25 4.99,11.59 0,6.95 -2.42,13.93 -7.29,21.03 -4.42,6.5 -9.97,11.4 -16.58,14.8 -4.42,2.3 -8.95,3.4 -13.6,3.32 -4.8,0 -8.91,-1.51 -12.35,-4.49 -3.44,-2.98 -5.1,-6.91 -5.02,-11.74zm11.55 3.89c0,1.47 0.3,2.87 0.91,4.19l1.21 1.85 1.66 1.1c0.64,0.38 1.43,0.53 2.34,0.45 9.06,0.08 16.81,-8.72 23.15,-26.4 1.62,-4.57 2.45,-8.5 2.45,-11.78 0,-4.68 -2.49,-7.21 -7.44,-7.59 -5.7,0 -11.44,5.17 -17.3,15.52 -4.72,8.27 -7.06,15.82 -6.99,22.66zm70.54 -17.56l6.19 -10.65c5.66,-9.74 10.72,-14.65 15.14,-14.73 4.19,0.23 6.23,4.15 6.08,11.82l-0.22 4.99c-0.15,1.7 -0.42,2.94 -0.75,3.78l-1.13 1.32 -2.08 1.66 -5.21 3.21c-0.95,0.64 -1.66,0.94 -2.12,0.87l-0.75 -0.57 -0.11 -0.42 0.11 -0.68 0.75 -2.23 1.55 -4.42c0.61,-1.7 0.95,-3.21 1.02,-4.46l0 -1.32 -0.11 -0.91 -0.57 -0.98 -0.98 -0.34 -1.1 0.34c-3.17,2.42 -7.59,8.69 -13.26,18.73 -3.85,6.72 -6.57,12.16 -8.19,16.31l-2.23 5.32 -0.56 0.98c-0.42,0.53 -0.87,0.76 -1.32,0.68l-1.96 0 -4.23 0 -1.89 -0.23 -0.64 -0.45 -0.23 -0.75 0.23 -1.21 2.42 -8.01 4.12 -14.8 2.98 -13.41 1.21 -6.76c0.08,-1.32 0.3,-2.27 0.68,-2.76 0.19,-0.53 0.75,-0.98 1.66,-1.36l2.42 -0.98 5.32 -2 2.76 -0.98 0.98 0.98 -0.42 1.66 -1.55 4.12 -3.89 11.85 -3.89 12.84 3.78 -6.08z"/>
    <g>
     <path class="fil6" d="M166.4 511.7c-0.89,1.04 -1.64,1.57 -1.96,2.31 -0.67,1.53 0.1,6.25 2.66,5.09 0.57,-0.27 3.85,-4.76 5.5,-6.68 3.03,-3.53 7.9,-9.67 14.51,-15.29 7.05,-5.99 16.1,-11.39 27.05,-12.39 16.35,-1.49 30.26,8.19 44.16,17.98 14.56,10.26 29.13,20.64 46.51,18.43 3.99,-0.51 15.11,-3.51 23.3,-12.4 4.28,-4.64 2.51,-2.58 3.53,-5.18 1.15,-2.9 1.17,-5.65 -1.95,-2.86 -5.37,4.79 -10.05,8.43 -14.69,10.79 -8.87,4.51 -17.6,4.37 -30.83,-1.37 -11.69,-5.07 -22.86,-13.73 -34.1,-20.8 -11.93,-7.5 -23.95,-13.22 -36.81,-10.99 -9.9,1.72 -18.53,6.43 -26.37,12.69 -7.4,5.91 -14.11,13.21 -20.52,20.67z"/>
     <path class="fil6" d="M165.98 510.46c0.89,1.04 1.64,1.58 1.96,2.31 0.67,1.53 -0.1,6.25 -2.66,5.09 -0.56,-0.27 -3.85,-4.76 -5.5,-6.68 -3.03,-3.53 -7.9,-9.67 -14.51,-15.29 -7.06,-5.99 -16.11,-11.39 -27.05,-12.39 -16.35,-1.49 -30.26,8.19 -44.16,17.98 -14.56,10.26 -29.13,20.64 -46.51,18.43 -3.99,-0.51 -15.11,-3.51 -23.3,-12.4 -4.28,-4.64 -2.51,-2.58 -3.53,-5.18 -1.15,-2.9 -1.17,-5.65 1.95,-2.86 5.37,4.79 10.05,8.43 14.68,10.79 8.87,4.51 17.6,4.37 30.83,-1.37 11.69,-5.07 22.86,-13.73 34.1,-20.8 11.92,-7.5 23.95,-13.22 36.81,-10.99 9.9,1.72 18.53,6.43 26.37,12.69 7.4,5.91 14.11,13.21 20.52,20.67z"/>
    </g>
    <path class="fil7" d="M461.35 428.75c6.1,0 11.04,4.94 11.04,11.04 0,6.1 -4.94,11.04 -11.04,11.04 -6.1,0 -11.04,-4.94 -11.04,-11.04 0,-6.1 4.94,-11.04 11.04,-11.04z"/>
   </g>
  </g>
  <path class="fil4" d="M21.31 612.84l0 -16.22 -14.75 -22.06 6.09 0 7.57 11.58c1.41,2.15 2.72,4.29 3.91,6.44 1.17,-2 2.58,-4.25 4.23,-6.74l7.41 -11.28 5.91 0 -15.29 22.06 0 16.22 -5.08 0zm17.61 -13.87c0,-5.12 1.43,-8.92 4.29,-11.39 2.38,-2.05 5.29,-3.07 8.72,-3.07 3.8,0 6.92,1.25 9.35,3.74 2.41,2.48 3.63,5.93 3.63,10.32 0,3.56 -0.54,6.36 -1.61,8.4 -1.07,2.04 -2.63,3.63 -4.68,4.76 -2.04,1.13 -4.28,1.69 -6.69,1.69 -3.89,0 -7.02,-1.24 -9.42,-3.72 -2.4,-2.49 -3.59,-6.07 -3.59,-10.74zm4.81 0.01c0,3.55 0.77,6.2 2.33,7.95 1.56,1.76 3.51,2.65 5.87,2.65 2.33,0 4.28,-0.88 5.84,-2.65 1.55,-1.77 2.33,-4.47 2.33,-8.1 0,-3.42 -0.79,-6.01 -2.34,-7.77 -1.56,-1.76 -3.5,-2.65 -5.82,-2.65 -2.36,0 -4.31,0.87 -5.87,2.63 -1.55,1.75 -2.33,4.4 -2.33,7.94zm44.81 13.86l0 -4.12c-2.16,3.14 -5.08,4.71 -8.78,4.71 -1.63,0 -3.15,-0.31 -4.57,-0.94 -1.42,-0.63 -2.47,-1.42 -3.15,-2.36 -0.69,-0.95 -1.17,-2.11 -1.44,-3.48 -0.19,-0.93 -0.29,-2.39 -0.29,-4.38l0 -17.17 4.7 0 0 15.35c0,2.45 0.1,4.11 0.29,4.95 0.3,1.24 0.92,2.2 1.88,2.91 0.95,0.7 2.13,1.06 3.54,1.06 1.41,0 2.73,-0.36 3.96,-1.08 1.23,-0.72 2.1,-1.71 2.62,-2.95 0.51,-1.24 0.77,-3.05 0.77,-5.41l0 -14.84 4.7 0 0 27.75 -4.22 0zm11.55 0l0 -27.75 4.22 0 0 4.25c1.08,-1.97 2.08,-3.27 2.99,-3.89 0.92,-0.63 1.92,-0.95 3.02,-0.95 1.59,0 3.2,0.5 4.84,1.49l-1.68 4.34c-1.14,-0.64 -2.28,-0.96 -3.42,-0.96 -1.02,0 -1.94,0.31 -2.75,0.93 -0.81,0.61 -1.39,1.47 -1.74,2.57 -0.53,1.67 -0.79,3.49 -0.79,5.48l0 14.5 -4.7 0zm42.07 0l0 -33.79 -12.61 0 0 -4.49 30.31 0 0 4.49 -12.62 0 0 33.79 -5.08 0zm20.3 0l0 -27.75 4.22 0 0 4.25c1.08,-1.97 2.08,-3.27 2.99,-3.89 0.92,-0.63 1.92,-0.95 3.02,-0.95 1.59,0 3.2,0.5 4.84,1.49l-1.68 4.34c-1.14,-0.64 -2.28,-0.96 -3.42,-0.96 -1.02,0 -1.94,0.31 -2.75,0.93 -0.81,0.61 -1.39,1.47 -1.74,2.57 -0.53,1.67 -0.79,3.49 -0.79,5.48l0 14.5 -4.7 0zm35.98 0l0 -4.12c-2.16,3.14 -5.08,4.71 -8.78,4.71 -1.63,0 -3.15,-0.31 -4.57,-0.94 -1.41,-0.63 -2.47,-1.42 -3.15,-2.36 -0.68,-0.95 -1.17,-2.11 -1.44,-3.48 -0.19,-0.93 -0.29,-2.39 -0.29,-4.38l0 -17.17 4.7 0 0 15.35c0,2.45 0.1,4.11 0.29,4.95 0.29,1.24 0.92,2.2 1.88,2.91 0.95,0.7 2.13,1.06 3.54,1.06 1.41,0 2.73,-0.36 3.96,-1.08 1.23,-0.72 2.1,-1.71 2.62,-2.95 0.51,-1.24 0.77,-3.05 0.77,-5.41l0 -14.84 4.7 0 0 27.75 -4.22 0zm30.53 -8.98l4.87 0.64c-0.76,2.82 -2.18,5.02 -4.24,6.58 -2.07,1.56 -4.7,2.34 -7.92,2.34 -4.05,0 -7.25,-1.25 -9.62,-3.74 -2.37,-2.49 -3.55,-5.99 -3.55,-10.49 0,-4.65 1.19,-8.27 3.59,-10.83 2.4,-2.58 5.5,-3.86 9.33,-3.86 3.7,0 6.72,1.26 9.06,3.78 2.34,2.52 3.52,6.07 3.52,10.64 0,0.28 -0.01,0.7 -0.03,1.25l-20.66 0c0.18,3.04 1.03,5.37 2.58,6.99 1.54,1.61 3.47,2.42 5.78,2.42 1.72,0 3.19,-0.45 4.4,-1.36 1.22,-0.91 2.18,-2.36 2.89,-4.36zm-15.4 -7.54l15.45 0c-0.2,-2.33 -0.8,-4.08 -1.77,-5.25 -1.49,-1.81 -3.43,-2.72 -5.81,-2.72 -2.16,0 -3.96,0.72 -5.44,2.17 -1.46,1.44 -2.27,3.38 -2.43,5.8zm41.54 16.52l0 -38.28 7.59 0 9.05 27.09c0.84,2.52 1.44,4.41 1.83,5.67 0.44,-1.39 1.12,-3.44 2.05,-6.14l9.21 -26.62 6.78 0 0 38.28 -4.86 0 0 -32.02 -11.17 32.02 -4.56 0 -11.05 -32.61 0 32.61 -4.86 0zm62.17 -3.47c-1.75,1.49 -3.43,2.53 -5.04,3.14 -1.61,0.61 -3.34,0.92 -5.19,0.92 -3.05,0 -5.39,-0.74 -7.03,-2.23 -1.64,-1.48 -2.46,-3.38 -2.46,-5.68 0,-1.36 0.31,-2.59 0.93,-3.72 0.62,-1.12 1.44,-2.01 2.43,-2.69 1.01,-0.68 2.13,-1.19 3.38,-1.54 0.93,-0.24 2.33,-0.47 4.19,-0.71 3.79,-0.45 6.6,-0.99 8.39,-1.61 0.02,-0.64 0.02,-1.05 0.02,-1.22 0,-1.91 -0.44,-3.25 -1.33,-4.04 -1.2,-1.06 -2.99,-1.59 -5.37,-1.59 -2.22,0 -3.86,0.39 -4.91,1.17 -1.06,0.77 -1.84,2.15 -2.34,4.13l-4.6 -0.64c0.42,-1.97 1.11,-3.56 2.07,-4.77 0.96,-1.21 2.35,-2.14 4.17,-2.8 1.81,-0.65 3.92,-0.98 6.31,-0.98 2.37,0 4.3,0.28 5.79,0.84 1.48,0.56 2.57,1.25 3.27,2.1 0.69,0.85 1.19,1.92 1.47,3.21 0.15,0.8 0.23,2.25 0.23,4.32l0 6.24c0,4.36 0.1,7.11 0.29,8.28 0.19,1.17 0.58,2.28 1.15,3.35l-4.92 0c-0.47,-0.99 -0.77,-2.15 -0.91,-3.47zm-0.38 -10.42c-1.71,0.69 -4.28,1.28 -7.7,1.76 -1.94,0.27 -3.31,0.59 -4.12,0.93 -0.8,0.35 -1.42,0.86 -1.85,1.52 -0.43,0.67 -0.66,1.41 -0.66,2.23 0,1.24 0.47,2.28 1.43,3.11 0.95,0.83 2.34,1.25 4.17,1.25 1.81,0 3.42,-0.39 4.84,-1.19 1.41,-0.78 2.45,-1.86 3.11,-3.22 0.51,-1.06 0.76,-2.62 0.76,-4.68l0.02 -1.71zm11.93 13.9l0 -27.75 4.22 0 0 4.25c1.08,-1.97 2.08,-3.27 2.99,-3.89 0.92,-0.63 1.92,-0.95 3.02,-0.95 1.59,0 3.2,0.5 4.84,1.49l-1.68 4.34c-1.14,-0.64 -2.28,-0.96 -3.42,-0.96 -1.02,0 -1.94,0.31 -2.75,0.93 -0.81,0.61 -1.39,1.47 -1.74,2.57 -0.52,1.67 -0.79,3.49 -0.79,5.48l0 14.5 -4.7 0zm17.88 0l0 -38.28 4.7 0 0 21.8 11.12 -11.27 6.08 0 -10.59 10.31 11.66 17.44 -5.79 0 -9.21 -14.18 -3.26 3.17 0 11 -4.7 0zm45.63 -8.98l4.87 0.64c-0.76,2.82 -2.18,5.02 -4.24,6.58 -2.07,1.56 -4.7,2.34 -7.92,2.34 -4.05,0 -7.25,-1.25 -9.62,-3.74 -2.37,-2.49 -3.55,-5.99 -3.55,-10.49 0,-4.65 1.19,-8.27 3.59,-10.83 2.4,-2.58 5.5,-3.86 9.33,-3.86 3.7,0 6.72,1.26 9.06,3.78 2.34,2.52 3.52,6.07 3.52,10.64 0,0.28 -0.01,0.7 -0.03,1.25l-20.66 0c0.18,3.04 1.03,5.37 2.58,6.99 1.54,1.61 3.47,2.42 5.78,2.42 1.72,0 3.19,-0.45 4.4,-1.36 1.22,-0.91 2.18,-2.36 2.89,-4.36zm-15.4 -7.54l15.45 0c-0.21,-2.33 -0.8,-4.08 -1.77,-5.25 -1.49,-1.81 -3.43,-2.72 -5.81,-2.72 -2.16,0 -3.96,0.72 -5.43,2.17 -1.46,1.44 -2.27,3.38 -2.43,5.8zm36.42 12.32l0.64 4.15c-1.32,0.28 -2.5,0.42 -3.54,0.42 -1.7,0 -3.02,-0.27 -3.97,-0.81 -0.94,-0.54 -1.59,-1.25 -1.98,-2.13 -0.38,-0.88 -0.57,-2.74 -0.57,-5.56l0 -15.98 -3.47 0 0 -3.64 3.47 0 0 -6.86 4.7 -2.82 0 9.68 4.7 0 0 3.64 -4.7 0 0 16.25c0,1.35 0.08,2.21 0.25,2.59 0.16,0.38 0.43,0.69 0.8,0.92 0.37,0.22 0.91,0.34 1.6,0.34 0.52,0 1.2,-0.06 2.05,-0.19zm4.64 -28.73l0 -5.34 4.7 0 0 5.34 -4.7 0zm0 32.93l0 -27.75 4.7 0 0 27.75 -4.7 0zm11.88 0l0 -27.75 4.22 0 0 3.94c2.03,-3.02 4.97,-4.53 8.81,-4.53 1.67,0 3.21,0.3 4.6,0.9 1.4,0.6 2.45,1.39 3.15,2.36 0.69,0.97 1.19,2.13 1.46,3.47 0.17,0.87 0.26,2.4 0.26,4.57l0 17.03 -4.7 0 0 -16.86c0,-1.92 -0.18,-3.35 -0.55,-4.29 -0.37,-0.95 -1.01,-1.7 -1.94,-2.27 -0.93,-0.56 -2.02,-0.85 -3.27,-0.85 -2,0 -3.71,0.63 -5.17,1.91 -1.45,1.27 -2.17,3.68 -2.17,7.23l0 15.14 -4.7 0zm28.87 2.3l4.54 0.64c0.19,1.41 0.72,2.43 1.6,3.08 1.17,0.87 2.76,1.3 4.78,1.3 2.17,0 3.86,-0.44 5.04,-1.3 1.19,-0.86 1.99,-2.08 2.41,-3.64 0.24,-0.95 0.36,-2.96 0.34,-6.01 -2.06,2.42 -4.61,3.63 -7.68,3.63 -3.81,0 -6.77,-1.37 -8.86,-4.12 -2.09,-2.75 -3.14,-6.04 -3.14,-9.88 0,-2.65 0.48,-5.09 1.44,-7.33 0.95,-2.24 2.34,-3.95 4.16,-5.17 1.81,-1.22 3.95,-1.83 6.42,-1.83 3.27,0 5.97,1.34 8.09,4.01l0 -3.42 4.33 0 0 23.96c0,4.32 -0.44,7.38 -1.32,9.18 -0.87,1.8 -2.27,3.23 -4.17,4.27 -1.91,1.04 -4.25,1.57 -7.03,1.57 -3.3,0 -5.97,-0.74 -8,-2.23 -2.04,-1.48 -3.02,-3.71 -2.95,-6.7zm3.85 -16.65c0,3.63 0.72,6.27 2.17,7.94 1.45,1.67 3.26,2.5 5.44,2.5 2.17,0 3.97,-0.83 5.44,-2.49 1.46,-1.66 2.19,-4.26 2.19,-7.81 0,-3.39 -0.76,-5.94 -2.26,-7.66 -1.51,-1.72 -3.32,-2.57 -5.44,-2.57 -2.09,0 -3.87,0.85 -5.34,2.54 -1.46,1.69 -2.19,4.2 -2.19,7.55zm42.19 14.35l0 -38.28 14.45 0c2.54,0 4.48,0.12 5.83,0.37 1.88,0.31 3.46,0.91 4.73,1.78 1.27,0.88 2.3,2.11 3.07,3.69 0.78,1.58 1.16,3.31 1.16,5.21 0,3.24 -1.03,6 -3.11,8.24 -2.07,2.26 -5.82,3.38 -11.24,3.38l-9.82 0 0 15.61 -5.08 0zm5.08 -20.1l9.89 0c3.28,0 5.6,-0.61 6.98,-1.83 1.37,-1.22 2.06,-2.93 2.06,-5.15 0,-1.6 -0.4,-2.97 -1.21,-4.11 -0.81,-1.14 -1.88,-1.9 -3.2,-2.26 -0.86,-0.22 -2.43,-0.34 -4.72,-0.34l-9.79 0 0 13.68zm48.11 16.63c-1.75,1.49 -3.43,2.53 -5.04,3.14 -1.61,0.61 -3.34,0.92 -5.19,0.92 -3.05,0 -5.39,-0.74 -7.03,-2.23 -1.64,-1.48 -2.46,-3.38 -2.46,-5.68 0,-1.36 0.31,-2.59 0.93,-3.72 0.62,-1.12 1.44,-2.01 2.43,-2.69 1.01,-0.68 2.13,-1.19 3.38,-1.54 0.93,-0.24 2.33,-0.47 4.19,-0.71 3.79,-0.45 6.6,-0.99 8.39,-1.61 0.02,-0.64 0.03,-1.05 0.03,-1.22 0,-1.91 -0.45,-3.25 -1.34,-4.04 -1.2,-1.06 -2.99,-1.59 -5.36,-1.59 -2.22,0 -3.86,0.39 -4.91,1.17 -1.06,0.77 -1.84,2.15 -2.34,4.13l-4.6 -0.64c0.42,-1.97 1.11,-3.56 2.07,-4.77 0.96,-1.21 2.35,-2.14 4.17,-2.8 1.81,-0.65 3.92,-0.98 6.31,-0.98 2.37,0 4.3,0.28 5.79,0.84 1.48,0.56 2.57,1.25 3.27,2.1 0.7,0.85 1.19,1.92 1.47,3.21 0.15,0.8 0.23,2.25 0.23,4.32l0 6.24c0,4.36 0.1,7.11 0.29,8.28 0.19,1.17 0.58,2.28 1.15,3.35l-4.92 0c-0.47,-0.99 -0.78,-2.15 -0.91,-3.47zm-0.37 -10.42c-1.71,0.69 -4.28,1.28 -7.7,1.76 -1.94,0.27 -3.31,0.59 -4.12,0.93 -0.8,0.35 -1.41,0.86 -1.85,1.52 -0.44,0.67 -0.66,1.41 -0.66,2.23 0,1.24 0.47,2.28 1.43,3.11 0.95,0.83 2.34,1.25 4.17,1.25 1.81,0 3.42,-0.39 4.84,-1.19 1.41,-0.78 2.45,-1.86 3.11,-3.22 0.51,-1.06 0.76,-2.62 0.76,-4.68l0.03 -1.71zm11.93 13.9l0 -27.75 4.22 0 0 4.25c1.08,-1.97 2.08,-3.27 2.99,-3.89 0.92,-0.63 1.92,-0.95 3.02,-0.95 1.59,0 3.2,0.5 4.84,1.49l-1.68 4.34c-1.14,-0.64 -2.28,-0.96 -3.42,-0.96 -1.02,0 -1.94,0.31 -2.75,0.93 -0.81,0.61 -1.39,1.47 -1.74,2.57 -0.53,1.67 -0.79,3.49 -0.79,5.48l0 14.5 -4.7 0zm28.07 -4.2l0.64 4.15c-1.32,0.28 -2.5,0.42 -3.54,0.42 -1.7,0 -3.02,-0.27 -3.97,-0.81 -0.94,-0.54 -1.59,-1.25 -1.98,-2.13 -0.38,-0.88 -0.57,-2.74 -0.57,-5.56l0 -15.98 -3.47 0 0 -3.64 3.47 0 0 -6.86 4.7 -2.82 0 9.68 4.7 0 0 3.64 -4.7 0 0 16.25c0,1.35 0.08,2.21 0.25,2.59 0.16,0.38 0.43,0.69 0.8,0.92 0.37,0.22 0.91,0.34 1.6,0.34 0.52,0 1.2,-0.06 2.05,-0.19zm4.64 4.2l0 -27.75 4.22 0 0 3.94c2.03,-3.02 4.97,-4.53 8.81,-4.53 1.67,0 3.21,0.3 4.6,0.9 1.4,0.6 2.45,1.39 3.15,2.36 0.69,0.97 1.19,2.13 1.46,3.47 0.17,0.87 0.26,2.4 0.26,4.57l0 17.03 -4.7 0 0 -16.86c0,-1.92 -0.18,-3.35 -0.55,-4.29 -0.36,-0.95 -1.01,-1.7 -1.94,-2.27 -0.93,-0.56 -2.02,-0.85 -3.27,-0.85 -2,0 -3.71,0.63 -5.17,1.91 -1.45,1.27 -2.17,3.68 -2.17,7.23l0 15.14 -4.7 0zm48.66 -8.98l4.87 0.64c-0.76,2.82 -2.18,5.02 -4.24,6.58 -2.07,1.56 -4.7,2.34 -7.92,2.34 -4.05,0 -7.25,-1.25 -9.62,-3.74 -2.37,-2.49 -3.55,-5.99 -3.55,-10.49 0,-4.65 1.19,-8.27 3.59,-10.83 2.4,-2.58 5.5,-3.86 9.33,-3.86 3.7,0 6.72,1.26 9.06,3.78 2.34,2.52 3.52,6.07 3.52,10.64 0,0.28 -0.01,0.7 -0.03,1.25l-20.66 0c0.18,3.04 1.03,5.37 2.58,6.99 1.54,1.61 3.47,2.42 5.78,2.42 1.72,0 3.19,-0.45 4.4,-1.36 1.22,-0.91 2.18,-2.36 2.89,-4.36zm-15.4 -7.54l15.45 0c-0.2,-2.33 -0.8,-4.08 -1.77,-5.25 -1.49,-1.81 -3.43,-2.72 -5.81,-2.72 -2.16,0 -3.96,0.72 -5.44,2.17 -1.46,1.44 -2.27,3.38 -2.43,5.8zm26.15 16.52l0 -27.75 4.22 0 0 4.25c1.08,-1.97 2.08,-3.27 2.99,-3.89 0.92,-0.63 1.92,-0.95 3.02,-0.95 1.59,0 3.2,0.5 4.84,1.49l-1.68 4.34c-1.14,-0.64 -2.28,-0.96 -3.42,-0.96 -1.02,0 -1.94,0.31 -2.75,0.93 -0.81,0.61 -1.39,1.47 -1.74,2.57 -0.52,1.67 -0.79,3.49 -0.79,5.48l0 14.5 -4.7 0z"/>
 </g>
</svg>
