<?xml version="1.0" encoding="UTF-8"?>
<!DOCTYPE svg PUBLIC "-//W3C//DTD SVG 1.1//EN" "http://www.w3.org/Graphics/SVG/1.1/DTD/svg11.dtd">
<!-- Creator: CorelDRAW 2021 (64-Bit) -->
<svg xmlns="http://www.w3.org/2000/svg" xml:space="preserve" width="1.70667in" height="1.70667in" version="1.1" style="shape-rendering:geometricPrecision; text-rendering:geometricPrecision; image-rendering:optimizeQuality; fill-rule:evenodd; clip-rule:evenodd" viewBox="0 0 2178.56 2178.56" xmlns:xlink="http://www.w3.org/1999/xlink" xmlns:xodm="http://www.corel.com/coreldraw/odm/2003">
    <defs>
        <style type="text/css">
            <![CDATA[
    .fil0 {fill:#0269CA}
    .fil1 {fill:white;fill-rule:nonzero}
   ]]>
        </style>
    </defs>
    <g id="Layer_x0020_1">
        <metadata id="CorelCorpID_0Corel-Layer" />
        <rect class="fil0" x="-0" y="-0" width="2178.56" height="2178.56" rx="1089.28" ry="1089.28" />
        <path class="fil1" d="M1117.48 1116.26c48.91,-84.17 90.72,-150.46 126.03,-198.81l90.77 -119.54c60.31,-71.18 114.64,-106.49 162.42,-106.49 40.21,1.08 73.92,18.45 101.09,52.73 27.16,33.66 40.72,71.7 40.72,112.99 -1.09,31.5 -4.9,62.48 -11.39,92.37l-42.94 160.77c-27.16,95.67 -47.27,157.58 -58.66,186.39 -8.71,21.18 -12.52,39.12 -12.52,53.76 -1.09,16.86 7.63,26.65 27.16,28.82 14.69,0 33.14,-8.15 55.41,-23.92l78.25 -60.82 57.57 -53.25 32.06 -33.15 19.02 -11.44 17.37 11.44 11.44 15.73c2.17,22.27 -35.31,64.69 -111.39,127.68 -67.37,57.06 -120.05,96.19 -158.09,116.29 -23.35,13.55 -50,20.1 -79.85,19.02 -75.51,-1.09 -111.96,-33.71 -109.79,-97.27 0,-23.35 4.38,-52.17 14.17,-85.82l20.62 -78.25c35.31,-134.17 66.29,-240.15 93.97,-318.91 13.61,-40.21 21.24,-76.08 22.32,-107.01 -1.08,-22.32 -11.96,-35.37 -33.71,-39.69 -25.51,0 -60.31,30.41 -104.84,90.72l-97.27 143.45 -114.63 180.36 -90.72 159.17 -71.7 124.43c-9.79,16.29 -17.94,25 -25.57,27.16l-32.01 1.65 -96.75 0c-20.62,2.16 -30.93,-7.63 -32.01,-28.82l6.5 -27.16 52.17 -127.11 84.74 -223.3 63.55 -186.91c9.28,-31.5 14.69,-58.15 15.78,-79.33 -1.09,-35.31 -16.86,-53.25 -47.27,-54.33 -32.06,-1.08 -64.64,22.84 -98.86,71.7l-91.8 132.58 -117.37 187.99c-40.77,69.02 -70.62,123.87 -90.72,164.07l-66.86 136.91c-9.74,14.12 -18.45,23.35 -25.51,28.81 -6.54,4.33 -16.86,5.98 -30.41,4.9l-79.33 0 -11.44 -11.44 4.89 -33.14 6.55 -25.52 170.05 -632.93 8.14 -28.81c2.17,-10.31 7.58,-18.45 17.37,-23.87l25.57 -10.88 93.97 -23.92 22.27 -4.89 12.52 6.55 4.84 10.83 -8.14 33.71 -125.46 417.78 101.6 -155.36 120.57 -171.7c70.1,-94.54 134.22,-141.8 192.37,-141.8 82.58,0 124.38,48.35 125.46,144.54 -1.09,73.35 -20.11,168.97 -57.01,286.29l-38.61 117.94 73.35 -123.92z" />
    </g>
</svg>