<?xml version="1.0" encoding="UTF-8"?>
<!DOCTYPE svg PUBLIC "-//W3C//DTD SVG 1.1//EN" "http://www.w3.org/Graphics/SVG/1.1/DTD/svg11.dtd">
<!-- Creator: CorelDRAW 2021 (64-Bit) -->
<svg xmlns="http://www.w3.org/2000/svg" xml:space="preserve" width="2.52838in" height="0.701579in" version="1.1" style="shape-rendering:geometricPrecision; text-rendering:geometricPrecision; image-rendering:optimizeQuality; fill-rule:evenodd; clip-rule:evenodd"
viewBox="0 0 2030.74 563.49"
 xmlns:xlink="http://www.w3.org/1999/xlink"
 xmlns:xodm="http://www.corel.com/coreldraw/odm/2003">
 <defs>
  <style type="text/css">
   <![CDATA[
    .str0 {stroke:white;stroke-width:33.46;stroke-linecap:round;stroke-linejoin:round;stroke-miterlimit:2.61313}
    .fil3 {fill:none}
    .fil7 {fill:#00CCFF}
    .fil4 {fill:#0269CA}
    .fil5 {fill:white}
    .fil0 {fill:#00CCFF;fill-rule:nonzero}
    .fil6 {fill:#0269CA;fill-rule:nonzero}
    .fil2 {fill:white;fill-rule:nonzero}
    .fil1 {fill:#00CCFF;fill-rule:nonzero}
   ]]>
  </style>
 </defs>
 <g id="Layer_x0020_1">
  <metadata id="CorelCorpID_0Corel-Layer"/>
  <path class="fil0" d="M1339.68 478.74c7.69,-13.24 14.26,-23.66 19.82,-31.26l14.26 -18.8c9.48,-11.19 18.02,-16.74 25.54,-16.74 6.33,0.16 11.62,2.9 15.89,8.28 4.27,5.3 6.41,11.28 6.41,17.77 -0.17,4.96 -0.77,9.83 -1.8,14.52l-6.75 25.29c-4.27,15.03 -7.42,24.77 -9.22,29.3 -1.37,3.34 -1.96,6.15 -1.96,8.46 -0.17,2.64 1.19,4.18 4.26,4.52 2.31,0 5.22,-1.27 8.72,-3.75l12.3 -9.57 9.05 -8.37 5.04 -5.21 2.99 -1.79 2.73 1.79 1.8 2.48c0.34,3.5 -5.56,10.16 -17.51,20.07 -10.6,8.97 -18.87,15.12 -24.86,18.28 -3.67,2.14 -7.86,3.16 -12.55,2.99 -11.87,-0.16 -17.6,-5.29 -17.25,-15.28 0,-3.68 0.68,-8.21 2.22,-13.51l3.24 -12.29c5.56,-21.11 10.42,-37.76 14.78,-50.15 2.13,-6.32 3.33,-11.96 3.5,-16.82 -0.17,-3.5 -1.88,-5.56 -5.3,-6.24 -4.02,0 -9.48,4.78 -16.48,14.26l-15.29 22.55 -18.02 28.36 -14.27 25.03 -11.28 19.56c-1.54,2.56 -2.81,3.92 -4.02,4.26l-5.04 0.26 -15.2 0c-3.25,0.35 -4.87,-1.19 -5.04,-4.52l1.03 -4.27 8.2 -20 13.33 -35.1 10 -29.38c1.46,-4.96 2.31,-9.14 2.47,-12.48 -0.16,-5.55 -2.64,-8.37 -7.42,-8.53 -5.04,-0.17 -10.17,3.59 -15.55,11.27l-14.44 20.85 -18.45 29.56c-6.41,10.85 -11.11,19.47 -14.26,25.8l-10.51 21.52c-1.54,2.22 -2.91,3.67 -4.01,4.52 -1.03,0.69 -2.65,0.94 -4.79,0.77l-12.47 0 -1.8 -1.79 0.77 -5.22 1.03 -4.02 26.73 -99.52 1.28 -4.52c0.34,-1.62 1.19,-2.91 2.73,-3.76l4.02 -1.71 14.78 -3.76 3.5 -0.76 1.96 1.02 0.77 1.71 -1.28 5.29 -19.73 65.7 15.97 -24.43 18.97 -27c11.02,-14.86 21.09,-22.29 30.24,-22.29 12.98,0 19.56,7.6 19.73,22.72 -0.16,11.53 -3.15,26.57 -8.96,45.01l-6.06 18.54 11.53 -19.47zm171.53 -65.52l5.21 -1.27c2.56,0.68 3.76,2.22 3.76,4.78l-0.77 3.76 -25.03 76.29 -2.99 10.59 -0.77 5.72c0.51,5.04 2.39,7.35 5.56,7l1.96 -0.25c1.88,-0.86 3.84,-2.23 6.07,-4.02l11.95 -11.62 9.32 -10.33 4.95 -6.07 2.73 -2.05 2.99 1.54 1.8 2.73c0,1.03 -0.59,2.22 -1.8,3.5 -4.95,6.06 -10.33,11.95 -15.97,17.85 -6.83,7.18 -13.15,13.07 -19.05,17.59 -6.66,5.56 -13.32,8.21 -19.99,8.03 -11.19,0 -17,-5.89 -17.51,-17.77 -0.17,-5.29 0.77,-11.44 2.73,-18.28l7 -24 15.8 -51.25c0.68,-2.31 1.7,-4.27 3.24,-5.73 1.54,-1.37 3.5,-2.48 5.98,-3.24l12.82 -3.5zm17.76 -75.6c11.79,0.51 18.02,6.92 18.7,19.23 -0.51,12.13 -6.75,18.36 -18.7,18.7 -12.47,-0.51 -18.87,-6.75 -19.22,-18.7 0.51,-12.13 6.92,-18.54 19.22,-19.23zm65.08 131.72l14.01 -24.1c12.82,-22.04 24.26,-33.14 34.26,-33.31 9.48,0.51 14.09,9.39 13.75,26.74l-0.52 11.28c-0.34,3.84 -0.94,6.66 -1.71,8.54l-2.56 2.99 -4.69 3.76 -11.79 7.26c-2.14,1.45 -3.76,2.13 -4.79,1.96l-1.7 -1.28 -0.26 -0.93 0.26 -1.54 1.7 -5.04 3.5 -9.99c1.37,-3.84 2.13,-7.26 2.3,-10.08l0 -3 -0.25 -2.04 -1.28 -2.22 -2.22 -0.77 -2.49 0.77c-7.17,5.46 -17.16,19.65 -29.98,42.37 -8.72,15.21 -14.86,27.5 -18.54,36.9l-5.04 12.05 -1.28 2.22c-0.93,1.2 -1.96,1.72 -2.99,1.54l-4.44 0 -9.57 0 -4.27 -0.52 -1.45 -1.03 -0.51 -1.7 0.51 -2.73 5.46 -18.12 9.32 -33.48 6.75 -30.33 2.73 -15.29c0.17,-2.99 0.69,-5.13 1.54,-6.24 0.43,-1.19 1.7,-2.22 3.76,-3.07l5.46 -2.22 12.05 -4.53 6.23 -2.22 2.22 2.22 -0.94 3.76 -3.5 9.3 -8.8 26.83 -8.8 29.04 8.54 -13.75zm113.35 0l14.01 -24.1c12.82,-22.04 24.26,-33.14 34.26,-33.31 9.48,0.51 14.09,9.39 13.75,26.74l-0.51 11.28c-0.34,3.84 -0.95,6.66 -1.71,8.54l-2.56 2.99 -4.7 3.76 -11.79 7.26c-2.14,1.45 -3.76,2.13 -4.78,1.96l-1.71 -1.28 -0.26 -0.93 0.26 -1.54 1.71 -5.04 3.5 -9.99c1.37,-3.84 2.14,-7.26 2.3,-10.08l0 -3 -0.25 -2.04 -1.28 -2.22 -2.22 -0.77 -2.49 0.77c-7.17,5.46 -17.16,19.65 -29.98,42.37 -8.72,15.21 -14.86,27.5 -18.54,36.9l-5.04 12.05 -1.28 2.22c-0.94,1.2 -1.96,1.72 -2.99,1.54l-4.44 0 -9.57 0 -4.27 -0.52 -1.45 -1.03 -0.52 -1.7 0.52 -2.73 5.46 -18.12 9.32 -33.48 6.75 -30.33 2.73 -15.29c0.17,-2.99 0.69,-5.13 1.54,-6.24 0.43,-1.19 1.7,-2.22 3.76,-3.07l5.46 -2.22 12.04 -4.53 6.24 -2.22 2.22 2.22 -0.93 3.76 -3.5 9.3 -8.8 26.83 -8.8 29.04 8.54 -13.75zm69.27 30.92c-0.17,-20.59 9.14,-40.24 28.03,-59.03 19.65,-19.73 39.12,-29.46 58.25,-29.29 11.19,0.16 19.99,3.59 26.49,10.25 7.68,7.68 11.44,16.4 11.27,26.22 0,15.72 -5.46,31.52 -16.48,47.58 -10,14.69 -22.55,25.8 -37.5,33.48 -9.99,5.21 -20.24,7.69 -30.76,7.52 -10.85,0 -20.15,-3.41 -27.92,-10.16 -7.78,-6.76 -11.54,-15.64 -11.37,-26.57zm26.14 8.8c0,3.33 0.68,6.49 2.05,9.48l2.73 4.18 3.76 2.49c1.46,0.85 3.25,1.19 5.3,1.02 20.5,0.18 38.01,-19.73 52.37,-59.71 3.66,-10.33 5.55,-19.22 5.55,-26.65 0,-10.59 -5.64,-16.31 -16.82,-17.16 -12.9,0 -25.88,11.7 -39.13,35.1 -10.67,18.71 -15.97,35.79 -15.8,51.26zm159.56 -39.72l14.01 -24.1c12.82,-22.04 24.26,-33.14 34.26,-33.31 9.48,0.51 14.09,9.39 13.75,26.74l-0.51 11.28c-0.34,3.84 -0.95,6.66 -1.71,8.54l-2.56 2.99 -4.7 3.76 -11.79 7.26c-2.13,1.45 -3.76,2.13 -4.78,1.96l-1.71 -1.28 -0.26 -0.93 0.26 -1.54 1.71 -5.04 3.5 -9.99c1.37,-3.84 2.14,-7.26 2.3,-10.08l0 -3 -0.25 -2.04 -1.28 -2.22 -2.22 -0.77 -2.49 0.77c-7.17,5.46 -17.16,19.65 -29.98,42.37 -8.72,15.21 -14.86,27.5 -18.54,36.9l-5.04 12.05 -1.28 2.22c-0.94,1.2 -1.96,1.72 -2.99,1.54l-4.44 0 -9.57 0 -4.27 -0.52 -1.45 -1.03 -0.52 -1.7 0.52 -2.73 5.46 -18.12 9.31 -33.48 6.75 -30.33 2.73 -15.29c0.17,-2.99 0.69,-5.13 1.54,-6.24 0.43,-1.19 1.7,-2.22 3.76,-3.07l5.46 -2.22 12.04 -4.53 6.24 -2.22 2.22 2.22 -0.94 3.76 -3.5 9.3 -8.8 26.83 -8.8 29.04 8.54 -13.75z"/>
  <g id="_1844285666752">
   <path class="fil1" d="M861.46 521.38c-2.02,2.35 -3.71,3.57 -4.43,5.22 -1.51,3.46 0.22,14.13 6.01,11.52 1.28,-0.61 8.71,-10.77 12.44,-15.11 6.86,-7.98 17.87,-21.87 32.82,-34.58 15.96,-13.55 36.43,-25.76 61.19,-28.03 36.99,-3.37 68.45,18.52 99.89,40.66 32.94,23.2 65.91,46.68 105.22,41.68 9.03,-1.15 34.18,-7.93 52.71,-28.04 9.68,-10.5 5.67,-5.84 7.99,-11.71 2.6,-6.55 2.66,-12.77 -4.41,-6.47 -12.16,10.83 -22.73,19.07 -33.22,24.41 -20.06,10.21 -39.81,9.88 -69.74,-3.09 -26.45,-11.46 -51.7,-31.06 -77.14,-47.06 -26.98,-16.97 -54.19,-29.91 -83.27,-24.86 -22.4,3.89 -41.91,14.55 -59.65,28.7 -16.75,13.37 -31.92,29.88 -46.42,46.75z"/>
   <path class="fil1" d="M860.51 518.55c2.02,2.35 3.7,3.57 4.43,5.22 1.51,3.46 -0.22,14.13 -6.01,11.52 -1.28,-0.61 -8.71,-10.77 -12.44,-15.11 -6.86,-7.98 -17.87,-21.88 -32.82,-34.58 -15.96,-13.55 -36.43,-25.76 -61.19,-28.03 -36.99,-3.37 -68.45,18.52 -99.89,40.66 -32.94,23.2 -65.9,46.68 -105.22,41.69 -9.03,-1.15 -34.18,-7.93 -52.71,-28.05 -9.68,-10.5 -5.67,-5.84 -7.99,-11.71 -2.59,-6.55 -2.66,-12.77 4.42,-6.47 12.16,10.83 22.73,19.07 33.22,24.41 20.06,10.21 39.81,9.88 69.73,-3.09 26.45,-11.46 51.71,-31.06 77.14,-47.06 26.98,-16.97 54.19,-29.91 83.27,-24.86 22.4,3.89 41.91,14.55 59.65,28.7 16.75,13.37 31.92,29.88 46.42,46.75z"/>
  </g>
  <path class="fil2" d="M490.51 392.92l5.22 -42.91 13.04 -149.03 6.53 -98.15c26.16,0.28 46.68,0.43 61.61,0.43 12.32,0 31.24,-0.15 56.69,-0.43 1.82,12.17 3.4,21.45 4.64,27.76 1.3,6.31 4.42,18.63 9.42,36.97 5,18.33 9.06,34.21 12.1,47.55 3.05,13.4 7.54,36.31 13.63,68.79 6.24,-22.25 11.88,-41.39 16.96,-57.41 5.07,-16.03 11.45,-34.21 19.06,-54.58 7.62,-20.44 12.47,-33.78 14.58,-40.08 2.03,-6.31 4.79,-15.95 8.34,-29 21.31,0.28 42.12,0.43 62.56,0.43 13.92,0 33.2,-0.15 57.91,-0.43 -2.75,47.76 -4.57,88.8 -5.44,123.09 -1.88,67.12 -2.82,113.3 -2.82,138.52 0,5.22 0.15,14.72 0.43,28.48 -18.7,-0.29 -31.82,-0.43 -39.36,-0.43 -10.94,0 -24.36,0.14 -40.23,0.43 1.09,-12.76 2.54,-43.13 4.21,-91.04 1.67,-47.99 2.54,-78.65 2.54,-91.92 0,-5.79 -0.15,-13.92 -0.44,-24.29l-27.76 86.55 -39.87 120.69c-18.41,-0.29 -31.02,-0.43 -37.98,-0.43 -8.77,0 -22.18,0.14 -40.3,0.43l-26.17 -116.93 -15.3 -62.27c-0.5,-2.39 -1.15,-5.36 -1.88,-8.91 -0.72,-3.56 -1.82,-9.79 -3.41,-18.7l-5.29 58.86 -6.89 120.77 -0.66 27.18c-19.56,-0.29 -32.03,-0.43 -37.4,-0.43 -7.4,0 -20.16,0.14 -38.27,0.43zm422.67 -155.26c2.69,-13.93 4.35,-23.49 5.08,-28.78 0.72,-5.23 1.88,-13.49 3.4,-24.73 40.74,-8.98 75.76,-13.47 104.96,-13.47 16.67,0 31.97,1.88 45.82,5.64 13.84,3.71 24.64,9.79 32.4,18.13 7.76,8.34 11.67,20.3 11.67,35.88 0,7.9 -1.09,25.73 -3.19,53.49 -2.1,27.7 -3.69,64.08 -4.78,109.1 -13.92,-0.29 -27.76,-0.43 -41.47,-0.43 -13.33,0 -27.54,0.14 -42.55,0.43 1.96,-15.58 4.06,-47.77 6.45,-96.56 -5.36,2.62 -9.57,4.49 -12.62,5.58 -3.04,1.15 -8.33,2.9 -15.94,5.22 -7.69,2.32 -13.64,4.21 -17.91,5.8 -4.28,1.59 -8.05,3.62 -11.24,6.09 -3.19,2.39 -5.44,4.93 -6.74,7.54 -1.39,2.54 -2.04,5.44 -2.04,8.63 0,4.86 1.96,9.07 5.81,12.54 3.84,3.41 9.93,5.14 18.33,5.14 2.97,0 6.16,-0.21 9.64,-0.72 3.4,-0.5 8.11,-1.66 14.07,-3.62 -4.14,10.73 -9.07,26.38 -14.79,46.98 -12.18,2.02 -23.71,3.04 -34.58,3.04 -17.54,0 -32.18,-2.47 -43.85,-7.32 -11.67,-4.93 -20.66,-12.83 -26.97,-23.7 -6.31,-10.95 -9.42,-21.82 -9.42,-32.77 0,-6.68 1.16,-13.19 3.48,-19.57 2.32,-6.38 5.94,-12.61 10.94,-18.7 4.93,-6.09 10.73,-11.31 17.33,-15.59 6.67,-4.34 15.72,-8.41 27.18,-12.25 11.53,-3.84 26.09,-7.4 43.78,-10.8 7.33,-1.46 14.07,-2.98 20.22,-4.57 6.1,-1.66 10.51,-3.05 13.13,-4.28 2.6,-1.23 4.7,-2.61 6.3,-4.21 1.67,-1.67 2.83,-3.33 3.48,-5.07 0.72,-1.82 1.09,-3.62 1.09,-5.58 0,-5.44 -2.25,-9.64 -6.75,-12.54 -4.49,-2.97 -11.16,-4.42 -19.85,-4.42 -24.29,0 -54.23,6.81 -89.89,20.45zm242.92 155.26l6.74 -94.38 2.17 -54.22c0.15,-9.78 0.22,-19.72 0.22,-29.94 0,-10.36 -0.15,-23.19 -0.44,-38.49 17.11,0.29 30.74,0.43 40.74,0.43 11.82,0 25.29,-0.14 40.6,-0.43l-0.95 24.29c5.58,-6.23 10.15,-10.87 13.7,-13.92 3.56,-3.04 7.55,-5.8 12.11,-8.27 4.57,-2.47 9.35,-4.34 14.28,-5.51 5.01,-1.23 10.15,-1.81 15.58,-1.81 5.08,0 10.81,0.72 17.04,2.17 0.14,15.44 0.5,28.13 1.08,38.2l1.52 32.69c-7.83,-2.32 -15.14,-3.48 -21.96,-3.48 -8.55,0 -15.87,1.24 -22.03,3.69 -6.16,2.47 -11.67,6.24 -16.46,11.31 -4.71,5 -8.55,11.23 -11.38,18.78 -2.83,7.46 -4.86,19.35 -5.95,35.66 -1.15,16.23 -1.74,34.87 -1.74,55.81 0,7.4 0.29,16.53 0.87,27.4 -13.77,-0.29 -27.61,-0.43 -41.46,-0.43 -13.78,0 -28.57,0.14 -44.29,0.43zm186.44 0c1.96,-18.13 3.41,-32.84 4.28,-44.22 1.08,-15.44 2.25,-34.79 3.4,-57.99l2.32 -50.38c1.02,-22.84 1.67,-44.65 2.11,-65.46 0.58,-24.94 0.86,-48.93 0.86,-72.05 19.79,0.28 34.65,0.43 44.58,0.43 11.45,0 25.01,-0.15 40.74,-0.43 -3.26,37.11 -6.23,83.22 -8.92,138.38 -2.68,55.09 -3.99,105.68 -3.99,151.72 -16.46,-0.29 -30.3,-0.43 -41.68,-0.43 -12.97,0 -27.55,0.14 -43.71,0.43zm93.51 -121.99l36.6 -52.7 27.48 -42.34c19.56,0.29 34.35,0.43 44.43,0.43 13.93,0 30.37,-0.14 49.37,-0.43l-42.26 55.09c-9.93,12.61 -20.08,26.24 -30.37,40.81 9.94,18.26 33.86,58.64 71.76,121.13 -16.6,-0.29 -31.6,-0.43 -44.94,-0.43 -13.63,0 -29.28,0.14 -46.9,0.43l-13.19 -26.53c-4.71,-9.28 -8.7,-16.96 -12.1,-23.19 -1.31,-2.54 -11.02,-19.93 -29.21,-52.05l-10.65 -20.22zm389.04 58.06c-1.81,8.48 -5.29,28.92 -10.44,61.32 -16.46,3.34 -30.3,5.51 -41.54,6.6 -11.23,1.08 -22.55,1.67 -34.07,1.67 -16.89,0 -32.47,-1.16 -46.61,-3.48 -14.21,-2.32 -26.46,-6.52 -36.75,-12.47 -10.3,-5.87 -18.92,-13.27 -25.88,-22.1 -6.96,-8.84 -12.25,-19.35 -15.87,-31.54 -3.63,-12.17 -5.44,-24.72 -5.44,-37.55 0,-18.12 3.62,-35.87 10.87,-53.2 7.18,-17.33 16.53,-30.88 27.91,-40.6 11.45,-9.78 24.57,-16.74 39.43,-20.8 14.86,-4.14 30.16,-6.16 45.74,-6.16 16.1,0 31.54,1.88 46.18,5.64 14.71,3.71 27.11,10.3 37.33,19.57 10.22,9.35 17.47,19.87 21.82,31.61 4.28,11.74 6.45,24.42 6.45,37.98 0,8.11 -0.87,17.03 -2.61,26.96l-149.4 0.22c-0.15,2.25 -0.22,4.27 -0.22,6.16 0,15.22 5.51,26.46 16.46,33.71 10.95,7.17 24.29,10.8 40.09,10.8 9.35,0 20.08,-1.09 32.11,-3.26 11.95,-2.17 26.81,-5.88 44.43,-11.09zm-131.2 -68.72l70.32 0c0.14,-2.38 0.21,-4.42 0.21,-6.16 0,-7.32 -1.3,-13.63 -3.91,-18.84 -2.68,-5.23 -6.44,-8.99 -11.3,-11.39 -4.93,-2.39 -10.44,-3.62 -16.53,-3.62 -4.27,0 -8.33,0.65 -12.32,2.02 -3.99,1.31 -7.61,3.34 -10.8,5.95 -3.19,2.6 -5.88,5.57 -7.97,8.98 -2.1,3.34 -3.7,6.68 -4.71,9.79 -0.95,3.18 -1.95,7.61 -2.97,13.26zm336.42 70.46c-2.53,11.89 -4.78,23.56 -6.59,34.94l-4.71 25.95c-14.07,2.97 -25.01,4.92 -32.84,5.72 -7.91,0.8 -15.51,1.24 -22.9,1.24 -12.04,0 -22.76,-1.02 -32.11,-3.12 -9.35,-2.03 -17.18,-5.8 -23.42,-11.24 -6.23,-5.44 -10.5,-11.74 -12.76,-18.78 -2.25,-7.11 -3.4,-14.64 -3.4,-22.54 0,-1.45 0.07,-3.91 0.22,-7.54 0.14,-3.62 0.65,-11.67 1.45,-24.14l4.64 -73.57 -33.28 0c0.73,-9.79 1.39,-22.62 1.89,-38.57l0.65 -19.72 35.31 0c0.87,-6.52 1.95,-20.73 3.19,-42.62l36.39 -7.54c6.66,-1.3 20.87,-4.57 42.62,-9.85 -1.02,18.56 -1.74,38.56 -2.1,60.01l48.21 0c-1.16,29.36 -1.67,48.79 -1.67,58.29l-48.71 0 -2.54 53.2c-0.29,7.9 -0.44,12.98 -0.44,15.3 0,6.81 0.73,12.46 2.25,17.03 1.45,4.49 4.13,7.75 7.9,9.78 3.78,1.96 7.9,2.97 12.47,2.97 3.41,0 6.96,-0.21 10.66,-0.72 3.7,-0.5 10.22,-1.95 19.64,-4.49z"/>
  <g id="_1844285669872">
   <g>
    <g>
     <path class="fil3 str0" d="M211.03 16.73c104.99,0 193.23,85.24 195.54,191.25 -1.07,100.5 -61.18,204.27 -194.56,338.78 -140.03,-135.45 -198.15,-241.34 -195.18,-339.43 4.09,-102.22 89.22,-190.6 194.21,-190.6z"/>
     <path id="_1" class="fil4" d="M211.03 16.73c104.99,0 193.23,85.24 195.54,191.25 -1.07,100.5 -61.18,204.27 -194.56,338.78 -140.03,-135.45 -198.15,-241.34 -195.18,-339.43 4.09,-102.22 89.22,-190.6 194.21,-190.6z"/>
    </g>
    <circle class="fil5" cx="211.03" cy="212.33" r="152.63"/>
   </g>
   <path class="fil6" d="M223.7 214.01c8.7,-14.97 16.14,-26.76 22.42,-35.36l16.14 -21.26c10.73,-12.66 20.39,-18.94 28.89,-18.94 7.15,0.19 13.14,3.28 17.98,9.38 4.83,5.99 7.24,12.75 7.24,20.1 -0.19,5.6 -0.87,11.11 -2.03,16.43l-7.64 28.6c-4.83,17.02 -8.41,28.03 -10.44,33.15 -1.55,3.77 -2.23,6.96 -2.23,9.56 -0.19,3 1.36,4.74 4.83,5.12 2.61,0 5.89,-1.45 9.86,-4.25l13.92 -10.82 10.24 -9.47 5.7 -5.89 3.38 -2.04 3.09 2.04 2.04 2.8c0.39,3.96 -6.28,11.51 -19.81,22.71 -11.98,10.15 -21.35,17.11 -28.12,20.68 -4.16,2.41 -8.9,3.58 -14.2,3.38 -13.43,-0.19 -19.92,-6 -19.53,-17.3 0,-4.15 0.78,-9.28 2.52,-15.26l3.66 -13.92c6.28,-23.86 11.79,-42.71 16.71,-56.72 2.42,-7.15 3.78,-13.53 3.97,-19.03 -0.19,-3.97 -2.13,-6.29 -6,-7.06 -4.54,0 -10.73,5.41 -18.65,16.14l-17.3 25.51 -20.39 32.08 -16.14 28.31 -12.75 22.13c-1.74,2.9 -3.19,4.45 -4.55,4.83l-5.69 0.29 -17.21 0c-3.67,0.39 -5.5,-1.36 -5.69,-5.13l1.15 -4.83 9.28 -22.61 15.07 -39.72 11.3 -33.24c1.65,-5.6 2.61,-10.34 2.8,-14.11 -0.19,-6.28 -3,-9.47 -8.4,-9.66 -5.7,-0.19 -11.5,4.06 -17.58,12.75l-16.33 23.58 -20.87 33.43c-7.25,12.28 -12.56,22.03 -16.14,29.18l-11.89 24.35c-1.73,2.51 -3.28,4.15 -4.54,5.13 -1.16,0.77 -3,1.06 -5.41,0.87l-14.11 0 -2.04 -2.04 0.87 -5.89 1.16 -4.54 30.25 -112.57 1.45 -5.13c0.38,-1.83 1.35,-3.28 3.09,-4.24l4.55 -1.94 16.71 -4.25 3.96 -0.87 2.23 1.16 0.86 1.93 -1.45 6 -22.32 74.3 18.07 -27.63 21.45 -30.54c12.47,-16.82 23.87,-25.22 34.21,-25.22 14.68,0 22.12,8.6 22.31,25.7 -0.19,13.05 -3.57,30.05 -10.14,50.92l-6.87 20.97 13.05 -22.04z"/>
  </g>
  <circle class="fil7" cx="1524.75" cy="362.62" r="21.07"/>
 </g>
</svg>
