<?xml version="1.0" encoding="UTF-8"?>
<!DOCTYPE svg PUBLIC "-//W3C//DTD SVG 1.1//EN" "http://www.w3.org/Graphics/SVG/1.1/DTD/svg11.dtd">
<!-- Creator: CorelDRAW 2021 (64-Bit) -->
<svg xmlns="http://www.w3.org/2000/svg" xml:space="preserve" width="0.478417in" height="0.478417in" version="1.1" style="shape-rendering:geometricPrecision; text-rendering:geometricPrecision; image-rendering:optimizeQuality; fill-rule:evenodd; clip-rule:evenodd"
viewBox="0 0 364.71 364.71"
 xmlns:xlink="http://www.w3.org/1999/xlink"
 xmlns:xodm="http://www.corel.com/coreldraw/odm/2003">
 <defs>
  <style type="text/css">
   <![CDATA[
    .str0 {stroke:#0284FC;stroke-width:5.29;stroke-linecap:round;stroke-linejoin:round;stroke-miterlimit:2.61313}
    .fil0 {fill:white}
    .fil1 {fill:#0269CA;fill-rule:nonzero}
   ]]>
  </style>
 </defs>
 <g id="Layer_x0020_1">
  <metadata id="CorelCorpID_0Corel-Layer"/>
  <g id="_1772962209168">
   <g>
    <circle class="fil0 str0" cx="182.35" cy="182.35" r="179.71"/>
   </g>
   <path class="fil1" d="M197.27 184.33c10.24,-17.63 19,-31.51 26.39,-41.63l19.01 -25.03c12.63,-14.91 24,-22.3 34.01,-22.3 8.42,0.23 15.48,3.87 21.17,11.04 5.69,7.05 8.53,15.01 8.53,23.66 -0.23,6.59 -1.03,13.08 -2.39,19.34l-8.99 33.67c-5.69,20.03 -9.9,33 -12.28,39.03 -1.82,4.44 -2.62,8.19 -2.62,11.26 -0.23,3.53 1.6,5.58 5.69,6.03 3.08,0 6.94,-1.7 11.6,-5.01l16.39 -12.73 12.06 -11.15 6.71 -6.94 3.98 -2.4 3.64 2.4 2.4 3.29c0.45,4.66 -7.39,13.54 -23.33,26.74 -14.11,11.95 -25.14,20.14 -33.1,24.35 -4.89,2.84 -10.47,4.21 -16.72,3.98 -15.81,-0.23 -23.44,-7.06 -22.99,-20.37 0,-4.89 0.92,-10.92 2.97,-17.97l4.32 -16.38c7.4,-28.1 13.88,-50.29 19.68,-66.78 2.85,-8.42 4.44,-15.93 4.67,-22.41 -0.23,-4.68 -2.5,-7.4 -7.06,-8.31 -5.34,0 -12.63,6.37 -21.95,19l-20.37 30.04 -24 37.77 -19 33.33 -15.02 26.05c-2.05,3.41 -3.75,5.24 -5.35,5.69l-6.7 0.35 -20.26 0c-4.32,0.45 -6.48,-1.6 -6.7,-6.04l1.36 -5.69 10.92 -26.62 17.75 -46.76 13.31 -39.14c1.94,-6.59 3.08,-12.18 3.3,-16.61 -0.23,-7.4 -3.53,-11.15 -9.9,-11.38 -6.71,-0.23 -13.54,4.78 -20.7,15.02l-19.23 27.76 -24.58 39.36c-8.54,14.45 -14.79,25.94 -19,34.36l-14 28.67c-2.04,2.96 -3.86,4.89 -5.34,6.03 -1.37,0.91 -3.53,1.25 -6.37,1.03l-16.61 0 -2.4 -2.4 1.02 -6.94 1.37 -5.34 35.61 -132.54 1.7 -6.03c0.45,-2.16 1.59,-3.87 3.64,-5l5.35 -2.28 19.68 -5.01 4.66 -1.03 2.62 1.37 1.01 2.27 -1.71 7.06 -26.27 87.49 21.27 -32.53 25.25 -35.96c14.68,-19.8 28.11,-29.69 40.28,-29.69 17.29,0 26.05,10.13 26.27,30.27 -0.23,15.36 -4.21,35.38 -11.94,59.95l-8.08 24.7 15.36 -25.95z"/>
  </g>
 </g>
</svg>
