<?xml version="1.0" encoding="UTF-8"?>
<svg xmlns="http://www.w3.org/2000/svg" xmlns:xlink="http://www.w3.org/1999/xlink" width="50px" height="50px" viewBox="0 0 50 50" version="1.1">
<g id="surface1">
<path style=" stroke:none;fill-rule:evenodd;fill:rgb(0.784314%,41.176471%,79.215686%);fill-opacity:1;" d="M 24.933594 0 C 38.707031 0 49.871094 11.164062 49.871094 24.933594 C 49.871094 38.707031 38.707031 49.871094 24.933594 49.871094 C 11.164062 49.871094 0 38.707031 0 24.933594 C 0 11.164062 11.164062 0 24.933594 0 Z M 24.933594 0 "/>
<path style=" stroke:none;fill-rule:nonzero;fill:rgb(100%,100%,100%);fill-opacity:1;" d="M 25.582031 25.550781 C 26.699219 23.625 27.65625 22.109375 28.464844 21 L 30.542969 18.265625 C 31.925781 16.636719 33.167969 15.828125 34.261719 15.828125 C 35.183594 15.851562 35.953125 16.25 36.574219 17.035156 C 37.199219 17.804688 37.507812 18.675781 37.507812 19.621094 C 37.484375 20.34375 37.394531 21.050781 37.246094 21.734375 L 36.265625 25.414062 C 35.640625 27.605469 35.183594 29.023438 34.921875 29.683594 C 34.722656 30.167969 34.632812 30.578125 34.632812 30.914062 C 34.609375 31.300781 34.808594 31.523438 35.257812 31.574219 C 35.59375 31.574219 36.015625 31.386719 36.523438 31.023438 L 38.316406 29.632812 L 39.632812 28.414062 L 40.367188 27.65625 L 40.804688 27.394531 L 41.199219 27.65625 L 41.460938 28.015625 C 41.511719 28.523438 40.65625 29.496094 38.914062 30.9375 C 37.371094 32.246094 36.164062 33.140625 35.292969 33.601562 C 34.757812 33.910156 34.148438 34.058594 33.464844 34.035156 C 31.738281 34.011719 30.902344 33.265625 30.953125 31.808594 C 30.953125 31.273438 31.054688 30.613281 31.277344 29.84375 L 31.75 28.054688 C 32.558594 24.980469 33.265625 22.554688 33.898438 20.753906 C 34.210938 19.832031 34.386719 19.011719 34.410156 18.304688 C 34.386719 17.792969 34.136719 17.492188 33.640625 17.394531 C 33.054688 17.394531 32.257812 18.089844 31.238281 19.472656 L 29.011719 22.753906 L 26.390625 26.882812 L 24.3125 30.527344 L 22.671875 33.375 C 22.445312 33.75 22.261719 33.949219 22.085938 33.996094 L 21.351562 34.035156 L 19.136719 34.035156 C 18.667969 34.085938 18.429688 33.859375 18.40625 33.375 L 18.554688 32.753906 L 19.75 29.84375 L 21.6875 24.734375 L 23.144531 20.453125 C 23.355469 19.734375 23.480469 19.121094 23.503906 18.636719 C 23.480469 17.828125 23.117188 17.417969 22.421875 17.394531 C 21.6875 17.371094 20.941406 17.917969 20.160156 19.035156 L 18.058594 22.070312 L 15.371094 26.375 C 14.4375 27.953125 13.753906 29.210938 13.292969 30.128906 L 11.761719 33.265625 C 11.539062 33.585938 11.339844 33.796875 11.179688 33.921875 C 11.03125 34.023438 10.792969 34.058594 10.484375 34.035156 L 8.667969 34.035156 L 8.40625 33.773438 L 8.519531 33.015625 L 8.667969 32.429688 L 12.558594 17.941406 L 12.746094 17.28125 C 12.796875 17.046875 12.921875 16.859375 13.144531 16.734375 L 13.730469 16.488281 L 15.878906 15.941406 L 16.390625 15.828125 L 16.675781 15.976562 L 16.789062 16.226562 L 16.601562 16.996094 L 13.730469 26.5625 L 16.054688 23.003906 L 18.816406 19.074219 C 20.421875 16.910156 21.886719 15.828125 23.21875 15.828125 C 25.109375 15.828125 26.066406 16.933594 26.089844 19.136719 C 26.066406 20.816406 25.628906 23.003906 24.785156 25.691406 L 23.902344 28.390625 L 25.582031 25.554688 Z M 25.582031 25.550781 "/>
</g>
</svg>
