<svg id="notification_selected" xmlns="http://www.w3.org/2000/svg" width="24" height="24" viewBox="0 0 24 24">
  <rect id="BG-5" width="24" height="24" rx="4" fill="#fff"/>
  <g id="Icon_ionic-ios-notifications-outline" data-name="Icon ionic-ios-notifications-outline" transform="translate(-0.748 0.069)">
    <path id="Path_2949" data-name="Path 2949" d="M17.938,28.336a.52.52,0,0,0-.51.41,1.006,1.006,0,0,1-.2.438.759.759,0,0,1-.646.237.772.772,0,0,1-.646-.237,1.006,1.006,0,0,1-.2-.438.52.52,0,0,0-.51-.41h0a.524.524,0,0,0-.51.638,1.794,1.794,0,0,0,1.867,1.49,1.791,1.791,0,0,0,1.867-1.49.526.526,0,0,0-.51-.638Z" transform="translate(-3.452 -10.534)" fill="#013567"/>
    <path id="Path_2950" data-name="Path 2950" d="M19.45,15.828c-.618-.815-1.835-1.293-1.835-4.943,0-3.746-1.654-5.252-3.2-5.614-.145-.036-.249-.084-.249-.237V4.918a.985.985,0,0,0-.964-.988h-.024a.985.985,0,0,0-.964.988v.116c0,.149-.1.2-.249.237-1.546.365-3.2,1.867-3.2,5.614,0,3.65-1.217,4.124-1.835,4.943a.8.8,0,0,0,.638,1.277H18.823A.8.8,0,0,0,19.45,15.828Zm-1.566.233H8.519a.176.176,0,0,1-.133-.293,4.865,4.865,0,0,0,.843-1.341A9.1,9.1,0,0,0,9.8,10.885,6.158,6.158,0,0,1,10.644,7.4,2.577,2.577,0,0,1,12.2,6.292a1.407,1.407,0,0,0,.747-.422.318.318,0,0,1,.478-.008,1.455,1.455,0,0,0,.755.43A2.577,2.577,0,0,1,15.731,7.4a6.158,6.158,0,0,1,.839,3.485,9.1,9.1,0,0,0,.574,3.542,4.92,4.92,0,0,0,.863,1.361A.166.166,0,0,1,17.884,16.061Z" transform="translate(-0.026)" fill="#013567"/>
  </g>
</svg>
