<svg id="password" xmlns="http://www.w3.org/2000/svg" width="16" height="16" viewBox="0 0 16 16">
  <g id="Rectangle_2051" data-name="Rectangle 2051" fill="#fff" stroke="#b3bcc9" stroke-width="1" opacity="0">
    <rect width="16" height="16" stroke="none"/>
    <rect x="0.5" y="0.5" width="15" height="15" fill="none"/>
  </g>
  <g id="Icon_feather-lock" data-name="Icon feather-lock" transform="translate(-1.5 -1)">
    <path id="Path_2017" data-name="Path 2017" d="M5.611,16.5h7.778A1.176,1.176,0,0,1,14.5,17.732v4.311a1.176,1.176,0,0,1-1.111,1.232H5.611A1.176,1.176,0,0,1,4.5,22.043V17.732A1.176,1.176,0,0,1,5.611,16.5Z" transform="translate(0 -8.275)" fill="none" stroke="#013567" stroke-linecap="round" stroke-linejoin="round" stroke-width="1"/>
    <path id="Path_2018" data-name="Path 2018" d="M10.5,7.75V5.639A2.772,2.772,0,0,1,13.389,3a2.772,2.772,0,0,1,2.889,2.639V7.75" transform="translate(-3.889 0)" fill="none" stroke="#013567" stroke-linecap="round" stroke-linejoin="round" stroke-width="1"/>
  </g>
</svg>
