<svg id="portfolio_selected" xmlns="http://www.w3.org/2000/svg" width="24" height="24" viewBox="0 0 24 24">
  <rect id="BG-5" width="24" height="24" rx="4" fill="#fff"/>
  <g id="Rectangle_2175" data-name="Rectangle 2175" transform="translate(3.698 17.392) rotate(-78)" fill="none" stroke="#013567" stroke-linecap="round" stroke-width="1" stroke-dasharray="30 20">
    <rect width="14" height="14" rx="7" stroke="none"/>
    <rect x="0.5" y="0.5" width="13" height="13" rx="6.5" fill="none"/>
  </g>
  <g id="Rectangle_2176" data-name="Rectangle 2176" transform="translate(4 4)" fill="none" stroke="#013567" stroke-width="1">
    <path d="M7.111,0h0A.889.889,0,0,1,8,.889V7.111A.889.889,0,0,1,7.111,8H.889A.889.889,0,0,1,0,7.111v0A7.111,7.111,0,0,1,7.111,0Z" stroke="none"/>
    <path d="M7.063.5h0A.438.438,0,0,1,7.5.938V7.063a.438.438,0,0,1-.437.438H.938A.438.438,0,0,1,.5,7.063v0A6.563,6.563,0,0,1,7.063.5Z" fill="none"/>
  </g>
</svg>
