<svg id="qr_code" xmlns="http://www.w3.org/2000/svg" width="24" height="24" viewBox="0 0 24 24">
  <rect id="Rectangle_2060" data-name="Rectangle 2060" width="24" height="24" fill="#fff" opacity="0"/>
  <path id="Icon_metro-qrcode" data-name="Icon metro-qrcode" d="M7.549,2.924H3.566V6.906H7.549Zm1-1V7.9H2.571V1.928ZM4.562,3.919H6.553V5.911H4.562Zm12.943-1H13.523V6.906h3.983Zm1-1V7.9H12.527V1.928ZM14.518,3.919H16.51V5.911H14.518ZM7.549,12.88H3.566v3.983H7.549Zm1-1v5.974H2.571V11.884ZM4.562,13.876H6.553v1.991H4.562ZM9.54,1.928h1v1h-1Zm1,1h1v1h-1Zm-1,1h1v1h-1Zm1,1h1v1h-1Zm-1,1h1v1h-1Zm1,1h1v1h-1Zm-1,1h1v1h-1Zm0,1.991h1v1h-1Zm1,1h1v1h-1Zm-1,1h1v1h-1Zm1,1h1v1h-1Zm-1,1h1v1h-1Zm1,1h1v1h-1Zm-1,1h1v1h-1Zm1,1h1v1h-1Zm6.97-6.97h1v1h-1Zm-13.939,0h1v1h-1Zm1-1h1v1h-1Zm-1.991,0h1v1h-1Zm3.983,0h1v1h-1Zm1,1h1v1h-1Zm1-1h1v1h-1Zm2.987,1h1v1h-1Zm1-1h1v1h-1Zm1,1h1v1h-1Zm1-1h1v1h-1Zm1,1h1v1h-1Zm1-1h1v1h-1Zm1,2.987h1v1h-1Zm-5.974,0h1v1h-1Zm1-1h1v1h-1Zm1,1h1v1h-1Zm1.991,0h1v1h-1Zm1-1h1v1h-1Zm1,2.987h1v1h-1Zm-5.974,0h1v1h-1Zm1-1h1v1h-1Zm1.991,0h1v1h-1Zm1,1h1v1h-1Zm1-1h1v1h-1Zm1,2.987h1v1h-1Zm-4.978-1h1v1h-1Zm1,1h1v1h-1Zm1-1h1v1h-1Zm1,1h1v1h-1Zm-2.987,1h1v1h-1Zm1.991,0h1v1h-1Zm1.991,0h1v1h-1Z" transform="translate(1.668 2.311)"/>
</svg>
