<svg xmlns="http://www.w3.org/2000/svg" xmlns:xlink="http://www.w3.org/1999/xlink" width="62" height="62" viewBox="0 0 62 62">
  <defs>
    <filter id="Rectangle_2145" x="0" y="0" width="62" height="62" filterUnits="userSpaceOnUse">
      <feOffset dy="3" input="SourceAlpha"/>
      <feGaussianBlur stdDeviation="5" result="blur"/>
      <feFlood flood-color="#fff" flood-opacity="0.102"/>
      <feComposite operator="in" in2="blur"/>
      <feComposite in="SourceGraphic"/>
    </filter>
    <filter id="BG-5" x="10" y="10" width="42" height="42" filterUnits="userSpaceOnUse">
      <feOffset dy="3" input="SourceAlpha"/>
      <feGaussianBlur stdDeviation="3" result="blur-2"/>
      <feFlood flood-color="#267dce" flood-opacity="0.071"/>
      <feComposite operator="in" in2="blur-2"/>
    </filter>
  </defs>
  <g id="receive" transform="translate(-13 -782)">
    <g transform="matrix(1, 0, 0, 1, 13, 782)" filter="url(#Rectangle_2145)">
      <rect id="Rectangle_2145-2" data-name="Rectangle 2145" width="32" height="32" rx="16" transform="translate(15 12)" fill="#013567"/>
    </g>
    <g id="BG-5-2" data-name="BG-5" transform="translate(32 798)">
      <g transform="matrix(1, 0, 0, 1, -19, -16)" filter="url(#BG-5)">
        <rect id="BG-5-3" data-name="BG-5" width="24" height="24" rx="4" transform="translate(19 16)" fill="#fff"/>
      </g>
      <g id="Rectangle_2181" data-name="Rectangle 2181" transform="translate(20 6) rotate(90)" fill="none" stroke="#fff" stroke-linecap="round" stroke-width="1" stroke-dasharray="32 27">
        <rect width="12" height="16" rx="2" stroke="none"/>
        <rect x="0.5" y="0.5" width="11" height="15" rx="1.5" fill="none"/>
      </g>
      <g id="Rectangle_2182" data-name="Rectangle 2182" transform="translate(4 6)" fill="none" stroke="#fff" stroke-linecap="round" stroke-width="1" stroke-dasharray="18 28">
        <rect width="12" height="10" rx="2" stroke="none"/>
        <rect x="0.5" y="0.5" width="11" height="9" rx="1.5" fill="none"/>
      </g>
      <path id="Union_101" data-name="Union 101" d="M-1737.444-3289.433v.576a.282.282,0,0,1-.278.286h-.556a.282.282,0,0,1-.278-.286v-.582a1.955,1.955,0,0,1-1.089-.405.291.291,0,0,1-.02-.434l.408-.4a.279.279,0,0,1,.352-.026.819.819,0,0,0,.445.133h.976a.444.444,0,0,0,.41-.471.466.466,0,0,0-.3-.455l-1.562-.482a1.612,1.612,0,0,1-1.1-1.55,1.572,1.572,0,0,1,1.482-1.61v-.576a.282.282,0,0,1,.278-.286h.555a.282.282,0,0,1,.278.286v.582a1.952,1.952,0,0,1,1.089.406.291.291,0,0,1,.02.434l-.408.4a.279.279,0,0,1-.352.026.816.816,0,0,0-.445-.133h-.976a.444.444,0,0,0-.41.471.466.466,0,0,0,.3.455l1.562.482a1.612,1.612,0,0,1,1.1,1.55A1.571,1.571,0,0,1-1737.444-3289.433Z" transform="translate(1750 3304)" fill="#fff"/>
      <path id="ICON_ARROW_LEFT" data-name="ICON ARROW LEFT" d="M3900.769,4339.832a.594.594,0,0,0-.172-.418l-.6-.606h4.968a.591.591,0,0,0,0-1.183H3900l.615-.622a.595.595,0,0,0,0-.836.581.581,0,0,0-.827,0l0,0-.187.188-.388.391c-.152.154-.3.31-.457.463-.129.13-.258.257-.385.387a1.73,1.73,0,0,0-.3.343.57.57,0,0,0-.054.145.576.576,0,0,0,.144.518c.122.137.249.266.378.394s.263.269.4.4.267.27.4.406c.1.1.208.209.311.314l.127.129a.581.581,0,0,0,.827,0A.591.591,0,0,0,3900.769,4339.832Z" transform="translate(-3894.998 -4320.853)" fill="#fff"/>
    </g>
  </g>
</svg>
