<svg id="report" xmlns="http://www.w3.org/2000/svg" width="24" height="24" viewBox="0 0 24 24">
  <rect id="BG-5" width="24" height="24" rx="4" fill="#fff"/>
  <path id="Icon_material-report-problem" data-name="Icon material-report-problem" d="M10.114,13.373H8.956V12.215h1.158Zm0-2.316H8.956V7.965h1.158Z" transform="translate(2.377 2.592)" fill="#013567"/>
  <g id="Polygon_42" data-name="Polygon 42" transform="translate(4 5)" fill="none">
    <path d="M7.132,1.519a1,1,0,0,1,1.736,0L15.145,12.5a1,1,0,0,1-.868,1.5H1.723a1,1,0,0,1-.868-1.5Z" stroke="none"/>
    <path d="M 7.999999046325684 2.015564918518066 L 1.723178863525391 12.99999523162842 L 14.27681922912598 13.0000057220459 L 7.999999046325684 2.015564918518066 M 7.999999046325684 1.015560150146484 C 8.338146209716797 1.015560150146484 8.676294326782227 1.183515548706055 8.86823844909668 1.519425392150879 L 15.14505863189697 12.50386524200439 C 15.52600860595703 13.1705150604248 15.04463863372803 13.99999523162842 14.27681922912598 13.99999523162842 L 1.723178863525391 13.99999523162842 C 0.9553594589233398 13.99999523162842 0.4739894866943359 13.1705150604248 0.8549394607543945 12.50386524200439 L 7.131758689880371 1.519425392150879 C 7.323703765869141 1.183515548706055 7.66185188293457 1.015560150146484 7.999999046325684 1.015560150146484 Z" stroke="none" fill="#013567"/>
  </g>
</svg>
