<svg xmlns="http://www.w3.org/2000/svg" width="26" height="26" viewBox="0 0 26 26">
  <g id="ripple" transform="translate(-30.5 -20)">
    <g id="Icon" transform="translate(30.5 20)">
      <g id="ether" transform="translate(-0.5)">
        <circle id="Oval" cx="13" cy="13" r="13" transform="translate(0.5)" fill="#18c818"/>
        <path id="Shape" d="M11.269,8.617a3.268,3.268,0,0,0-1.58-.391A1.132,1.132,0,0,1,8.552,7.06,1.168,1.168,0,0,1,9.689,5.895a3.268,3.268,0,0,0,1.58-.391,2.983,2.983,0,0,0,1.266-3.563A2.87,2.87,0,0,0,9.329.045a2.93,2.93,0,0,0-2.379,2.9A3.448,3.448,0,0,0,7.4,4.534a1.166,1.166,0,0,1-.41,1.6A1.141,1.141,0,0,1,5.433,5.7,3.356,3.356,0,0,0,4.318,4.506a2.832,2.832,0,0,0-3.645.658,3,3,0,0,0,0,3.791,2.832,2.832,0,0,0,3.645.658A3.354,3.354,0,0,0,5.433,8.421a1.107,1.107,0,0,1,1.56-.438,1.2,1.2,0,0,1,.409,1.6,3.447,3.447,0,0,0-.451,1.585,2.93,2.93,0,0,0,2.379,2.9,2.87,2.87,0,0,0,3.205-1.9A2.983,2.983,0,0,0,11.269,8.617Z" transform="translate(5.5 6.129)" fill="#fff"/>
      </g>
    </g>
  </g>
</svg>
