<svg xmlns="http://www.w3.org/2000/svg" xmlns:xlink="http://www.w3.org/1999/xlink" width="42" height="42" viewBox="0 0 42 42">
  <defs>
    <filter id="BG-5" x="0" y="0" width="42" height="42" filterUnits="userSpaceOnUse">
      <feOffset dy="3" input="SourceAlpha"/>
      <feGaussianBlur stdDeviation="3" result="blur"/>
      <feFlood flood-color="#267dce" flood-opacity="0.071"/>
      <feComposite operator="in" in2="blur"/>
      <feComposite in="SourceGraphic"/>
    </filter>
  </defs>
  <!-- <g id="security" transform="translate(9 6)"> -->
  <g id="security" transform="translate(0 1)">
    <g transform="matrix(1, 0, 0, 1, -9, -6)" filter="url(#BG-5)">
      <rect id="BG-5-2" data-name="BG-5" width="24" height="24" rx="4" transform="translate(9 6)" fill="#fff"/>
    </g>
    <g id="Icon_material-verified-user" data-name="Icon material-verified-user" transform="translate(1.5 3.5)" fill="none">
      <path d="M10.5,1.5l-6,2.545V7.864a7.982,7.982,0,0,0,6,7.636,7.982,7.982,0,0,0,6-7.636V4.045Z" stroke="none"/>
      <path d="M 10.5 2.586267471313477 L 5.5 4.707475662231445 L 5.5 7.863639831542969 C 5.5 9.354499816894531 6.031840324401855 10.85519981384277 6.997540473937988 12.08930015563965 C 7.913844108581543 13.26028251647949 9.150408744812012 14.09850025177002 10.5 14.46854591369629 C 11.84959125518799 14.09850025177002 13.08615493774414 13.26028251647949 14.00246047973633 12.08930015563965 C 14.96816062927246 10.85519981384277 15.5 9.354499816894531 15.5 7.863639831542969 L 15.5 4.707475662231445 L 10.5 2.586267471313477 M 10.5 1.5 L 16.5 4.045450210571289 L 16.5 7.863639831542969 C 16.5 11.39545059204102 13.94000053405762 14.69818019866943 10.5 15.5 C 7.060000419616699 14.69818019866943 4.5 11.39545059204102 4.5 7.863639831542969 L 4.5 4.045450210571289 L 10.5 1.5 Z" stroke="none" fill="#013567"/>
    </g>
    <path id="Icon_material-verified-user-2" data-name="Icon material-verified-user" d="M8.37,9.89,6.5,8.105l.659-.629L8.37,8.627l3.08-2.94.659.634Z" transform="translate(3 4.313)" fill="#013567"/>
  </g>
</svg>
