<svg xmlns="http://www.w3.org/2000/svg" width="24" height="24" viewBox="0 0 24 24">
  <g id="sell" transform="translate(-7 -7)">
    <g id="Layer_2" data-name="Layer 2" transform="translate(7 7)">
      <g id="invisible_box" data-name="invisible box">
        <rect id="Rectangle_2195" data-name="Rectangle 2195" width="24" height="24" fill="none"/>
      </g>
      <g id="icons_Q2" data-name="icons Q2" transform="translate(3.159 3.167)">
        <path id="Path_2964" data-name="Path 2964" d="M20.356,5.944a1.388,1.388,0,0,0-.967-.421H17.445a.841.841,0,0,0-.841.841h0a.841.841,0,0,0,.841.841h1.439l-.967,5.889H7.445L6.772,7.206H8.716a.841.841,0,0,0,.841-.841h0a.841.841,0,0,0-.841-.841H6.562l-.168-1.43A1.262,1.262,0,0,0,5.132,3H3.87a.883.883,0,0,0-.883.715.841.841,0,0,0,.841.967h.925L6.1,16a2.482,2.482,0,0,0-1.178,2.65,2.566,2.566,0,0,0,1.935,1.977A2.607,2.607,0,0,0,9.8,18.983h4.458a2.523,2.523,0,1,0,2.4-3.365,2.607,2.607,0,0,0-2.4,1.682H9.8a2.523,2.523,0,0,0-2.061-1.64l-.084-.883H18.3a1.262,1.262,0,0,0,1.22-1.094L20.65,7.038a1.514,1.514,0,0,0-.294-1.094ZM16.655,17.3a.841.841,0,1,1-.841.841A.841.841,0,0,1,16.655,17.3Zm-8.411.841A.841.841,0,1,1,7.4,17.3.841.841,0,0,1,8.244,18.142Z" transform="translate(-2.977 -3)" fill="#fff" stroke="#013567" stroke-width="0.4"/>
        <path id="Path_2965" data-name="Path 2965" d="M20.167,11.083a.875.875,0,0,0,.083,1.125l2.083,2.042a.792.792,0,0,0,1.167,0l2.083-2.042a.875.875,0,0,0,.083-1.125A.792.792,0,0,0,24.417,11l-.667.667V7.833a.833.833,0,0,0-1.667,0v3.833L21.417,11a.792.792,0,0,0-1.25.083Z" transform="translate(33.026 16.173) rotate(180)" fill="#fff" stroke="#013567" stroke-width="0.4"/>
      </g>
    </g>
  </g>
</svg>
