<svg id="settings" xmlns="http://www.w3.org/2000/svg" width="24" height="24" viewBox="0 0 24 24">
  <rect id="BG-5" width="24" height="24" rx="4" fill="#fff"/>
  <g id="Icon_feather-settings" data-name="Icon feather-settings" transform="translate(3.5 3.5)">
    <path id="Path_2976" data-name="Path 2976" d="M17.309,15.4a1.9,1.9,0,1,1-1.9-1.9A1.9,1.9,0,0,1,17.309,15.4Z" transform="translate(-6.887 -6.887)" fill="none" stroke="#013567" stroke-linecap="round" stroke-linejoin="round" stroke-width="1"/>
    <path id="Path_2977" data-name="Path 2977" d="M13.209,10.409a1.05,1.05,0,0,0,.21,1.158l.038.038a1.273,1.273,0,1,1-1.8,1.8l-.038-.038a1.059,1.059,0,0,0-1.795.751v.108a1.273,1.273,0,1,1-2.545,0V14.17a1.1,1.1,0,0,0-1.845-.751l-.038.038a1.273,1.273,0,1,1-1.8-1.8l.038-.038a1.059,1.059,0,0,0-.751-1.795H2.773a1.273,1.273,0,1,1,0-2.545H2.83a1.1,1.1,0,0,0,.751-1.845l-.038-.038a1.273,1.273,0,1,1,1.8-1.8l.038.038a1.05,1.05,0,0,0,1.158.21h.051a1.05,1.05,0,0,0,.636-.961V2.773a1.273,1.273,0,0,1,2.545,0V2.83a1.059,1.059,0,0,0,1.795.751l.038-.038a1.273,1.273,0,1,1,1.8,1.8l-.038.038a1.05,1.05,0,0,0-.21,1.158v.051a1.05,1.05,0,0,0,.961.636h.108a1.273,1.273,0,1,1,0,2.545H14.17a1.05,1.05,0,0,0-.961.636Z" transform="translate(0 0)" fill="none" stroke="#013567" stroke-linecap="round" stroke-linejoin="round" stroke-width="1"/>
  </g>
</svg>
