<!-- Generated by IcoMoon.io -->
<svg version="1.1" xmlns="http://www.w3.org/2000/svg" width="18" height="18" viewBox="0 0 18 18">
<title>spinner11</title>
<path fill="#fff" d="M18 6.75h-6.75l2.523-2.523c-1.275-1.275-2.97-1.977-4.773-1.977s-3.498 0.702-4.773 1.977c-1.275 1.275-1.977 2.97-1.977 4.773s0.702 3.498 1.977 4.773c1.275 1.275 2.97 1.977 4.773 1.977s3.498-0.702 4.773-1.977c0.106-0.106 0.208-0.216 0.307-0.328l1.693 1.482c-1.65 1.884-4.072 3.074-6.773 3.074-4.971 0-9-4.029-9-9s4.029-9 9-9c2.485 0 4.735 1.008 6.364 2.636l2.636-2.636v6.75z"></path>
</svg>
