<svg id="support" xmlns="http://www.w3.org/2000/svg" width="24" height="24" viewBox="0 0 24 24">
  <rect id="BG-5" width="24" height="24" rx="4" fill="#fff"/>
  <g id="Layer_2" data-name="Layer 2" transform="translate(4.25 4.25)">
    <g id="invisible_box" data-name="invisible box">
      <rect id="Rectangle_2202" data-name="Rectangle 2202" width="16" height="16" transform="translate(-0.25 -0.25)" fill="none"/>
    </g>
    <g id="icons_Q2" data-name="icons Q2" transform="translate(0.646 0.646)">
      <path id="Path_2978" data-name="Path 2978" d="M9.1,2a7.072,7.072,0,1,0,5.033,2.071A7.1,7.1,0,0,0,9.1,2Zm0,12.917A5.813,5.813,0,1,1,14.917,9.1,5.813,5.813,0,0,1,9.1,14.917Z" transform="translate(-2 -2)" fill="#013567"/>
      <path id="Path_2979" data-name="Path 2979" d="M22.646,35.333h-.129l-.129-.065h-.1l-.1-.1-.1-.1c0-.032-.032-.065-.065-.1s0-.1-.032-.129v-.258c.032-.032.032-.065.032-.129s.065-.065.065-.1l.1-.1a.614.614,0,0,1,.581-.194H22.9l.1.065.1.1.1.1c0,.032.032.065.032.1a.245.245,0,0,0,.065.129v.258c-.032.032-.032.065-.065.129s-.032.065-.032.1l-.1.1-.1.1h-.1l-.129.065Z" transform="translate(-15.542 -23.708)" fill="#013567"/>
      <path id="Path_2980" data-name="Path 2980" d="M18.035,16.466h-.258a.646.646,0,0,1-.355-.84,2.357,2.357,0,0,1,1.163-1.259,1.582,1.582,0,0,0-.355-3.035,1.591,1.591,0,0,0-1.937,1.55.646.646,0,0,1-1.292,0,2.927,2.927,0,0,1,3.487-2.809,2.874,2.874,0,0,1,.646,5.425,1.2,1.2,0,0,0-.517.549A.614.614,0,0,1,18.035,16.466Z" transform="translate(-10.802 -7.425)" fill="#013567"/>
    </g>
  </g>
</svg>
