<svg xmlns="http://www.w3.org/2000/svg" width="26.2" height="26.2" viewBox="0 0 26.2 26.2">
  <g id="tether" transform="translate(-29.9 -19.9)">
    <g id="Icon" transform="translate(30 20)">
      <g id="ether">
        <circle id="Oval" cx="13" cy="13" r="13" fill="#f5f7fa" stroke="#eaeaea" stroke-width="0.2"/>
        <path id="Path_2990" data-name="Path 2990" d="M72.309,46.976h0c-.077.006-.477.03-1.37.03-.71,0-1.214-.021-1.39-.03h0c-2.743-.121-4.79-.6-4.79-1.17s2.047-1.048,4.79-1.171V46.5c.179.013.693.043,1.4.043.852,0,1.278-.035,1.355-.043V44.637c2.737.122,4.779.6,4.779,1.17s-2.042,1.048-4.779,1.169h0Zm0-2.532V42.775h3.819V40.23h-10.4v2.545h3.819v1.668c-3.1.143-5.438.757-5.438,1.494s2.334,1.351,5.438,1.494V52.78h2.76V47.43c3.1-.143,5.427-.757,5.427-1.493s-2.328-1.35-5.427-1.494h0Zm0,0Z" transform="translate(-57.923 -32.126)" fill="#50af95" fill-rule="evenodd"/>
      </g>
    </g>
  </g>
</svg>
