<svg xmlns="http://www.w3.org/2000/svg" width="11.5" height="11.5" viewBox="0 0 11.5 11.5">
  <g id="verify_check" transform="translate(-3.375 -3.375)">
    <path id="Path_2916" data-name="Path 2916" d="M16.356,12.74l-.487-.5a.1.1,0,0,0-.077-.033h0a.1.1,0,0,0-.077.033l-3.373,3.4-1.227-1.227a.107.107,0,0,0-.155,0l-.492.492a.11.11,0,0,0,0,.158l1.548,1.548a.49.49,0,0,0,.323.158.513.513,0,0,0,.321-.152h0l3.7-3.715A.118.118,0,0,0,16.356,12.74Z" transform="translate(-4.284 -5.109)" fill="#1ddb5c"/>
    <path id="Path_2917" data-name="Path 2917" d="M9.125,4.149A4.974,4.974,0,1,1,5.606,5.606,4.943,4.943,0,0,1,9.125,4.149m0-.774a5.75,5.75,0,1,0,5.75,5.75,5.749,5.749,0,0,0-5.75-5.75Z" fill="#1ddb5c"/>
  </g>
</svg>
