<svg xmlns="http://www.w3.org/2000/svg" xmlns:xlink="http://www.w3.org/1999/xlink" width="55" height="55" viewBox="0 0 62 62">
  <defs>
    <filter id="Rectangle" x="0" y="0" filterUnits="userSpaceOnUse">
      <feOffset dy="3" input="SourceAlpha" />
      <feGaussianBlur stdDeviation="3" result="blur" />
      <feFlood flood-opacity="0.102" />
      <feComposite operator="in" in2="blur" />
      <feComposite in="SourceGraphic" />
    </filter>
    <linearGradient id="linear-gradient" x1="0.5" y1="1" x2="0.5" gradientUnits="objectBoundingBox">
      <stop offset="0" stop-color="#20b038" />
      <stop offset="1" stop-color="#60d66a" />
    </linearGradient>
  </defs>
  <g id="whatsapp" transform="translate(-137 5.749)">
    <g id="whatsapp-symbol" transform="translate(161 14.251)">
      <path id="Path_2947" data-name="Path 2947" d="M29.784,5.089A17.361,17.361,0,0,0,2.463,26.028L0,35.02l9.2-2.413a17.347,17.347,0,0,0,8.3,2.112H17.5A17.36,17.36,0,0,0,29.784,5.089ZM17.5,31.789H17.5a14.41,14.41,0,0,1-7.343-2.011l-.527-.312L4.168,30.9l1.458-5.322-.343-.546A14.429,14.429,0,1,1,17.5,31.789Z" fill="#e0e0e0" />
      <path id="Path_2948" data-name="Path 2948" d="M27.875,54.5l2.35-8.581A16.566,16.566,0,1,1,44.58,54.21h-.007a16.561,16.561,0,0,1-7.916-2.015l-8.782,2.3Z" transform="translate(-27.078 -20.475)" fill="url(#linear-gradient)" />
      <rect id="Rectangle_2148" data-name="Rectangle 2148" width="19.497" height="18.267" transform="translate(7.747 8.33)" fill="none" opacity="0.08" />
      <path id="Path_2949" data-name="Path 2949" d="M311.72,323.779c-.321-.714-.659-.728-.965-.741-.25-.011-.536-.01-.822-.01a1.575,1.575,0,0,0-1.143.536,4.806,4.806,0,0,0-1.5,3.576,8.341,8.341,0,0,0,1.751,4.434c.214.286,2.966,4.753,7.324,6.472,3.622,1.428,4.359,1.144,5.145,1.073a4.33,4.33,0,0,0,2.894-2.038,3.582,3.582,0,0,0,.25-2.038c-.107-.179-.393-.286-.822-.5s-2.537-1.252-2.93-1.395-.679-.214-.965.215-1.107,1.394-1.357,1.68-.5.322-.929.108a11.728,11.728,0,0,1-3.448-2.128,12.915,12.915,0,0,1-2.385-2.969c-.25-.429-.027-.661.188-.875.193-.192.429-.5.643-.751a2.94,2.94,0,0,0,.428-.715.789.789,0,0,0-.036-.751C312.934,326.747,312.1,324.626,311.72,323.779Z" transform="translate(-298.504 -313.793)" fill="#fff" fill-rule="evenodd" />
      <path id="Path_2950" data-name="Path 2950" d="M36.442,5.145a17.161,17.161,0,0,0-27.008,20.7L7,34.732l9.1-2.385a17.148,17.148,0,0,0,8.2,2.088H24.3A17.161,17.161,0,0,0,36.442,5.145ZM24.3,31.538H24.3a14.245,14.245,0,0,1-7.259-1.988l-.521-.309-5.4,1.415L12.561,25.4l-.339-.539A14.263,14.263,0,1,1,24.3,31.538Z" transform="translate(-6.8 -0.111)" fill="#fff" />
    </g>
  </g>
</svg>